<?xml version="1.0" encoding="utf-8"?>
<!-- Generator: Adobe Illustrator 17.0.0, SVG Export Plug-In . SVG Version: 6.00 Build 0)  -->
<!DOCTYPE svg PUBLIC "-//W3C//DTD SVG 1.1//EN" "http://www.w3.org/Graphics/SVG/1.1/DTD/svg11.dtd">
<svg version="1.1" id="Layer_1" xmlns="http://www.w3.org/2000/svg" xmlns:xlink="http://www.w3.org/1999/xlink" x="0px" y="0px"
	 width="320px" height="480px" viewBox="0 0 320 480" enable-background="new 0 0 320 480" xml:space="preserve">
<g>
	<path fill="#F2F2F2" d="M143.636,447.926v-2.041c0-0.119,0.08-0.199,0.2-0.199h2c0.12,0,0.2,0.08,0.2,0.199v2.041
		c0,0.119-0.08,0.199-0.2,0.199h-2C143.716,448.125,143.636,448.045,143.636,447.926z M143.636,453.087c0-0.12,0.08-0.2,0.2-0.2h2
		c0.12,0,0.2,0.08,0.2,0.2v2.04c0,0.12-0.08,0.2-0.2,0.2h-2c-0.12,0-0.2-0.08-0.2-0.2V453.087z"/>
	<path fill="#F2F2F2" d="M150.136,448.766c0-2.74-0.66-5.641-1.86-8.041c-0.06-0.121,0-0.201,0.12-0.201h0.98
		c0.14,0,0.24,0.061,0.34,0.201c1.721,2.4,2.561,5.301,2.561,8.041s-0.82,5.602-2.561,8.042c-0.1,0.14-0.2,0.2-0.34,0.2h-0.98
		c-0.12,0-0.18-0.08-0.12-0.2C149.456,454.467,150.136,451.506,150.136,448.766z"/>
</g>
<g>
	<path fill="#F2F2F2" d="M240.969,396.593v-2.041c0-0.12,0.08-0.2,0.2-0.2h2c0.12,0,0.2,0.08,0.2,0.2v2.041
		c0,0.119-0.08,0.199-0.2,0.199h-2C241.049,396.792,240.969,396.712,240.969,396.593z M240.969,401.754c0-0.12,0.08-0.2,0.2-0.2h2
		c0.12,0,0.2,0.08,0.2,0.2v2.04c0,0.12-0.08,0.2-0.2,0.2h-2c-0.12,0-0.2-0.08-0.2-0.2V401.754z"/>
	<path fill="#F2F2F2" d="M247.469,397.433c0-2.74-0.66-5.642-1.86-8.042c-0.06-0.12,0-0.2,0.12-0.2h0.98c0.14,0,0.24,0.061,0.34,0.2
		c1.721,2.4,2.561,5.302,2.561,8.042s-0.82,5.602-2.561,8.042c-0.1,0.14-0.2,0.199-0.34,0.199h-0.98c-0.12,0-0.18-0.079-0.12-0.199
		C246.789,403.134,247.469,400.173,247.469,397.433z"/>
</g>
<g>
	<path fill="#F2F2F2" d="M134.636,411.593v-2.041c0-0.12,0.08-0.2,0.2-0.2h2c0.12,0,0.2,0.08,0.2,0.2v2.041
		c0,0.119-0.08,0.199-0.2,0.199h-2C134.716,411.792,134.636,411.712,134.636,411.593z M134.696,416.754c0-0.12,0.08-0.2,0.2-0.2
		h1.88c0.12,0,0.2,0.08,0.2,0.2v2.18c0,0.2-0.02,0.28-0.12,0.4l-1.68,1.74c-0.1,0.101-0.18,0.141-0.28,0.141
		c-0.12,0-0.2-0.08-0.2-0.2V416.754z"/>
	<path fill="#F2F2F2" d="M141.136,412.433c0-2.74-0.66-5.642-1.86-8.042c-0.06-0.12,0-0.2,0.12-0.2h0.98c0.14,0,0.24,0.061,0.34,0.2
		c1.721,2.4,2.561,5.302,2.561,8.042s-0.82,5.602-2.561,8.042c-0.1,0.14-0.2,0.199-0.34,0.199h-0.98c-0.12,0-0.18-0.079-0.12-0.199
		C140.456,418.134,141.136,415.173,141.136,412.433z"/>
</g>
<g>
	<path fill="#F2F2F2" d="M227.302,440.26v-2.041c0-0.12,0.08-0.2,0.2-0.2h2c0.12,0,0.2,0.08,0.2,0.2v2.041
		c0,0.119-0.08,0.199-0.2,0.199h-2C227.382,440.459,227.302,440.379,227.302,440.26z M227.302,445.421c0-0.12,0.08-0.2,0.2-0.2h2
		c0.12,0,0.2,0.08,0.2,0.2v2.04c0,0.12-0.08,0.2-0.2,0.2h-2c-0.12,0-0.2-0.08-0.2-0.2V445.421z"/>
	<path fill="#F2F2F2" d="M233.822,439.619l0.02-1.62l-1.4,0.84c-0.1,0.061-0.22,0.021-0.28-0.08l-0.42-0.76
		c-0.06-0.101-0.02-0.221,0.08-0.28l1.4-0.78l-1.4-0.78c-0.1-0.06-0.14-0.18-0.08-0.28l0.42-0.76c0.061-0.1,0.181-0.14,0.28-0.08
		l1.4,0.84l-0.02-1.62c0-0.12,0.08-0.2,0.199-0.2h0.86c0.12,0,0.2,0.08,0.2,0.2l-0.02,1.62l1.4-0.84c0.1-0.06,0.22-0.02,0.279,0.08
		l0.421,0.76c0.06,0.101,0.02,0.221-0.08,0.28l-1.4,0.78l1.4,0.78c0.1,0.06,0.14,0.18,0.08,0.28l-0.421,0.76
		c-0.06,0.101-0.18,0.141-0.279,0.08l-1.4-0.84l0.02,1.62c0,0.12-0.08,0.2-0.2,0.2h-0.86
		C233.902,439.819,233.822,439.739,233.822,439.619z"/>
</g>
<g>
	<path fill="#F2F2F2" d="M64.969,464.926v-2.04c0-0.12,0.08-0.2,0.2-0.2h2c0.12,0,0.2,0.08,0.2,0.2v2.04c0,0.12-0.08,0.2-0.2,0.2h-2
		C65.049,465.126,64.969,465.046,64.969,464.926z M64.969,470.087c0-0.12,0.08-0.2,0.2-0.2h2c0.12,0,0.2,0.08,0.2,0.2v2.04
		c0,0.12-0.08,0.2-0.2,0.2h-2c-0.12,0-0.2-0.08-0.2-0.2V470.087z"/>
	<path fill="#F2F2F2" d="M71.489,464.286l0.02-1.621l-1.4,0.841c-0.1,0.06-0.22,0.02-0.28-0.08l-0.42-0.761
		c-0.06-0.1-0.02-0.22,0.08-0.279l1.4-0.78l-1.4-0.78c-0.1-0.061-0.14-0.181-0.08-0.28l0.42-0.76c0.06-0.101,0.18-0.141,0.28-0.08
		l1.4,0.84l-0.02-1.62c0-0.12,0.08-0.2,0.2-0.2h0.86c0.12,0,0.2,0.08,0.2,0.2l-0.02,1.62l1.4-0.84c0.1-0.061,0.22-0.021,0.28,0.08
		l0.42,0.76c0.06,0.1,0.02,0.22-0.08,0.28l-1.4,0.78l1.4,0.78c0.1,0.06,0.14,0.18,0.08,0.279l-0.42,0.761
		c-0.06,0.1-0.18,0.14-0.28,0.08l-1.4-0.841l0.02,1.621c0,0.119-0.08,0.199-0.2,0.199h-0.86
		C71.569,464.485,71.489,464.405,71.489,464.286z"/>
</g>
<g>
	<path fill="#F2F2F2" d="M106.57,448.458c4.681,0,7.922,3.261,7.922,7.841c0,2.941-1.541,4.281-3.301,4.281
		c-1.18,0-1.98-0.5-2.421-1.28h-0.02c-0.38,0.74-1.221,1.261-2.641,1.261c-1.46,0-2.461-0.66-2.881-1.961
		c-0.18-0.54-0.26-1.12-0.26-2.221c0-1.1,0.08-1.68,0.26-2.22c0.42-1.301,1.42-1.961,2.801-1.961c1.06,0,1.84,0.48,2.16,1.021h0.04
		v-0.62c0-0.12,0.08-0.181,0.16-0.181h1.48c0.12,0,0.16,0.061,0.16,0.181v4.94c0,1.001,0.54,1.4,1.16,1.4
		c0.78,0,1.46-0.6,1.46-2.641c0-3.66-2.32-6.201-6.081-6.201s-6.082,2.501-6.082,6.201c0,3.701,2.321,6.202,6.082,6.202
		c1.86,0,3.081-0.341,4.281-0.9c0.12-0.061,0.22-0.04,0.28,0.1l0.46,1.08c0.06,0.101,0.02,0.2-0.08,0.261
		c-1.44,0.76-2.9,1.1-4.941,1.1c-4.681,0-7.922-3.221-7.922-7.842C98.648,451.679,101.889,448.458,106.57,448.458z M106.53,458.899
		c0.8,0,1.32-0.359,1.561-1.1c0.1-0.32,0.14-0.66,0.14-1.421c0-0.76-0.04-1.1-0.14-1.4c-0.24-0.76-0.76-1.12-1.561-1.12
		s-1.32,0.36-1.581,1.12c-0.1,0.301-0.14,0.641-0.14,1.4c0,0.761,0.04,1.101,0.14,1.421
		C105.21,458.54,105.73,458.899,106.53,458.899z"/>
</g>
<g>
	<path fill="#F2F2F2" d="M196.903,456.458c4.682,0,7.922,3.261,7.922,7.841c0,2.941-1.54,4.281-3.301,4.281
		c-1.18,0-1.98-0.5-2.421-1.28h-0.02c-0.38,0.74-1.221,1.261-2.641,1.261c-1.46,0-2.461-0.66-2.881-1.961
		c-0.18-0.54-0.26-1.12-0.26-2.221c0-1.1,0.08-1.68,0.26-2.22c0.42-1.301,1.421-1.961,2.801-1.961c1.061,0,1.841,0.48,2.16,1.021
		h0.04v-0.62c0-0.12,0.08-0.181,0.16-0.181h1.48c0.12,0,0.16,0.061,0.16,0.181v4.94c0,1.001,0.54,1.4,1.16,1.4
		c0.78,0,1.46-0.6,1.46-2.641c0-3.66-2.32-6.201-6.081-6.201s-6.081,2.501-6.081,6.201c0,3.701,2.32,6.202,6.081,6.202
		c1.86,0,3.081-0.341,4.281-0.9c0.12-0.061,0.22-0.04,0.28,0.1l0.46,1.08c0.06,0.101,0.02,0.2-0.08,0.261
		c-1.44,0.76-2.9,1.1-4.941,1.1c-4.681,0-7.922-3.221-7.922-7.842C188.981,459.679,192.223,456.458,196.903,456.458z
		 M196.863,466.899c0.801,0,1.32-0.359,1.561-1.1c0.1-0.32,0.14-0.66,0.14-1.421c0-0.76-0.04-1.1-0.14-1.4
		c-0.24-0.76-0.76-1.12-1.561-1.12c-0.8,0-1.32,0.36-1.58,1.12c-0.1,0.301-0.14,0.641-0.14,1.4c0,0.761,0.04,1.101,0.14,1.421
		C195.543,466.54,196.063,466.899,196.863,466.899z"/>
</g>
<g>
	<path fill="#F2F2F2" d="M253.237,456.458c4.681,0,7.922,3.261,7.922,7.841c0,2.941-1.541,4.281-3.301,4.281
		c-1.181,0-1.98-0.5-2.421-1.28h-0.02c-0.381,0.74-1.221,1.261-2.641,1.261c-1.461,0-2.461-0.66-2.881-1.961
		c-0.181-0.54-0.26-1.12-0.26-2.221c0-1.1,0.079-1.68,0.26-2.22c0.42-1.301,1.42-1.961,2.801-1.961c1.06,0,1.84,0.48,2.16,1.021
		h0.04v-0.62c0-0.12,0.08-0.181,0.16-0.181h1.48c0.12,0,0.16,0.061,0.16,0.181v4.94c0,1.001,0.54,1.4,1.16,1.4
		c0.78,0,1.46-0.6,1.46-2.641c0-3.66-2.32-6.201-6.081-6.201s-6.082,2.501-6.082,6.201c0,3.701,2.321,6.202,6.082,6.202
		c1.86,0,3.08-0.341,4.28-0.9c0.12-0.061,0.221-0.04,0.28,0.1l0.46,1.08c0.061,0.101,0.021,0.2-0.08,0.261
		c-1.44,0.76-2.9,1.1-4.94,1.1c-4.682,0-7.922-3.221-7.922-7.842C245.315,459.679,248.556,456.458,253.237,456.458z
		 M253.197,466.899c0.8,0,1.32-0.359,1.561-1.1c0.1-0.32,0.14-0.66,0.14-1.421c0-0.76-0.04-1.1-0.14-1.4
		c-0.24-0.76-0.761-1.12-1.561-1.12c-0.801,0-1.32,0.36-1.581,1.12c-0.1,0.301-0.14,0.641-0.14,1.4c0,0.761,0.04,1.101,0.14,1.421
		C251.877,466.54,252.396,466.899,253.197,466.899z"/>
</g>
<g>
	<path fill="#F2F2F2" d="M259.729,441.807l1.061-1.341c0.08-0.1,0.2-0.1,0.28-0.02c0.58,0.48,1.5,0.98,2.561,1.08v-4.101
		c-2.28-0.38-3.661-1.801-3.661-3.841c0-2.221,1.521-3.821,3.661-4.041v-1.04c0-0.12,0.08-0.2,0.2-0.2h0.78
		c0.119,0,0.199,0.08,0.199,0.2v1.04c1.16,0.1,2.221,0.5,3.061,1.061c0.101,0.08,0.12,0.16,0.04,0.279l-0.92,1.36
		c-0.08,0.101-0.18,0.101-0.28,0.04c-0.58-0.359-1.22-0.62-1.9-0.72v3.9c2.421,0.4,3.681,1.801,3.681,3.861
		c0,2.261-1.399,3.841-3.681,4.161v1.06c0,0.12-0.08,0.2-0.199,0.2h-0.78c-0.12,0-0.2-0.08-0.2-0.2v-1.02
		c-1.521-0.061-2.821-0.601-3.861-1.421C259.669,442.026,259.648,441.906,259.729,441.807z M263.63,431.564
		c-0.9,0.18-1.48,0.9-1.48,1.86c0,0.84,0.34,1.48,1.48,1.801V431.564z M266.311,439.406c0-0.761-0.36-1.421-1.501-1.761v3.821
		C265.79,441.227,266.311,440.526,266.311,439.406z"/>
</g>
<g>
	<path fill="#F2F2F2" d="M310.21,138.727v-2.041c0-0.12,0.08-0.2,0.2-0.2h2c0.12,0,0.2,0.08,0.2,0.2v2.041c0,0.12-0.08,0.2-0.2,0.2
		h-2C310.29,138.927,310.21,138.847,310.21,138.727z M310.21,143.888c0-0.12,0.08-0.2,0.2-0.2h2c0.12,0,0.2,0.08,0.2,0.2v2.04
		c0,0.12-0.08,0.2-0.2,0.2h-2c-0.12,0-0.2-0.08-0.2-0.2V143.888z"/>
	<path fill="#F2F2F2" d="M316.71,139.567c0-2.74-0.66-5.641-1.86-8.042c-0.061-0.12,0-0.2,0.12-0.2h0.979
		c0.141,0,0.24,0.06,0.34,0.2c1.721,2.4,2.561,5.301,2.561,8.042c0,2.741-0.819,5.602-2.561,8.042c-0.1,0.14-0.199,0.2-0.34,0.2
		h-0.979c-0.12,0-0.181-0.08-0.12-0.2C316.029,145.268,316.71,142.308,316.71,139.567z"/>
</g>
<g>
	<path fill="#F2F2F2" d="M285.195,168.352v-2.041c0-0.12,0.08-0.2,0.2-0.2h2c0.12,0,0.2,0.08,0.2,0.2v2.041c0,0.12-0.08,0.2-0.2,0.2
		h-2C285.275,168.551,285.195,168.471,285.195,168.352z M285.195,173.513c0-0.12,0.08-0.2,0.2-0.2h2c0.12,0,0.2,0.08,0.2,0.2v2.04
		c0,0.12-0.08,0.2-0.2,0.2h-2c-0.12,0-0.2-0.08-0.2-0.2V173.513z"/>
	<path fill="#F2F2F2" d="M291.715,167.711l0.021-1.621l-1.4,0.84c-0.101,0.06-0.221,0.02-0.28-0.08l-0.42-0.76
		c-0.061-0.1-0.021-0.22,0.08-0.28l1.4-0.78l-1.4-0.78c-0.101-0.06-0.141-0.18-0.08-0.28l0.42-0.76c0.06-0.1,0.18-0.14,0.28-0.08
		l1.4,0.84l-0.021-1.62c0-0.12,0.08-0.2,0.2-0.2h0.86c0.12,0,0.2,0.08,0.2,0.2l-0.021,1.62l1.4-0.84c0.1-0.06,0.22-0.02,0.28,0.08
		l0.42,0.76c0.06,0.1,0.021,0.22-0.08,0.28l-1.4,0.78l1.4,0.78c0.101,0.06,0.14,0.18,0.08,0.28l-0.42,0.76
		c-0.061,0.1-0.181,0.14-0.28,0.08l-1.4-0.84l0.021,1.621c0,0.12-0.08,0.2-0.2,0.2h-0.86
		C291.795,167.911,291.715,167.831,291.715,167.711z"/>
</g>
<g>
	<path fill="#F2F2F2" d="M301.9,195.384c4.681,0,7.922,3.261,7.922,7.841c0,2.941-1.541,4.281-3.301,4.281
		c-1.181,0-1.98-0.5-2.421-1.28h-0.02c-0.381,0.74-1.221,1.26-2.641,1.26c-1.461,0-2.461-0.66-2.881-1.96
		c-0.181-0.54-0.26-1.12-0.26-2.221c0-1.1,0.079-1.68,0.26-2.22c0.42-1.3,1.42-1.96,2.801-1.96c1.06,0,1.84,0.48,2.16,1.02h0.04
		v-0.62c0-0.12,0.08-0.18,0.16-0.18h1.48c0.12,0,0.16,0.06,0.16,0.18v4.941c0,1,0.54,1.4,1.16,1.4c0.78,0,1.46-0.6,1.46-2.641
		c0-3.661-2.32-6.201-6.081-6.201s-6.082,2.5-6.082,6.201c0,3.701,2.321,6.202,6.082,6.202c1.86,0,3.08-0.34,4.28-0.9
		c0.12-0.06,0.221-0.04,0.28,0.1l0.46,1.08c0.061,0.1,0.021,0.2-0.08,0.26c-1.44,0.76-2.9,1.1-4.94,1.1
		c-4.682,0-7.922-3.221-7.922-7.842C293.979,198.604,297.219,195.384,301.9,195.384z M301.86,205.826c0.8,0,1.32-0.36,1.561-1.1
		c0.1-0.32,0.14-0.66,0.14-1.42s-0.04-1.1-0.14-1.4c-0.24-0.76-0.761-1.12-1.561-1.12c-0.801,0-1.32,0.36-1.581,1.12
		c-0.1,0.3-0.14,0.64-0.14,1.4s0.04,1.101,0.14,1.42C300.54,205.466,301.06,205.826,301.86,205.826z"/>
</g>
<g>
	<path fill="#F2F2F2" d="M308.392,180.732l1.061-1.34c0.08-0.1,0.2-0.1,0.28-0.02c0.58,0.48,1.5,0.98,2.561,1.081v-4.101
		c-2.28-0.38-3.661-1.8-3.661-3.841c0-2.22,1.521-3.821,3.661-4.041v-1.041c0-0.12,0.08-0.2,0.2-0.2h0.78
		c0.119,0,0.199,0.08,0.199,0.2v1.041c1.16,0.1,2.221,0.5,3.061,1.06c0.101,0.08,0.12,0.16,0.04,0.28l-0.92,1.36
		c-0.08,0.1-0.18,0.1-0.28,0.04c-0.58-0.36-1.22-0.62-1.9-0.72v3.901c2.421,0.4,3.681,1.8,3.681,3.861
		c0,2.261-1.399,3.841-3.681,4.161v1.06c0,0.12-0.08,0.2-0.199,0.2h-0.78c-0.12,0-0.2-0.08-0.2-0.2v-1.02
		c-1.521-0.06-2.821-0.6-3.861-1.42C308.332,180.953,308.312,180.833,308.392,180.732z M312.293,170.49
		c-0.9,0.18-1.48,0.9-1.48,1.86c0,0.84,0.34,1.48,1.48,1.801V170.49z M314.974,178.332c0-0.76-0.36-1.42-1.501-1.76v3.821
		C314.453,180.152,314.974,179.452,314.974,178.332z"/>
</g>
<g>
	<path fill="#F2F2F2" d="M60.396,402.474l1.061-1.341c0.08-0.1,0.2-0.1,0.28-0.02c0.58,0.48,1.5,0.98,2.561,1.08v-4.101
		c-2.28-0.38-3.661-1.801-3.661-3.841c0-2.221,1.52-3.821,3.661-4.041v-1.04c0-0.12,0.08-0.2,0.2-0.2h0.78c0.12,0,0.2,0.08,0.2,0.2
		v1.04c1.16,0.1,2.221,0.5,3.061,1.061c0.1,0.08,0.12,0.16,0.04,0.279l-0.92,1.36c-0.08,0.101-0.18,0.101-0.28,0.04
		c-0.58-0.359-1.22-0.62-1.9-0.72v3.9c2.42,0.4,3.681,1.801,3.681,3.861c0,2.261-1.4,3.841-3.681,4.161v1.06
		c0,0.12-0.08,0.2-0.2,0.2h-0.78c-0.12,0-0.2-0.08-0.2-0.2v-1.02c-1.521-0.061-2.821-0.601-3.861-1.421
		C60.335,402.693,60.315,402.573,60.396,402.474z M64.296,392.231c-0.9,0.18-1.48,0.9-1.48,1.86c0,0.84,0.34,1.48,1.48,1.801
		V392.231z M66.977,400.073c0-0.761-0.36-1.421-1.5-1.761v3.821C66.457,401.894,66.977,401.193,66.977,400.073z"/>
</g>
<g>
	<path fill="#F2F2F2" d="M86.599,270.388l1.061-1.341c0.08-0.1,0.2-0.1,0.28-0.02c0.58,0.48,1.5,0.98,2.561,1.08v-4.101
		c-2.28-0.38-3.661-1.801-3.661-3.841c0-2.221,1.52-3.821,3.661-4.041v-1.04c0-0.12,0.08-0.2,0.2-0.2h0.78c0.12,0,0.2,0.08,0.2,0.2
		v1.04c1.16,0.1,2.221,0.5,3.061,1.061c0.1,0.08,0.12,0.16,0.04,0.279l-0.92,1.36c-0.08,0.101-0.18,0.101-0.28,0.04
		c-0.58-0.359-1.22-0.62-1.9-0.72v3.9c2.42,0.4,3.681,1.801,3.681,3.861c0,2.261-1.4,3.841-3.681,4.161v1.06
		c0,0.12-0.08,0.2-0.2,0.2H90.7c-0.12,0-0.2-0.08-0.2-0.2v-1.02c-1.521-0.061-2.821-0.601-3.861-1.421
		C86.539,270.607,86.519,270.487,86.599,270.388z M90.5,260.146c-0.9,0.18-1.48,0.9-1.48,1.86c0,0.84,0.34,1.48,1.48,1.801V260.146z
		 M93.18,267.987c0-0.761-0.36-1.421-1.5-1.761v3.821C92.66,269.808,93.18,269.107,93.18,267.987z"/>
</g>
<g>
	<path fill="#F2F2F2" d="M169.636,396.592v-2.04c0-0.12,0.08-0.2,0.2-0.2h2c0.12,0,0.2,0.08,0.2,0.2v2.04c0,0.12-0.08,0.2-0.2,0.2
		h-2C169.716,396.792,169.636,396.712,169.636,396.592z M169.636,401.754c0-0.121,0.08-0.201,0.2-0.201h2c0.12,0,0.2,0.08,0.2,0.201
		v2.039c0,0.121-0.08,0.201-0.2,0.201h-2c-0.12,0-0.2-0.08-0.2-0.201V401.754z"/>
	<path fill="#F2F2F2" d="M174.936,390.591c0-0.12,0.08-0.2,0.199-0.2h4.861c2.341,0,3.901,1.041,4.541,3.021
		c0.22,0.68,0.34,1.42,0.34,3.78s-0.12,3.101-0.34,3.78c-0.64,1.98-2.2,3.021-4.541,3.021h-4.861c-0.119,0-0.199-0.08-0.199-0.201
		V390.591z M177.416,401.873h2.021c1.5,0,2.42-0.5,2.82-1.721c0.14-0.379,0.24-1,0.24-2.96c0-1.98-0.101-2.581-0.24-2.961
		c-0.4-1.22-1.32-1.72-2.82-1.72h-2.021c-0.08,0-0.12,0.039-0.12,0.119v9.123C177.296,401.833,177.336,401.873,177.416,401.873z"/>
</g>
<g>
	<path fill="#F2F2F2" d="M20.302,388.571v-2.041c0-0.12,0.08-0.2,0.2-0.2h2c0.12,0,0.2,0.08,0.2,0.2v2.041
		c0,0.119-0.08,0.199-0.2,0.199h-2C20.382,388.771,20.302,388.69,20.302,388.571z M20.302,393.732c0-0.12,0.08-0.2,0.2-0.2h2
		c0.12,0,0.2,0.08,0.2,0.2v2.04c0,0.12-0.08,0.2-0.2,0.2h-2c-0.12,0-0.2-0.08-0.2-0.2V393.732z"/>
	<path fill="#F2F2F2" d="M25.602,382.569c0-0.12,0.08-0.2,0.2-0.2h4.861c2.34,0,3.901,1.041,4.541,3.021
		c0.22,0.68,0.34,1.42,0.34,3.78s-0.12,3.101-0.34,3.781c-0.64,1.98-2.201,3.021-4.541,3.021h-4.861c-0.12,0-0.2-0.08-0.2-0.2
		V382.569z M28.082,393.852h2.021c1.5,0,2.42-0.5,2.82-1.72c0.14-0.38,0.24-1,0.24-2.961c0-1.98-0.1-2.58-0.24-2.961
		c-0.4-1.22-1.32-1.72-2.82-1.72h-2.021c-0.08,0-0.12,0.04-0.12,0.12v9.122C27.962,393.812,28.002,393.852,28.082,393.852z"/>
</g>
<g>
	<path fill="#F2F2F2" d="M182.155,436.793h-1.32c-0.12,0-0.2-0.08-0.2-0.2v-1.16c0-0.12,0.08-0.2,0.2-0.2h1.541l0.319-2.32h-1.34
		c-0.12,0-0.2-0.08-0.2-0.2v-1.16c0-0.12,0.08-0.2,0.2-0.2h1.54l0.521-3.761c0.02-0.12,0.08-0.2,0.22-0.2h1.261
		c0.14,0,0.199,0.08,0.18,0.2l-0.521,3.761h2.321l0.52-3.761c0.021-0.12,0.08-0.2,0.22-0.2h1.261c0.14,0,0.2,0.08,0.18,0.2
		l-0.52,3.761h1.38c0.12,0,0.2,0.08,0.2,0.2v1.16c0,0.12-0.08,0.2-0.2,0.2h-1.58l-0.32,2.32h1.381c0.12,0,0.199,0.08,0.199,0.2v1.16
		c0,0.12-0.079,0.2-0.199,0.2h-1.601l-0.54,4.001c-0.021,0.12-0.08,0.2-0.221,0.2h-1.26c-0.14,0-0.2-0.08-0.18-0.2l0.54-4.001
		h-2.321l-0.54,4.001c-0.02,0.12-0.08,0.2-0.22,0.2h-1.26c-0.141,0-0.2-0.08-0.181-0.2L182.155,436.793z M186.356,435.232l0.32-2.32
		h-2.32l-0.32,2.32H186.356z"/>
</g>
<g>
	<path fill="#F2F2F2" d="M309.151,430.615h-1.32c-0.12,0-0.2-0.08-0.2-0.2v-1.16c0-0.12,0.08-0.2,0.2-0.2h1.541l0.319-2.32h-1.34
		c-0.12,0-0.2-0.08-0.2-0.2v-1.16c0-0.12,0.08-0.2,0.2-0.2h1.54l0.521-3.761c0.02-0.12,0.08-0.2,0.22-0.2h1.261
		c0.14,0,0.199,0.08,0.18,0.2l-0.521,3.761h2.321l0.52-3.761c0.021-0.12,0.08-0.2,0.22-0.2h1.261c0.14,0,0.2,0.08,0.18,0.2
		l-0.52,3.761h1.38c0.12,0,0.2,0.08,0.2,0.2v1.16c0,0.12-0.08,0.2-0.2,0.2h-1.58l-0.32,2.32h1.381c0.12,0,0.199,0.08,0.199,0.2v1.16
		c0,0.12-0.079,0.2-0.199,0.2h-1.601l-0.54,4c-0.021,0.12-0.08,0.2-0.221,0.2h-1.26c-0.14,0-0.2-0.08-0.18-0.2l0.54-4h-2.321
		l-0.54,4c-0.02,0.12-0.08,0.2-0.22,0.2h-1.26c-0.141,0-0.2-0.08-0.181-0.2L309.151,430.615z M313.353,429.055l0.32-2.32h-2.32
		l-0.32,2.32H313.353z"/>
</g>
<g>
	<path fill="#F2F2F2" d="M104.822,397.46h-1.32c-0.12,0-0.2-0.08-0.2-0.2v-1.16c0-0.12,0.08-0.2,0.2-0.2h1.541l0.32-2.32h-1.34
		c-0.12,0-0.2-0.08-0.2-0.2v-1.16c0-0.12,0.08-0.2,0.2-0.2h1.541l0.52-3.761c0.02-0.12,0.08-0.2,0.22-0.2h1.26
		c0.14,0,0.2,0.08,0.18,0.2l-0.52,3.761h2.321l0.52-3.761c0.02-0.12,0.08-0.2,0.22-0.2h1.26c0.14,0,0.2,0.08,0.18,0.2l-0.52,3.761
		h1.38c0.12,0,0.2,0.08,0.2,0.2v1.16c0,0.12-0.08,0.2-0.2,0.2h-1.581l-0.32,2.32h1.38c0.12,0,0.2,0.08,0.2,0.2v1.16
		c0,0.12-0.08,0.2-0.2,0.2h-1.601l-0.54,4.001c-0.02,0.119-0.08,0.199-0.22,0.199h-1.26c-0.14,0-0.2-0.08-0.18-0.199l0.54-4.001
		h-2.321l-0.54,4.001c-0.02,0.119-0.08,0.199-0.22,0.199h-1.26c-0.14,0-0.2-0.08-0.18-0.199L104.822,397.46z M109.023,395.899
		l0.32-2.32h-2.32l-0.32,2.32H109.023z"/>
</g>
<g>
	<path fill="#F2F2F2" d="M175.41,276.604h-1.32c-0.12,0-0.2-0.08-0.2-0.2v-1.16c0-0.12,0.08-0.2,0.2-0.2h1.541l0.319-2.32h-1.34
		c-0.12,0-0.2-0.08-0.2-0.2v-1.16c0-0.12,0.08-0.2,0.2-0.2h1.54l0.521-3.761c0.02-0.12,0.08-0.2,0.22-0.2h1.261
		c0.14,0,0.199,0.08,0.18,0.2l-0.521,3.761h2.321l0.52-3.761c0.021-0.12,0.08-0.2,0.22-0.2h1.261c0.14,0,0.2,0.08,0.18,0.2
		l-0.52,3.761h1.38c0.12,0,0.2,0.08,0.2,0.2v1.16c0,0.12-0.08,0.2-0.2,0.2h-1.58l-0.32,2.32h1.381c0.12,0,0.199,0.08,0.199,0.2v1.16
		c0,0.12-0.079,0.2-0.199,0.2h-1.601l-0.54,4c-0.021,0.12-0.08,0.2-0.221,0.2h-1.26c-0.14,0-0.2-0.08-0.18-0.2l0.54-4h-2.321
		l-0.54,4c-0.02,0.12-0.08,0.2-0.22,0.2h-1.26c-0.141,0-0.2-0.08-0.181-0.2L175.41,276.604z M179.611,275.044l0.32-2.32h-2.32
		l-0.32,2.32H179.611z"/>
</g>
<g>
	<path fill="#F2F2F2" d="M214.389,429.674c-0.12,0-0.2-0.079-0.2-0.199v-1.32c0-0.12,0.08-0.2,0.2-0.2h1.36
		c0.08,0,0.12-0.04,0.12-0.12v-12.803c0-0.08-0.04-0.12-0.12-0.12h-1.36c-0.12,0-0.2-0.08-0.2-0.2v-1.32c0-0.12,0.08-0.2,0.2-0.2
		h3.341c0.12,0,0.2,0.08,0.2,0.2v16.084c0,0.12-0.08,0.199-0.2,0.199H214.389z"/>
</g>
<g>
	<path fill="#F2F2F2" d="M311.63,474.007c-0.12,0-0.2-0.079-0.2-0.199v-1.32c0-0.12,0.08-0.2,0.2-0.2h1.36
		c0.079,0,0.119-0.04,0.119-0.12v-12.803c0-0.08-0.04-0.12-0.119-0.12h-1.36c-0.12,0-0.2-0.08-0.2-0.2v-1.32
		c0-0.12,0.08-0.2,0.2-0.2h3.341c0.119,0,0.199,0.08,0.199,0.2v16.084c0,0.12-0.08,0.199-0.199,0.199H311.63z"/>
</g>
<g>
	<path fill="#F2F2F2" d="M156.72,363.233c-0.12,0-0.2-0.08-0.2-0.2V346.95c0-0.12,0.08-0.2,0.2-0.2h3.341c0.12,0,0.2,0.08,0.2,0.2
		v1.32c0,0.12-0.08,0.199-0.2,0.199h-1.36c-0.08,0-0.12,0.04-0.12,0.12v12.803c0,0.08,0.04,0.12,0.12,0.12h1.36
		c0.12,0,0.2,0.08,0.2,0.2v1.32c0,0.12-0.08,0.2-0.2,0.2H156.72z"/>
</g>
<g>
	<path fill="#F2F2F2" d="M187.469,342.919v-2.041c0-0.12,0.08-0.2,0.2-0.2h2c0.12,0,0.2,0.08,0.2,0.2v2.041
		c0,0.119-0.08,0.199-0.2,0.199h-2C187.549,343.118,187.469,343.038,187.469,342.919z M187.469,348.08c0-0.12,0.08-0.2,0.2-0.2h2
		c0.12,0,0.2,0.08,0.2,0.2v2.04c0,0.12-0.08,0.2-0.2,0.2h-2c-0.12,0-0.2-0.08-0.2-0.2V348.08z"/>
	<path fill="#F2F2F2" d="M193.969,343.759c0-2.74-0.66-5.642-1.86-8.042c-0.06-0.12,0-0.2,0.12-0.2h0.98c0.14,0,0.24,0.061,0.34,0.2
		c1.721,2.4,2.561,5.302,2.561,8.042s-0.82,5.602-2.561,8.042c-0.1,0.14-0.2,0.199-0.34,0.199h-0.98c-0.12,0-0.18-0.079-0.12-0.199
		C193.289,349.46,193.969,346.499,193.969,343.759z"/>
</g>
<g>
	<path fill="#F2F2F2" d="M284.802,291.585v-2.04c0-0.12,0.08-0.2,0.2-0.2h2c0.12,0,0.2,0.08,0.2,0.2v2.04c0,0.12-0.08,0.2-0.2,0.2
		h-2C284.882,291.785,284.802,291.705,284.802,291.585z M284.802,296.746c0-0.12,0.08-0.2,0.2-0.2h2c0.12,0,0.2,0.08,0.2,0.2v2.04
		c0,0.12-0.08,0.2-0.2,0.2h-2c-0.12,0-0.2-0.08-0.2-0.2V296.746z"/>
	<path fill="#F2F2F2" d="M291.302,292.425c0-2.74-0.66-5.641-1.86-8.041c-0.06-0.12,0-0.2,0.12-0.2h0.98c0.14,0,0.24,0.06,0.34,0.2
		c1.721,2.4,2.561,5.301,2.561,8.041c0,2.741-0.82,5.602-2.561,8.042c-0.1,0.14-0.2,0.2-0.34,0.2h-0.98c-0.12,0-0.18-0.08-0.12-0.2
		C290.622,298.126,291.302,295.166,291.302,292.425z"/>
</g>
<g>
	<path fill="#F2F2F2" d="M271.136,335.252v-2.04c0-0.12,0.08-0.2,0.2-0.2h2c0.12,0,0.2,0.08,0.2,0.2v2.04c0,0.12-0.08,0.2-0.2,0.2
		h-2C271.216,335.452,271.136,335.372,271.136,335.252z M271.136,340.413c0-0.12,0.08-0.2,0.2-0.2h2c0.12,0,0.2,0.08,0.2,0.2v2.04
		c0,0.12-0.08,0.2-0.2,0.2h-2c-0.12,0-0.2-0.08-0.2-0.2V340.413z"/>
	<path fill="#F2F2F2" d="M277.655,334.612l0.021-1.621l-1.4,0.841c-0.101,0.06-0.221,0.02-0.28-0.08l-0.42-0.761
		c-0.061-0.1-0.021-0.22,0.08-0.279l1.4-0.78l-1.4-0.78c-0.101-0.061-0.141-0.181-0.08-0.28l0.42-0.76
		c0.06-0.101,0.18-0.141,0.28-0.08l1.4,0.84l-0.021-1.62c0-0.12,0.08-0.2,0.2-0.2h0.86c0.12,0,0.2,0.08,0.2,0.2l-0.021,1.62
		l1.4-0.84c0.1-0.061,0.22-0.021,0.28,0.08l0.42,0.76c0.06,0.1,0.021,0.22-0.08,0.28l-1.4,0.78l1.4,0.78
		c0.101,0.06,0.14,0.18,0.08,0.279l-0.42,0.761c-0.061,0.1-0.181,0.14-0.28,0.08l-1.4-0.841l0.021,1.621
		c0,0.119-0.08,0.199-0.2,0.199h-0.86C277.735,334.812,277.655,334.731,277.655,334.612z"/>
</g>
<g>
	<path fill="#F2F2F2" d="M169.636,310.653v-2.041c0-0.12,0.08-0.2,0.2-0.2h2c0.12,0,0.2,0.08,0.2,0.2v2.041
		c0,0.119-0.08,0.199-0.2,0.199h-2C169.716,310.853,169.636,310.772,169.636,310.653z M169.636,315.814c0-0.12,0.08-0.2,0.2-0.2h2
		c0.12,0,0.2,0.08,0.2,0.2v2.04c0,0.12-0.08,0.2-0.2,0.2h-2c-0.12,0-0.2-0.08-0.2-0.2V315.814z"/>
	<path fill="#F2F2F2" d="M176.155,310.013l0.021-1.62l-1.4,0.84c-0.101,0.061-0.221,0.021-0.28-0.08l-0.42-0.76
		c-0.061-0.101-0.021-0.221,0.08-0.28l1.4-0.78l-1.4-0.78c-0.101-0.06-0.141-0.18-0.08-0.28l0.42-0.76c0.06-0.1,0.18-0.14,0.28-0.08
		l1.4,0.84l-0.021-1.62c0-0.12,0.08-0.2,0.2-0.2h0.86c0.12,0,0.2,0.08,0.2,0.2l-0.021,1.62l1.4-0.84c0.1-0.06,0.22-0.02,0.28,0.08
		l0.42,0.76c0.06,0.101,0.021,0.221-0.08,0.28l-1.4,0.78l1.4,0.78c0.101,0.06,0.14,0.18,0.08,0.28l-0.42,0.76
		c-0.061,0.101-0.181,0.141-0.28,0.08l-1.4-0.84l0.021,1.62c0,0.12-0.08,0.2-0.2,0.2h-0.86
		C176.235,310.213,176.155,310.133,176.155,310.013z"/>
</g>
<g>
	<path fill="#F2F2F2" d="M240.737,351.45c4.681,0,7.922,3.261,7.922,7.842c0,2.94-1.541,4.281-3.301,4.281
		c-1.181,0-1.98-0.501-2.421-1.28h-0.02c-0.381,0.74-1.221,1.26-2.641,1.26c-1.461,0-2.461-0.66-2.881-1.96
		c-0.181-0.54-0.26-1.12-0.26-2.221s0.079-1.681,0.26-2.221c0.42-1.3,1.42-1.96,2.801-1.96c1.06,0,1.84,0.479,2.16,1.02h0.04v-0.62
		c0-0.12,0.08-0.18,0.16-0.18h1.48c0.12,0,0.16,0.06,0.16,0.18v4.941c0,1,0.54,1.4,1.16,1.4c0.78,0,1.46-0.601,1.46-2.641
		c0-3.661-2.32-6.201-6.081-6.201s-6.082,2.5-6.082,6.201s2.321,6.201,6.082,6.201c1.86,0,3.08-0.34,4.28-0.9
		c0.12-0.06,0.221-0.04,0.28,0.101l0.46,1.08c0.061,0.1,0.021,0.2-0.08,0.26c-1.44,0.761-2.9,1.101-4.94,1.101
		c-4.682,0-7.922-3.221-7.922-7.842S236.056,351.45,240.737,351.45z M240.697,361.893c0.8,0,1.32-0.36,1.561-1.101
		c0.1-0.319,0.14-0.66,0.14-1.42c0-0.761-0.04-1.101-0.14-1.4c-0.24-0.76-0.761-1.12-1.561-1.12c-0.801,0-1.32,0.36-1.581,1.12
		c-0.1,0.3-0.14,0.64-0.14,1.4c0,0.76,0.04,1.101,0.14,1.42C239.377,361.532,239.896,361.893,240.697,361.893z"/>
</g>
<g>
	<path fill="#F2F2F2" d="M301.07,368.45c4.682,0,7.922,3.261,7.922,7.842c0,2.94-1.54,4.281-3.301,4.281
		c-1.18,0-1.98-0.501-2.421-1.28h-0.02c-0.38,0.74-1.221,1.26-2.641,1.26c-1.46,0-2.461-0.66-2.881-1.96
		c-0.18-0.54-0.26-1.12-0.26-2.221s0.08-1.681,0.26-2.221c0.42-1.3,1.421-1.96,2.801-1.96c1.061,0,1.841,0.479,2.16,1.02h0.04v-0.62
		c0-0.12,0.08-0.18,0.16-0.18h1.48c0.12,0,0.16,0.06,0.16,0.18v4.941c0,1,0.54,1.4,1.16,1.4c0.78,0,1.46-0.601,1.46-2.641
		c0-3.661-2.32-6.201-6.081-6.201s-6.081,2.5-6.081,6.201s2.32,6.201,6.081,6.201c1.86,0,3.081-0.34,4.281-0.9
		c0.12-0.06,0.22-0.04,0.28,0.101l0.46,1.08c0.06,0.1,0.02,0.2-0.08,0.26c-1.44,0.761-2.9,1.101-4.941,1.101
		c-4.681,0-7.922-3.221-7.922-7.842S296.39,368.45,301.07,368.45z M301.03,378.893c0.801,0,1.32-0.36,1.561-1.101
		c0.1-0.319,0.14-0.66,0.14-1.42c0-0.761-0.04-1.101-0.14-1.4c-0.24-0.76-0.76-1.12-1.561-1.12c-0.8,0-1.32,0.36-1.58,1.12
		c-0.1,0.3-0.14,0.64-0.14,1.4c0,0.76,0.04,1.101,0.14,1.42C299.71,378.532,300.23,378.893,301.03,378.893z"/>
</g>
<g>
	<path fill="#F2F2F2" d="M303.562,336.799l1.061-1.34c0.08-0.1,0.2-0.1,0.28-0.021c0.58,0.48,1.5,0.98,2.561,1.081v-4.102
		c-2.28-0.38-3.661-1.8-3.661-3.841c0-2.22,1.521-3.82,3.661-4.04v-1.041c0-0.12,0.08-0.2,0.2-0.2h0.78
		c0.119,0,0.199,0.08,0.199,0.2v1.041c1.16,0.1,2.221,0.5,3.061,1.06c0.101,0.08,0.12,0.16,0.04,0.28l-0.92,1.36
		c-0.08,0.1-0.18,0.1-0.28,0.04c-0.58-0.36-1.22-0.62-1.9-0.721v3.901c2.421,0.4,3.681,1.8,3.681,3.86
		c0,2.261-1.399,3.841-3.681,4.161v1.061c0,0.12-0.08,0.2-0.199,0.2h-0.78c-0.12,0-0.2-0.08-0.2-0.2v-1.021
		c-1.521-0.06-2.821-0.6-3.861-1.42C303.502,337.02,303.481,336.899,303.562,336.799z M307.463,326.557
		c-0.9,0.181-1.48,0.9-1.48,1.86c0,0.841,0.34,1.48,1.48,1.801V326.557z M310.144,334.398c0-0.76-0.36-1.42-1.501-1.76v3.82
		C309.623,336.219,310.144,335.519,310.144,334.398z"/>
</g>
<g>
	<path fill="#F2F2F2" d="M214.969,285.703v-2.041c0-0.12,0.08-0.2,0.2-0.2h2c0.12,0,0.2,0.08,0.2,0.2v2.041
		c0,0.119-0.08,0.199-0.2,0.199h-2C215.049,285.902,214.969,285.822,214.969,285.703z M214.969,290.863
		c0-0.119,0.08-0.199,0.2-0.199h2c0.12,0,0.2,0.08,0.2,0.199v2.041c0,0.119-0.08,0.199-0.2,0.199h-2c-0.12,0-0.2-0.08-0.2-0.199
		V290.863z"/>
	<path fill="#F2F2F2" d="M220.269,279.701c0-0.12,0.08-0.2,0.2-0.2h4.861c2.34,0,3.9,1.04,4.541,3.021
		c0.22,0.68,0.34,1.42,0.34,3.781c0,2.36-0.12,3.101-0.34,3.781c-0.641,1.98-2.201,3.02-4.541,3.02h-4.861
		c-0.12,0-0.2-0.08-0.2-0.199V279.701z M222.749,290.983h2.021c1.5,0,2.421-0.5,2.82-1.72c0.141-0.381,0.24-1,0.24-2.961
		c0-1.98-0.1-2.58-0.24-2.961c-0.399-1.221-1.32-1.721-2.82-1.721h-2.021c-0.08,0-0.12,0.041-0.12,0.121v9.121
		C222.629,290.943,222.669,290.983,222.749,290.983z"/>
</g>
<g>
	<path fill="#F2F2F2" d="M108.121,354.151v-2.04c0-0.12,0.08-0.2,0.2-0.2h2c0.12,0,0.2,0.08,0.2,0.2v2.04c0,0.12-0.08,0.2-0.2,0.2
		h-2C108.201,354.352,108.121,354.271,108.121,354.151z M108.121,359.313c0-0.12,0.08-0.2,0.2-0.2h2c0.12,0,0.2,0.08,0.2,0.2v2.04
		c0,0.12-0.08,0.2-0.2,0.2h-2c-0.12,0-0.2-0.08-0.2-0.2V359.313z"/>
	<path fill="#F2F2F2" d="M113.421,348.15c0-0.12,0.08-0.2,0.2-0.2h4.861c2.34,0,3.901,1.04,4.541,3.021
		c0.22,0.68,0.34,1.42,0.34,3.781c0,2.36-0.12,3.101-0.34,3.78c-0.64,1.98-2.201,3.021-4.541,3.021h-4.861c-0.12,0-0.2-0.08-0.2-0.2
		V348.15z M115.901,359.433h2.021c1.5,0,2.42-0.5,2.82-1.721c0.14-0.38,0.24-1,0.24-2.96c0-1.98-0.1-2.581-0.24-2.961
		c-0.4-1.221-1.32-1.721-2.82-1.721h-2.021c-0.08,0-0.12,0.04-0.12,0.12v9.122C115.781,359.393,115.821,359.433,115.901,359.433z"/>
</g>
<g>
	<path fill="#F2F2F2" d="M275.966,450.943v-2.041c0-0.12,0.08-0.2,0.2-0.2h2c0.12,0,0.2,0.08,0.2,0.2v2.041
		c0,0.119-0.08,0.199-0.2,0.199h-2C276.046,451.143,275.966,451.063,275.966,450.943z M275.966,456.104c0-0.12,0.08-0.2,0.2-0.2h2
		c0.12,0,0.2,0.08,0.2,0.2v2.04c0,0.12-0.08,0.2-0.2,0.2h-2c-0.12,0-0.2-0.08-0.2-0.2V456.104z"/>
	<path fill="#F2F2F2" d="M281.266,444.941c0-0.12,0.08-0.2,0.199-0.2h4.861c2.341,0,3.901,1.041,4.541,3.021
		c0.22,0.68,0.34,1.42,0.34,3.78s-0.12,3.101-0.34,3.781c-0.64,1.98-2.2,3.021-4.541,3.021h-4.861c-0.119,0-0.199-0.08-0.199-0.2
		V444.941z M283.746,456.224h2.021c1.5,0,2.42-0.5,2.82-1.72c0.14-0.38,0.24-1,0.24-2.961c0-1.98-0.101-2.58-0.24-2.961
		c-0.4-1.22-1.32-1.72-2.82-1.72h-2.021c-0.08,0-0.12,0.04-0.12,0.12v9.122C283.626,456.184,283.666,456.224,283.746,456.224z"/>
</g>
<g>
	<path fill="#F2F2F2" d="M225.989,331.786h-1.32c-0.12,0-0.2-0.08-0.2-0.2v-1.16c0-0.12,0.08-0.2,0.2-0.2h1.54l0.32-2.32h-1.341
		c-0.12,0-0.199-0.08-0.199-0.2v-1.16c0-0.12,0.079-0.2,0.199-0.2h1.541l0.52-3.761c0.021-0.12,0.08-0.2,0.221-0.2h1.26
		c0.14,0,0.2,0.08,0.18,0.2l-0.52,3.761h2.32l0.521-3.761c0.02-0.12,0.08-0.2,0.22-0.2h1.26c0.141,0,0.2,0.08,0.181,0.2
		l-0.521,3.761h1.381c0.12,0,0.2,0.08,0.2,0.2v1.16c0,0.12-0.08,0.2-0.2,0.2h-1.581l-0.319,2.32h1.38c0.12,0,0.2,0.08,0.2,0.2v1.16
		c0,0.12-0.08,0.2-0.2,0.2h-1.601l-0.54,4c-0.02,0.12-0.08,0.2-0.22,0.2h-1.261c-0.14,0-0.199-0.08-0.18-0.2l0.54-4h-2.32l-0.54,4
		c-0.021,0.12-0.08,0.2-0.22,0.2h-1.261c-0.14,0-0.2-0.08-0.18-0.2L225.989,331.786z M230.189,330.226l0.32-2.32h-2.32l-0.32,2.32
		H230.189z"/>
</g>
<g>
	<path fill="#F2F2F2" d="M247.983,228.578h-1.32c-0.12,0-0.2-0.08-0.2-0.2v-1.16c0-0.12,0.08-0.2,0.2-0.2h1.541l0.319-2.32h-1.34
		c-0.12,0-0.2-0.08-0.2-0.2v-1.16c0-0.12,0.08-0.2,0.2-0.2h1.54l0.521-3.761c0.02-0.12,0.08-0.2,0.22-0.2h1.261
		c0.14,0,0.199,0.08,0.18,0.2l-0.521,3.761h2.321l0.52-3.761c0.021-0.12,0.08-0.2,0.22-0.2h1.261c0.14,0,0.2,0.08,0.18,0.2
		l-0.52,3.761h1.38c0.12,0,0.2,0.08,0.2,0.2v1.16c0,0.12-0.08,0.2-0.2,0.2h-1.58l-0.32,2.32h1.381c0.12,0,0.199,0.08,0.199,0.2v1.16
		c0,0.12-0.079,0.2-0.199,0.2h-1.601l-0.54,4c-0.021,0.12-0.08,0.2-0.221,0.2h-1.26c-0.14,0-0.2-0.08-0.18-0.2l0.54-4h-2.321
		l-0.54,4c-0.02,0.12-0.08,0.2-0.22,0.2h-1.26c-0.141,0-0.2-0.08-0.181-0.2L247.983,228.578z M252.185,227.017l0.32-2.32h-2.32
		l-0.32,2.32H252.185z"/>
</g>
<g>
	<path fill="#F2F2F2" d="M294.636,228.35v-2.041c0-0.12,0.08-0.2,0.2-0.2h2c0.12,0,0.2,0.08,0.2,0.2v2.041c0,0.12-0.08,0.2-0.2,0.2
		h-2C294.716,228.549,294.636,228.469,294.636,228.35z M294.636,233.511c0-0.12,0.08-0.2,0.2-0.2h2c0.12,0,0.2,0.08,0.2,0.2v2.04
		c0,0.12-0.08,0.2-0.2,0.2h-2c-0.12,0-0.2-0.08-0.2-0.2V233.511z"/>
	<path fill="#F2F2F2" d="M301.136,229.189c0-2.74-0.66-5.641-1.86-8.042c-0.061-0.12,0-0.2,0.12-0.2h0.979
		c0.141,0,0.24,0.06,0.34,0.2c1.721,2.4,2.561,5.301,2.561,8.042c0,2.741-0.819,5.602-2.561,8.042c-0.1,0.14-0.199,0.2-0.34,0.2
		h-0.979c-0.12,0-0.181-0.08-0.12-0.2C300.455,234.891,301.136,231.93,301.136,229.189z"/>
</g>
<g>
	<path fill="#F2F2F2" d="M301.824,261.183v-2.041c0-0.12,0.08-0.2,0.2-0.2h2c0.12,0,0.2,0.08,0.2,0.2v2.041
		c0,0.119-0.08,0.199-0.2,0.199h-2C301.904,261.382,301.824,261.302,301.824,261.183z M301.824,266.344c0-0.12,0.08-0.2,0.2-0.2h2
		c0.12,0,0.2,0.08,0.2,0.2v2.04c0,0.12-0.08,0.2-0.2,0.2h-2c-0.12,0-0.2-0.08-0.2-0.2V266.344z"/>
	<path fill="#F2F2F2" d="M308.345,260.542l0.02-1.62l-1.4,0.84c-0.1,0.061-0.22,0.021-0.28-0.08l-0.42-0.76
		c-0.06-0.101-0.02-0.221,0.08-0.28l1.4-0.78l-1.4-0.78c-0.1-0.06-0.14-0.18-0.08-0.28l0.42-0.76c0.061-0.1,0.181-0.14,0.28-0.08
		l1.4,0.84l-0.02-1.62c0-0.12,0.08-0.2,0.199-0.2h0.86c0.12,0,0.2,0.08,0.2,0.2l-0.02,1.62l1.4-0.84c0.1-0.06,0.22-0.02,0.279,0.08
		l0.421,0.76c0.06,0.101,0.02,0.221-0.08,0.28l-1.4,0.78l1.4,0.78c0.1,0.06,0.14,0.18,0.08,0.28l-0.421,0.76
		c-0.06,0.101-0.18,0.141-0.279,0.08l-1.4-0.84l0.02,1.62c0,0.12-0.08,0.2-0.2,0.2h-0.86
		C308.425,260.742,308.345,260.662,308.345,260.542z"/>
</g>
<g>
	<path fill="#F2F2F2" d="M257.57,289.215c4.682,0,7.922,3.261,7.922,7.841c0,2.941-1.54,4.281-3.301,4.281
		c-1.18,0-1.98-0.5-2.421-1.28h-0.02c-0.38,0.74-1.221,1.261-2.641,1.261c-1.46,0-2.461-0.66-2.881-1.961
		c-0.18-0.54-0.26-1.12-0.26-2.221c0-1.1,0.08-1.68,0.26-2.22c0.42-1.301,1.421-1.961,2.801-1.961c1.061,0,1.841,0.48,2.16,1.021
		h0.04v-0.62c0-0.12,0.08-0.181,0.16-0.181h1.48c0.12,0,0.16,0.061,0.16,0.181v4.94c0,1.001,0.54,1.4,1.16,1.4
		c0.78,0,1.46-0.6,1.46-2.641c0-3.66-2.32-6.201-6.081-6.201s-6.081,2.501-6.081,6.201c0,3.701,2.32,6.202,6.081,6.202
		c1.86,0,3.081-0.341,4.281-0.9c0.12-0.061,0.22-0.04,0.28,0.1l0.46,1.08c0.06,0.101,0.02,0.2-0.08,0.261
		c-1.44,0.76-2.9,1.1-4.941,1.1c-4.681,0-7.922-3.221-7.922-7.842C249.648,292.436,252.89,289.215,257.57,289.215z M257.53,299.656
		c0.801,0,1.32-0.359,1.561-1.1c0.1-0.32,0.14-0.66,0.14-1.421c0-0.76-0.04-1.1-0.14-1.4c-0.24-0.76-0.76-1.12-1.561-1.12
		c-0.8,0-1.32,0.36-1.58,1.12c-0.1,0.301-0.14,0.641-0.14,1.4c0,0.761,0.04,1.101,0.14,1.421
		C256.21,299.297,256.73,299.656,257.53,299.656z"/>
</g>
<g>
	<path fill="#F2F2F2" d="M268.056,261.431c-0.12,0-0.2-0.079-0.2-0.199v-1.32c0-0.12,0.08-0.2,0.2-0.2h1.36
		c0.079,0,0.119-0.04,0.119-0.12v-12.803c0-0.08-0.04-0.12-0.119-0.12h-1.36c-0.12,0-0.2-0.08-0.2-0.2v-1.32
		c0-0.12,0.08-0.2,0.2-0.2h3.341c0.119,0,0.199,0.08,0.199,0.2v16.084c0,0.12-0.08,0.199-0.199,0.199H268.056z"/>
</g>
<g>
	<path fill="#F2F2F2" d="M89.722,433.007c-0.12,0-0.2-0.079-0.2-0.199v-1.32c0-0.12,0.08-0.2,0.2-0.2h1.36
		c0.08,0,0.12-0.04,0.12-0.12v-12.803c0-0.08-0.04-0.12-0.12-0.12h-1.36c-0.12,0-0.2-0.08-0.2-0.2v-1.32c0-0.12,0.08-0.2,0.2-0.2
		h3.341c0.12,0,0.2,0.08,0.2,0.2v16.084c0,0.12-0.08,0.199-0.2,0.199H89.722z"/>
</g>
<g>
	<path fill="#F2F2F2" d="M17.875,462.259v-2.04c0-0.121,0.08-0.201,0.2-0.201h2c0.12,0,0.2,0.08,0.2,0.201v2.04
		c0,0.12-0.08,0.2-0.2,0.2h-2C17.955,462.459,17.875,462.379,17.875,462.259z M17.875,467.42c0-0.12,0.08-0.2,0.2-0.2h2
		c0.12,0,0.2,0.08,0.2,0.2v2.04c0,0.12-0.08,0.2-0.2,0.2h-2c-0.12,0-0.2-0.08-0.2-0.2V467.42z"/>
	<path fill="#F2F2F2" d="M24.375,463.099c0-2.74-0.66-5.642-1.86-8.042c-0.06-0.119,0-0.199,0.12-0.199h0.98
		c0.14,0,0.24,0.06,0.34,0.199c1.721,2.4,2.561,5.302,2.561,8.042c0,2.741-0.82,5.602-2.561,8.042c-0.1,0.14-0.2,0.199-0.34,0.199
		h-0.98c-0.12,0-0.18-0.079-0.12-0.199C23.695,468.8,24.375,465.84,24.375,463.099z"/>
</g>
<g>
	<path fill="#F2F2F2" d="M8.469,201.185v-2.041c0-0.12,0.08-0.2,0.2-0.2h2c0.12,0,0.2,0.08,0.2,0.2v2.041c0,0.12-0.08,0.2-0.2,0.2
		h-2C8.549,201.385,8.469,201.305,8.469,201.185z M8.529,206.346c0-0.12,0.08-0.2,0.2-0.2h1.88c0.12,0,0.2,0.08,0.2,0.2v2.18
		c0,0.2-0.02,0.28-0.12,0.4l-1.68,1.741c-0.1,0.1-0.18,0.14-0.28,0.14c-0.12,0-0.2-0.08-0.2-0.2V206.346z"/>
	<path fill="#F2F2F2" d="M14.969,202.025c0-2.74-0.66-5.641-1.86-8.042c-0.06-0.12,0-0.2,0.12-0.2h0.98c0.14,0,0.24,0.06,0.34,0.2
		c1.721,2.4,2.561,5.301,2.561,8.042c0,2.741-0.82,5.602-2.561,8.042c-0.1,0.14-0.2,0.2-0.34,0.2h-0.98c-0.12,0-0.18-0.08-0.12-0.2
		C14.289,207.726,14.969,204.766,14.969,202.025z"/>
</g>
<g>
	<path fill="#F2F2F2" d="M11.636,261.183v-2.04c0-0.12,0.08-0.2,0.2-0.2h2c0.12,0,0.2,0.08,0.2,0.2v2.04c0,0.12-0.08,0.2-0.2,0.2h-2
		C11.716,261.383,11.636,261.303,11.636,261.183z M11.636,266.344c0-0.12,0.08-0.2,0.2-0.2h2c0.12,0,0.2,0.08,0.2,0.2v2.04
		c0,0.12-0.08,0.2-0.2,0.2h-2c-0.12,0-0.2-0.08-0.2-0.2V266.344z"/>
	<path fill="#F2F2F2" d="M18.155,260.543l0.021-1.621l-1.4,0.841c-0.101,0.06-0.221,0.02-0.28-0.08l-0.42-0.761
		c-0.061-0.1-0.021-0.22,0.08-0.279l1.4-0.78l-1.4-0.78c-0.101-0.061-0.141-0.181-0.08-0.28l0.42-0.76
		c0.06-0.101,0.18-0.141,0.28-0.08l1.4,0.84l-0.021-1.62c0-0.12,0.08-0.2,0.2-0.2h0.86c0.12,0,0.2,0.08,0.2,0.2l-0.021,1.62
		l1.4-0.84c0.1-0.061,0.22-0.021,0.28,0.08l0.42,0.76c0.06,0.1,0.021,0.22-0.08,0.28l-1.4,0.78l1.4,0.78
		c0.101,0.06,0.14,0.18,0.08,0.279l-0.42,0.761c-0.061,0.1-0.181,0.14-0.28,0.08l-1.4-0.841l0.021,1.621
		c0,0.119-0.08,0.199-0.2,0.199h-0.86C18.235,260.742,18.155,260.662,18.155,260.543z"/>
</g>
<g>
	<path fill="#F2F2F2" d="M53.237,244.715c4.681,0,7.922,3.261,7.922,7.841c0,2.941-1.541,4.281-3.301,4.281
		c-1.18,0-1.98-0.5-2.421-1.28h-0.02c-0.38,0.74-1.221,1.261-2.641,1.261c-1.46,0-2.461-0.66-2.881-1.961
		c-0.18-0.54-0.26-1.12-0.26-2.221c0-1.1,0.08-1.68,0.26-2.22c0.42-1.301,1.42-1.961,2.801-1.961c1.06,0,1.84,0.48,2.16,1.021h0.04
		v-0.62c0-0.12,0.08-0.181,0.16-0.181h1.48c0.12,0,0.16,0.061,0.16,0.181v4.94c0,1.001,0.54,1.4,1.16,1.4
		c0.78,0,1.46-0.6,1.46-2.641c0-3.66-2.32-6.201-6.081-6.201s-6.082,2.501-6.082,6.201c0,3.701,2.321,6.202,6.082,6.202
		c1.86,0,3.081-0.341,4.281-0.9c0.12-0.061,0.22-0.04,0.28,0.1l0.46,1.08c0.06,0.101,0.02,0.2-0.08,0.261
		c-1.44,0.76-2.9,1.1-4.941,1.1c-4.681,0-7.922-3.221-7.922-7.842C45.315,247.936,48.556,244.715,53.237,244.715z M53.197,255.156
		c0.8,0,1.32-0.359,1.561-1.1c0.1-0.32,0.14-0.66,0.14-1.421c0-0.76-0.04-1.1-0.14-1.4c-0.24-0.76-0.76-1.12-1.561-1.12
		s-1.32,0.36-1.581,1.12c-0.1,0.301-0.14,0.641-0.14,1.4c0,0.761,0.04,1.101,0.14,1.421
		C51.877,254.797,52.397,255.156,53.197,255.156z"/>
</g>
<g>
	<path fill="#F2F2F2" d="M137.194,295.715c4.681,0,7.922,3.261,7.922,7.841c0,2.941-1.541,4.281-3.301,4.281
		c-1.18,0-1.98-0.5-2.421-1.28h-0.02c-0.38,0.74-1.221,1.261-2.641,1.261c-1.46,0-2.461-0.66-2.881-1.961
		c-0.18-0.54-0.26-1.12-0.26-2.221c0-1.1,0.08-1.68,0.26-2.22c0.42-1.301,1.42-1.961,2.801-1.961c1.06,0,1.84,0.48,2.16,1.021h0.04
		v-0.62c0-0.12,0.08-0.181,0.16-0.181h1.48c0.12,0,0.16,0.061,0.16,0.181v4.94c0,1.001,0.54,1.4,1.16,1.4
		c0.78,0,1.46-0.6,1.46-2.641c0-3.66-2.32-6.201-6.081-6.201s-6.082,2.501-6.082,6.201c0,3.701,2.321,6.202,6.082,6.202
		c1.86,0,3.081-0.341,4.281-0.9c0.12-0.061,0.22-0.04,0.28,0.1l0.46,1.08c0.06,0.101,0.02,0.2-0.08,0.261
		c-1.44,0.76-2.9,1.1-4.941,1.1c-4.681,0-7.922-3.221-7.922-7.842C129.272,298.936,132.513,295.715,137.194,295.715z
		 M137.154,306.156c0.8,0,1.32-0.359,1.561-1.1c0.1-0.32,0.14-0.66,0.14-1.421c0-0.76-0.04-1.1-0.14-1.4
		c-0.24-0.76-0.76-1.12-1.561-1.12s-1.32,0.36-1.581,1.12c-0.1,0.301-0.14,0.641-0.14,1.4c0,0.761,0.04,1.101,0.14,1.421
		C135.834,305.797,136.354,306.156,137.154,306.156z"/>
</g>
<g>
	<path fill="#F2F2F2" d="M47.12,194.786H45.8c-0.12,0-0.2-0.08-0.2-0.2v-1.16c0-0.12,0.08-0.2,0.2-0.2h1.541l0.32-2.32h-1.34
		c-0.12,0-0.2-0.08-0.2-0.2v-1.16c0-0.12,0.08-0.2,0.2-0.2h1.541l0.52-3.761c0.02-0.12,0.08-0.2,0.22-0.2h1.26
		c0.14,0,0.2,0.08,0.18,0.2l-0.52,3.761h2.321l0.52-3.761c0.02-0.12,0.08-0.2,0.22-0.2h1.26c0.14,0,0.2,0.08,0.18,0.2l-0.52,3.761
		h1.38c0.12,0,0.2,0.08,0.2,0.2v1.16c0,0.12-0.08,0.2-0.2,0.2h-1.581l-0.32,2.32h1.38c0.12,0,0.2,0.08,0.2,0.2v1.16
		c0,0.12-0.08,0.2-0.2,0.2h-1.601l-0.54,4c-0.02,0.12-0.08,0.2-0.22,0.2h-1.26c-0.14,0-0.2-0.08-0.18-0.2l0.54-4H48.78l-0.54,4
		c-0.02,0.12-0.08,0.2-0.22,0.2h-1.26c-0.14,0-0.2-0.08-0.18-0.2L47.12,194.786z M51.321,193.226l0.32-2.32h-2.32l-0.32,2.32H51.321
		z"/>
</g>
<g>
	<path fill="#F2F2F2" d="M37.009,229.264c-0.12,0-0.2-0.08-0.2-0.2v-16.083c0-0.12,0.08-0.2,0.2-0.2h3.341c0.12,0,0.2,0.08,0.2,0.2
		v1.32c0,0.12-0.08,0.2-0.2,0.2h-1.36c-0.08,0-0.12,0.04-0.12,0.12v12.803c0,0.08,0.04,0.12,0.12,0.12h1.36c0.12,0,0.2,0.08,0.2,0.2
		v1.32c0,0.12-0.08,0.2-0.2,0.2H37.009z"/>
</g>
<g>
	<path fill="#F2F2F2" d="M64.969,345.252v-2.04c0-0.12,0.08-0.2,0.2-0.2h2c0.12,0,0.2,0.08,0.2,0.2v2.04c0,0.12-0.08,0.2-0.2,0.2h-2
		C65.049,345.452,64.969,345.372,64.969,345.252z M64.969,350.413c0-0.12,0.08-0.2,0.2-0.2h2c0.12,0,0.2,0.08,0.2,0.2v2.04
		c0,0.12-0.08,0.2-0.2,0.2h-2c-0.12,0-0.2-0.08-0.2-0.2V350.413z"/>
	<path fill="#F2F2F2" d="M71.469,346.092c0-2.74-0.66-5.641-1.86-8.041c-0.06-0.12,0-0.2,0.12-0.2h0.98c0.14,0,0.24,0.06,0.34,0.2
		c1.721,2.4,2.561,5.301,2.561,8.041c0,2.741-0.82,5.602-2.561,8.042c-0.1,0.14-0.2,0.2-0.34,0.2h-0.98c-0.12,0-0.18-0.08-0.12-0.2
		C70.789,351.793,71.469,348.833,71.469,346.092z"/>
</g>
<g>
	<path fill="#F2F2F2" d="M222.723,250.516v-2.04c0-0.12,0.08-0.2,0.2-0.2h2c0.12,0,0.2,0.08,0.2,0.2v2.04c0,0.12-0.08,0.2-0.2,0.2
		h-2C222.803,250.716,222.723,250.636,222.723,250.516z M222.723,255.677c0-0.12,0.08-0.2,0.2-0.2h2c0.12,0,0.2,0.08,0.2,0.2v2.04
		c0,0.12-0.08,0.2-0.2,0.2h-2c-0.12,0-0.2-0.08-0.2-0.2V255.677z"/>
	<path fill="#F2F2F2" d="M229.223,251.355c0-2.74-0.66-5.641-1.86-8.041c-0.06-0.12,0-0.2,0.12-0.2h0.98c0.14,0,0.24,0.06,0.34,0.2
		c1.721,2.4,2.561,5.301,2.561,8.041c0,2.741-0.82,5.602-2.561,8.042c-0.1,0.14-0.2,0.2-0.34,0.2h-0.98c-0.12,0-0.18-0.08-0.12-0.2
		C228.543,257.057,229.223,254.097,229.223,251.355z"/>
</g>
<g>
	<path fill="#F2F2F2" d="M75.594,224.183v-2.041c0-0.12,0.08-0.2,0.2-0.2h2c0.12,0,0.2,0.08,0.2,0.2v2.041c0,0.12-0.08,0.2-0.2,0.2
		h-2C75.674,224.382,75.594,224.302,75.594,224.183z M75.594,229.344c0-0.12,0.08-0.2,0.2-0.2h2c0.12,0,0.2,0.08,0.2,0.2v2.04
		c0,0.12-0.08,0.2-0.2,0.2h-2c-0.12,0-0.2-0.08-0.2-0.2V229.344z"/>
	<path fill="#F2F2F2" d="M82.094,225.022c0-2.74-0.66-5.641-1.86-8.042c-0.06-0.12,0-0.2,0.12-0.2h0.98c0.14,0,0.24,0.06,0.34,0.2
		c1.721,2.4,2.561,5.301,2.561,8.042c0,2.741-0.82,5.602-2.561,8.042c-0.1,0.14-0.2,0.2-0.34,0.2h-0.98c-0.12,0-0.18-0.08-0.12-0.2
		C81.414,230.724,82.094,227.763,82.094,225.022z"/>
</g>
<g>
	<path fill="#F2F2F2" d="M55.969,308.919v-2.041c0-0.12,0.08-0.2,0.2-0.2h2c0.12,0,0.2,0.08,0.2,0.2v2.041
		c0,0.119-0.08,0.199-0.2,0.199h-2C56.049,309.118,55.969,309.038,55.969,308.919z M56.029,314.08c0-0.12,0.08-0.2,0.2-0.2h1.88
		c0.12,0,0.2,0.08,0.2,0.2v2.18c0,0.2-0.02,0.28-0.12,0.4l-1.68,1.74c-0.1,0.101-0.18,0.141-0.28,0.141c-0.12,0-0.2-0.08-0.2-0.2
		V314.08z"/>
	<path fill="#F2F2F2" d="M62.469,309.759c0-2.74-0.66-5.642-1.86-8.042c-0.06-0.12,0-0.2,0.12-0.2h0.98c0.14,0,0.24,0.061,0.34,0.2
		c1.721,2.4,2.561,5.302,2.561,8.042s-0.82,5.602-2.561,8.042c-0.1,0.14-0.2,0.199-0.34,0.199h-0.98c-0.12,0-0.18-0.079-0.12-0.199
		C61.789,315.46,62.469,312.499,62.469,309.759z"/>
</g>
<g>
	<path fill="#F2F2F2" d="M27.904,345.784c4.681,0,7.922,3.261,7.922,7.841c0,2.941-1.541,4.281-3.301,4.281
		c-1.18,0-1.98-0.5-2.421-1.28h-0.02c-0.38,0.74-1.221,1.261-2.641,1.261c-1.46,0-2.461-0.66-2.881-1.961
		c-0.18-0.54-0.26-1.12-0.26-2.221c0-1.1,0.08-1.68,0.26-2.22c0.42-1.301,1.42-1.961,2.801-1.961c1.06,0,1.84,0.48,2.16,1.021h0.04
		v-0.62c0-0.12,0.08-0.181,0.16-0.181h1.48c0.12,0,0.16,0.061,0.16,0.181v4.94c0,1.001,0.54,1.4,1.16,1.4
		c0.78,0,1.46-0.6,1.46-2.641c0-3.66-2.32-6.201-6.081-6.201s-6.082,2.501-6.082,6.201c0,3.701,2.321,6.202,6.082,6.202
		c1.86,0,3.081-0.341,4.281-0.9c0.12-0.061,0.22-0.04,0.28,0.1l0.46,1.08c0.06,0.101,0.02,0.2-0.08,0.261
		c-1.44,0.76-2.9,1.1-4.941,1.1c-4.681,0-7.922-3.221-7.922-7.842C19.982,349.005,23.223,345.784,27.904,345.784z M27.864,356.226
		c0.8,0,1.32-0.359,1.561-1.1c0.1-0.32,0.14-0.66,0.14-1.421c0-0.76-0.04-1.1-0.14-1.4c-0.24-0.76-0.76-1.12-1.561-1.12
		s-1.32,0.36-1.581,1.12c-0.1,0.301-0.14,0.641-0.14,1.4c0,0.761,0.04,1.101,0.14,1.421
		C26.543,355.866,27.063,356.226,27.864,356.226z"/>
</g>
<g>
	<path fill="#F2F2F2" d="M26.155,294.786h-1.32c-0.12,0-0.2-0.08-0.2-0.2v-1.16c0-0.12,0.08-0.2,0.2-0.2h1.541l0.32-2.32h-1.34
		c-0.12,0-0.2-0.08-0.2-0.2v-1.16c0-0.12,0.08-0.2,0.2-0.2h1.541l0.52-3.761c0.02-0.12,0.08-0.2,0.22-0.2h1.26
		c0.14,0,0.2,0.08,0.18,0.2l-0.52,3.761h2.321l0.52-3.761c0.02-0.12,0.08-0.2,0.22-0.2h1.26c0.14,0,0.2,0.08,0.18,0.2l-0.52,3.761
		h1.38c0.12,0,0.2,0.08,0.2,0.2v1.16c0,0.12-0.08,0.2-0.2,0.2h-1.581l-0.32,2.32h1.38c0.12,0,0.2,0.08,0.2,0.2v1.16
		c0,0.12-0.08,0.2-0.2,0.2h-1.601l-0.54,4.001c-0.02,0.12-0.08,0.2-0.22,0.2h-1.26c-0.14,0-0.2-0.08-0.18-0.2l0.54-4.001h-2.321
		l-0.54,4.001c-0.02,0.12-0.08,0.2-0.22,0.2h-1.26c-0.14,0-0.2-0.08-0.18-0.2L26.155,294.786z M30.356,293.226l0.32-2.32h-2.32
		l-0.32,2.32H30.356z"/>
</g>
<g>
	<path fill="#F2F2F2" d="M11.055,330.334c-0.12,0-0.2-0.08-0.2-0.2v-1.32c0-0.12,0.08-0.2,0.2-0.2h1.36c0.08,0,0.12-0.04,0.12-0.12
		V315.69c0-0.08-0.04-0.12-0.12-0.12h-1.36c-0.12,0-0.2-0.08-0.2-0.199v-1.32c0-0.121,0.08-0.201,0.2-0.201h3.341
		c0.12,0,0.2,0.08,0.2,0.201v16.083c0,0.12-0.08,0.2-0.2,0.2H11.055z"/>
</g>
<g>
	<path fill="#F2F2F2" d="M50.863,442.674c-1.5,0-2.38-0.84-2.38-2.4v-3.36c0-1.04-0.42-1.54-1.36-1.54c-0.12,0-0.2-0.08-0.2-0.2
		v-1.58c0-0.12,0.08-0.2,0.2-0.2c0.94,0,1.36-0.5,1.36-1.541v-3.261c0-1.56,0.88-2.4,2.38-2.4h1.16c0.12,0,0.2,0.08,0.2,0.2v1.32
		c0,0.12-0.08,0.2-0.2,0.2h-0.62c-0.56,0-0.86,0.26-0.86,0.84v3.161c0,1.5-0.38,2.12-1.4,2.46v0.021c1.02,0.34,1.4,0.96,1.4,2.46
		v3.261c0,0.58,0.3,0.841,0.86,0.841h0.62c0.12,0,0.2,0.08,0.2,0.2v1.32c0,0.12-0.08,0.199-0.2,0.199H50.863z"/>
</g>
<g>
	<path fill="#F2F2F2" d="M1.16,146.441l1.061-1.34c0.08-0.1,0.2-0.1,0.28-0.02c0.58,0.48,1.5,0.98,2.561,1.081v-4.101
		c-2.28-0.38-3.661-1.8-3.661-3.841c0-2.22,1.52-3.821,3.661-4.041v-1.041c0-0.12,0.08-0.2,0.2-0.2h0.78c0.12,0,0.2,0.08,0.2,0.2
		v1.041c1.16,0.1,2.221,0.5,3.061,1.06c0.1,0.08,0.12,0.16,0.04,0.28l-0.92,1.36c-0.08,0.1-0.18,0.1-0.28,0.04
		c-0.58-0.36-1.22-0.62-1.9-0.72v3.901c2.42,0.4,3.681,1.8,3.681,3.861c0,2.261-1.4,3.841-3.681,4.161v1.06c0,0.12-0.08,0.2-0.2,0.2
		h-0.78c-0.12,0-0.2-0.08-0.2-0.2v-1.02c-1.521-0.06-2.821-0.6-3.861-1.42C1.1,146.662,1.08,146.542,1.16,146.441z M5.061,136.199
		c-0.9,0.18-1.48,0.9-1.48,1.86c0,0.84,0.34,1.48,1.48,1.801V136.199z M7.742,144.041c0-0.76-0.36-1.42-1.5-1.76v3.821
		C7.222,145.861,7.742,145.161,7.742,144.041z"/>
</g>
<g>
	<path fill="#F2F2F2" d="M18.395,430.615h-1.32c-0.12,0-0.2-0.08-0.2-0.2v-1.16c0-0.12,0.08-0.2,0.2-0.2h1.541l0.32-2.32h-1.34
		c-0.12,0-0.2-0.08-0.2-0.2v-1.16c0-0.12,0.08-0.2,0.2-0.2h1.541l0.52-3.761c0.02-0.12,0.08-0.2,0.22-0.2h1.26
		c0.14,0,0.2,0.08,0.18,0.2l-0.52,3.761h2.321l0.52-3.761c0.02-0.12,0.08-0.2,0.22-0.2h1.26c0.14,0,0.2,0.08,0.18,0.2l-0.52,3.761
		h1.38c0.12,0,0.2,0.08,0.2,0.2v1.16c0,0.12-0.08,0.2-0.2,0.2h-1.581l-0.32,2.32h1.38c0.12,0,0.2,0.08,0.2,0.2v1.16
		c0,0.12-0.08,0.2-0.2,0.2h-1.601l-0.54,4c-0.02,0.12-0.08,0.2-0.22,0.2h-1.26c-0.14,0-0.2-0.08-0.18-0.2l0.54-4h-2.321l-0.54,4
		c-0.02,0.12-0.08,0.2-0.22,0.2h-1.26c-0.14,0-0.2-0.08-0.18-0.2L18.395,430.615z M22.596,429.055l0.32-2.32h-2.32l-0.32,2.32
		H22.596z"/>
</g>
<g>
	<path fill="#F2F2F2" d="M129.013,279.462c-0.12,0-0.2-0.08-0.2-0.2v-1.32c0-0.12,0.08-0.2,0.2-0.2h1.36c0.08,0,0.12-0.04,0.12-0.12
		v-12.803c0-0.08-0.04-0.12-0.12-0.12h-1.36c-0.12,0-0.2-0.079-0.2-0.199v-1.32c0-0.12,0.08-0.2,0.2-0.2h3.341
		c0.12,0,0.2,0.08,0.2,0.2v16.083c0,0.12-0.08,0.2-0.2,0.2H129.013z"/>
</g>
<g>
	<path fill="#F2F2F2" d="M14.029,177.434c-1.5,0-2.38-0.84-2.38-2.4v-3.361c0-1.04-0.42-1.54-1.36-1.54c-0.12,0-0.2-0.08-0.2-0.2
		v-1.58c0-0.12,0.08-0.2,0.2-0.2c0.94,0,1.36-0.5,1.36-1.541v-3.261c0-1.56,0.88-2.4,2.38-2.4h1.16c0.12,0,0.2,0.08,0.2,0.2v1.32
		c0,0.12-0.08,0.2-0.2,0.2h-0.62c-0.56,0-0.86,0.26-0.86,0.84v3.161c0,1.5-0.38,2.121-1.4,2.46v0.02c1.02,0.34,1.4,0.96,1.4,2.46
		v3.261c0,0.58,0.3,0.84,0.86,0.84h0.62c0.12,0,0.2,0.08,0.2,0.2v1.32c0,0.12-0.08,0.2-0.2,0.2H14.029z"/>
</g>
<g>
	<path fill="#F2F2F2" d="M285.529,414.341c-1.5,0-2.38-0.84-2.38-2.4v-3.361c0-1.04-0.42-1.54-1.36-1.54c-0.12,0-0.2-0.08-0.2-0.2
		v-1.58c0-0.12,0.08-0.2,0.2-0.2c0.94,0,1.36-0.5,1.36-1.54v-3.261c0-1.561,0.88-2.4,2.38-2.4h1.16c0.12,0,0.2,0.08,0.2,0.2v1.32
		c0,0.12-0.08,0.199-0.2,0.199h-0.62c-0.56,0-0.859,0.261-0.859,0.841v3.16c0,1.501-0.381,2.121-1.4,2.461v0.02
		c1.02,0.341,1.4,0.961,1.4,2.461v3.261c0,0.58,0.3,0.84,0.859,0.84h0.62c0.12,0,0.2,0.08,0.2,0.2v1.32c0,0.12-0.08,0.2-0.2,0.2
		H285.529z"/>
</g>
<g>
	<path fill="#F2F2F2" d="M97.829,310.598c-1.5,0-2.38-0.84-2.38-2.4v-3.361c0-1.04-0.42-1.54-1.36-1.54c-0.12,0-0.2-0.08-0.2-0.2
		v-1.58c0-0.12,0.08-0.2,0.2-0.2c0.94,0,1.36-0.5,1.36-1.54v-3.261c0-1.561,0.88-2.4,2.38-2.4h1.16c0.12,0,0.2,0.08,0.2,0.2v1.32
		c0,0.12-0.08,0.199-0.2,0.199h-0.62c-0.56,0-0.86,0.261-0.86,0.841v3.16c0,1.501-0.38,2.121-1.4,2.461v0.02
		c1.02,0.341,1.4,0.961,1.4,2.461v3.261c0,0.58,0.3,0.84,0.86,0.84h0.62c0.12,0,0.2,0.08,0.2,0.2v1.32c0,0.12-0.08,0.2-0.2,0.2
		H97.829z"/>
</g>
<g>
	<path fill="#F2F2F2" d="M272.758,212.966c-0.12,0-0.2-0.08-0.2-0.2v-1.32c0-0.12,0.08-0.2,0.2-0.2h0.62c0.56,0,0.84-0.26,0.84-0.84
		v-3.261c0-1.5,0.4-2.12,1.42-2.46v-0.02c-1.02-0.34-1.42-0.96-1.42-2.46v-3.161c0-0.58-0.28-0.84-0.84-0.84h-0.62
		c-0.12,0-0.2-0.08-0.2-0.2v-1.32c0-0.12,0.08-0.2,0.2-0.2h1.14c1.521,0,2.381,0.84,2.381,2.4v3.261c0,1.041,0.42,1.541,1.36,1.541
		c0.12,0,0.2,0.08,0.2,0.2v1.58c0,0.12-0.08,0.2-0.2,0.2c-0.94,0-1.36,0.5-1.36,1.54v3.361c0,1.561-0.86,2.4-2.381,2.4H272.758z"/>
</g>
<g>
</g>
<g>
</g>
<g>
</g>
<g>
</g>
<g>
</g>
<g>
</g>
<g>
</g>
<g>
</g>
<g>
</g>
<g>
</g>
<g>
</g>
<g>
</g>
<g>
</g>
<g>
</g>
<g>
</g>
</svg>
