<?xml version="1.0" encoding="utf-8"?>
<!-- Generator: Adobe Illustrator 17.0.0, SVG Export Plug-In . SVG Version: 6.00 Build 0)  -->
<!DOCTYPE svg PUBLIC "-//W3C//DTD SVG 1.1//EN" "http://www.w3.org/Graphics/SVG/1.1/DTD/svg11.dtd">
<svg version="1.1" id="Layer_2" xmlns="http://www.w3.org/2000/svg" xmlns:xlink="http://www.w3.org/1999/xlink" x="0px" y="0px"
	 width="242px" height="93px" viewBox="0 0 242 93" enable-background="new 0 0 242 93" xml:space="preserve">
<g>
	<path fill="#F2F2F2" d="M97.94,63.551v-2.04c0-0.12,0.08-0.2,0.2-0.2h2c0.12,0,0.2,0.08,0.2,0.2v2.04c0,0.12-0.08,0.2-0.2,0.2h-2
		C98.02,63.751,97.94,63.671,97.94,63.551z M97.94,68.712c0-0.12,0.08-0.2,0.2-0.2h2c0.12,0,0.2,0.08,0.2,0.2v2.04
		c0,0.12-0.08,0.2-0.2,0.2h-2c-0.12,0-0.2-0.08-0.2-0.2V68.712z"/>
	<path fill="#F2F2F2" d="M104.44,64.391c0-2.74-0.66-5.641-1.86-8.041c-0.06-0.12,0-0.2,0.12-0.2h0.98c0.14,0,0.24,0.06,0.34,0.2
		c1.721,2.4,2.561,5.301,2.561,8.041c0,2.741-0.82,5.602-2.561,8.042c-0.1,0.14-0.2,0.2-0.34,0.2h-0.98c-0.12,0-0.18-0.08-0.12-0.2
		C103.76,70.092,104.44,67.132,104.44,64.391z"/>
</g>
<g>
	<path fill="#F2F2F2" d="M195.274,12.218v-2.041c0-0.12,0.08-0.2,0.2-0.2h2c0.12,0,0.2,0.08,0.2,0.2v2.041
		c0,0.119-0.08,0.199-0.2,0.199h-2C195.354,12.417,195.274,12.337,195.274,12.218z M195.274,17.379c0-0.12,0.08-0.2,0.2-0.2h2
		c0.12,0,0.2,0.08,0.2,0.2v2.04c0,0.12-0.08,0.2-0.2,0.2h-2c-0.12,0-0.2-0.08-0.2-0.2V17.379z"/>
	<path fill="#F2F2F2" d="M201.774,13.058c0-2.74-0.66-5.642-1.86-8.042c-0.06-0.12,0-0.2,0.12-0.2h0.98c0.14,0,0.24,0.061,0.34,0.2
		c1.721,2.4,2.561,5.302,2.561,8.042s-0.82,5.602-2.561,8.042c-0.1,0.14-0.2,0.199-0.34,0.199h-0.98c-0.12,0-0.18-0.079-0.12-0.199
		C201.094,18.759,201.774,15.798,201.774,13.058z"/>
</g>
<g>
	<path fill="#F2F2F2" d="M88.94,27.218v-2.041c0-0.12,0.08-0.2,0.2-0.2h2c0.12,0,0.2,0.08,0.2,0.2v2.041
		c0,0.119-0.08,0.199-0.2,0.199h-2C89.02,27.417,88.94,27.337,88.94,27.218z M89,32.379c0-0.12,0.08-0.2,0.2-0.2h1.88
		c0.12,0,0.2,0.08,0.2,0.2v2.18c0,0.2-0.02,0.28-0.12,0.4l-1.68,1.74c-0.1,0.101-0.18,0.141-0.28,0.141c-0.12,0-0.2-0.08-0.2-0.2
		V32.379z"/>
	<path fill="#F2F2F2" d="M95.44,28.058c0-2.74-0.66-5.642-1.86-8.042c-0.06-0.12,0-0.2,0.12-0.2h0.98c0.14,0,0.24,0.061,0.34,0.2
		c1.721,2.4,2.561,5.302,2.561,8.042S96.76,33.66,95.02,36.1c-0.1,0.14-0.2,0.199-0.34,0.199H93.7c-0.12,0-0.18-0.079-0.12-0.199
		C94.76,33.759,95.44,30.798,95.44,28.058z"/>
</g>
<g>
	<path fill="#F2F2F2" d="M181.607,55.885v-2.041c0-0.12,0.08-0.2,0.2-0.2h2c0.12,0,0.2,0.08,0.2,0.2v2.041
		c0,0.119-0.08,0.199-0.2,0.199h-2C181.687,56.084,181.607,56.004,181.607,55.885z M181.607,61.046c0-0.12,0.08-0.2,0.2-0.2h2
		c0.12,0,0.2,0.08,0.2,0.2v2.04c0,0.12-0.08,0.2-0.2,0.2h-2c-0.12,0-0.2-0.08-0.2-0.2V61.046z"/>
	<path fill="#F2F2F2" d="M188.127,55.245l0.02-1.62l-1.4,0.84c-0.1,0.061-0.22,0.021-0.28-0.08l-0.42-0.76
		c-0.06-0.101-0.02-0.221,0.08-0.28l1.4-0.78l-1.4-0.78c-0.1-0.06-0.14-0.18-0.08-0.28l0.42-0.76c0.06-0.1,0.18-0.14,0.28-0.08
		l1.4,0.84l-0.02-1.62c0-0.12,0.08-0.2,0.2-0.2h0.86c0.12,0,0.2,0.08,0.2,0.2l-0.02,1.62l1.4-0.84c0.1-0.06,0.22-0.02,0.28,0.08
		l0.42,0.76c0.06,0.101,0.02,0.221-0.08,0.28l-1.4,0.78l1.4,0.78c0.1,0.06,0.14,0.18,0.08,0.28l-0.42,0.76
		c-0.06,0.101-0.18,0.141-0.28,0.08l-1.4-0.84l0.02,1.62c0,0.12-0.08,0.2-0.2,0.2h-0.86
		C188.207,55.445,188.127,55.365,188.127,55.245z"/>
</g>
<g>
	<path fill="#F2F2F2" d="M19.274,80.551v-2.04c0-0.12,0.08-0.2,0.2-0.2h2c0.12,0,0.2,0.08,0.2,0.2v2.04c0,0.12-0.08,0.2-0.2,0.2h-2
		C19.354,80.751,19.274,80.671,19.274,80.551z M19.274,85.712c0-0.12,0.08-0.2,0.2-0.2h2c0.12,0,0.2,0.08,0.2,0.2v2.04
		c0,0.12-0.08,0.2-0.2,0.2h-2c-0.12,0-0.2-0.08-0.2-0.2V85.712z"/>
	<path fill="#F2F2F2" d="M25.794,79.912l0.02-1.621l-1.4,0.841c-0.1,0.06-0.22,0.02-0.28-0.08l-0.42-0.761
		c-0.06-0.1-0.02-0.22,0.08-0.279l1.4-0.78l-1.4-0.78c-0.1-0.061-0.14-0.181-0.08-0.28l0.42-0.76c0.06-0.101,0.18-0.141,0.28-0.08
		l1.4,0.84l-0.02-1.62c0-0.12,0.08-0.2,0.2-0.2h0.86c0.12,0,0.2,0.08,0.2,0.2l-0.02,1.62l1.4-0.84c0.1-0.061,0.22-0.021,0.28,0.08
		l0.42,0.76c0.06,0.1,0.02,0.22-0.08,0.28l-1.4,0.78l1.4,0.78c0.1,0.06,0.14,0.18,0.08,0.279l-0.42,0.761
		c-0.06,0.1-0.18,0.14-0.28,0.08l-1.4-0.841l0.02,1.621c0,0.119-0.08,0.199-0.2,0.199h-0.86
		C25.874,80.111,25.794,80.031,25.794,79.912z"/>
</g>
<g>
	<path fill="#F2F2F2" d="M60.875,64.083c4.681,0,7.922,3.261,7.922,7.842c0,2.94-1.541,4.281-3.301,4.281
		c-1.18,0-1.98-0.501-2.421-1.281h-0.02c-0.38,0.74-1.221,1.261-2.641,1.261c-1.46,0-2.461-0.66-2.881-1.96
		c-0.18-0.541-0.26-1.121-0.26-2.221c0-1.101,0.08-1.681,0.26-2.221c0.42-1.301,1.42-1.961,2.801-1.961c1.06,0,1.84,0.48,2.16,1.021
		h0.04v-0.62c0-0.12,0.08-0.18,0.16-0.18h1.48c0.12,0,0.16,0.06,0.16,0.18v4.941c0,1,0.54,1.4,1.16,1.4
		c0.78,0,1.46-0.601,1.46-2.641c0-3.661-2.32-6.201-6.081-6.201s-6.082,2.5-6.082,6.201s2.321,6.201,6.082,6.201
		c1.86,0,3.081-0.34,4.281-0.9c0.12-0.061,0.22-0.04,0.28,0.1l0.46,1.08c0.06,0.101,0.02,0.201-0.08,0.261
		c-1.44,0.761-2.9,1.101-4.941,1.101c-4.681,0-7.922-3.221-7.922-7.842S56.194,64.083,60.875,64.083z M60.835,74.525
		c0.8,0,1.32-0.359,1.561-1.1c0.1-0.32,0.14-0.66,0.14-1.42c0-0.761-0.04-1.101-0.14-1.4c-0.24-0.76-0.76-1.121-1.561-1.121
		s-1.32,0.361-1.581,1.121c-0.1,0.3-0.14,0.64-0.14,1.4c0,0.76,0.04,1.1,0.14,1.42C59.515,74.166,60.035,74.525,60.835,74.525z"/>
</g>
<g>
	<path fill="#F2F2F2" d="M151.209,72.083c4.681,0,7.922,3.261,7.922,7.842c0,2.94-1.541,4.281-3.301,4.281
		c-1.18,0-1.98-0.501-2.421-1.281h-0.02c-0.38,0.74-1.221,1.261-2.641,1.261c-1.46,0-2.461-0.66-2.881-1.96
		c-0.18-0.541-0.26-1.121-0.26-2.221c0-1.101,0.08-1.681,0.26-2.221c0.42-1.301,1.42-1.961,2.801-1.961c1.06,0,1.84,0.48,2.16,1.021
		h0.04v-0.62c0-0.12,0.08-0.18,0.16-0.18h1.48c0.12,0,0.16,0.06,0.16,0.18v4.941c0,1,0.54,1.4,1.16,1.4
		c0.78,0,1.46-0.601,1.46-2.641c0-3.661-2.32-6.201-6.081-6.201s-6.082,2.5-6.082,6.201s2.321,6.201,6.082,6.201
		c1.86,0,3.081-0.34,4.281-0.9c0.12-0.061,0.22-0.04,0.28,0.1l0.46,1.08c0.06,0.101,0.02,0.201-0.08,0.261
		c-1.44,0.761-2.9,1.101-4.941,1.101c-4.681,0-7.922-3.221-7.922-7.842S146.528,72.083,151.209,72.083z M151.169,82.525
		c0.8,0,1.32-0.359,1.561-1.1c0.1-0.32,0.14-0.66,0.14-1.42c0-0.761-0.04-1.101-0.14-1.4c-0.24-0.76-0.76-1.121-1.561-1.121
		s-1.32,0.361-1.581,1.121c-0.1,0.3-0.14,0.64-0.14,1.4c0,0.76,0.04,1.1,0.14,1.42C149.848,82.166,150.368,82.525,151.169,82.525z"
		/>
</g>
<g>
	<path fill="#F2F2F2" d="M207.542,72.083c4.681,0,7.922,3.261,7.922,7.841c0,2.941-1.541,4.281-3.301,4.281
		c-1.18,0-1.98-0.5-2.421-1.28h-0.02c-0.38,0.74-1.221,1.261-2.641,1.261c-1.46,0-2.461-0.66-2.881-1.961
		c-0.18-0.54-0.26-1.12-0.26-2.221c0-1.1,0.08-1.68,0.26-2.22c0.42-1.301,1.42-1.961,2.801-1.961c1.06,0,1.84,0.48,2.16,1.021h0.04
		v-0.62c0-0.12,0.08-0.181,0.16-0.181h1.48c0.12,0,0.16,0.061,0.16,0.181v4.94c0,1.001,0.54,1.4,1.16,1.4
		c0.78,0,1.46-0.6,1.46-2.641c0-3.66-2.32-6.201-6.081-6.201s-6.082,2.501-6.082,6.201c0,3.701,2.321,6.202,6.082,6.202
		c1.86,0,3.081-0.341,4.281-0.9c0.12-0.061,0.22-0.04,0.28,0.1l0.46,1.08c0.06,0.101,0.02,0.2-0.08,0.261
		c-1.44,0.76-2.9,1.1-4.941,1.1c-4.681,0-7.922-3.221-7.922-7.842C199.62,75.304,202.861,72.083,207.542,72.083z M207.502,82.525
		c0.8,0,1.32-0.359,1.561-1.1c0.1-0.32,0.14-0.66,0.14-1.421c0-0.76-0.04-1.1-0.14-1.4c-0.24-0.76-0.76-1.12-1.561-1.12
		s-1.32,0.36-1.581,1.12c-0.1,0.301-0.14,0.641-0.14,1.4c0,0.761,0.04,1.101,0.14,1.421
		C206.181,82.166,206.701,82.525,207.502,82.525z"/>
</g>
<g>
	<path fill="#F2F2F2" d="M214.033,57.432l1.061-1.34c0.08-0.1,0.2-0.1,0.28-0.021c0.58,0.48,1.5,0.98,2.561,1.081v-4.102
		c-2.28-0.38-3.661-1.8-3.661-3.841c0-2.22,1.52-3.82,3.661-4.04v-1.041c0-0.12,0.08-0.2,0.2-0.2h0.78c0.12,0,0.2,0.08,0.2,0.2
		v1.041c1.16,0.1,2.221,0.5,3.061,1.06c0.1,0.08,0.12,0.16,0.04,0.28l-0.92,1.36c-0.08,0.1-0.18,0.1-0.28,0.04
		c-0.58-0.36-1.22-0.62-1.9-0.721v3.901c2.42,0.4,3.681,1.8,3.681,3.86c0,2.261-1.4,3.841-3.681,4.161v1.061
		c0,0.12-0.08,0.2-0.2,0.2h-0.78c-0.12,0-0.2-0.08-0.2-0.2v-1.021c-1.521-0.06-2.821-0.6-3.861-1.42
		C213.973,57.653,213.953,57.533,214.033,57.432z M217.934,47.19c-0.9,0.181-1.48,0.9-1.48,1.86c0,0.841,0.34,1.48,1.48,1.801V47.19
		z M220.615,55.032c0-0.76-0.36-1.42-1.5-1.76v3.82C220.095,56.852,220.615,56.152,220.615,55.032z"/>
</g>
<g>
	<path fill="#F2F2F2" d="M14.7,18.099l1.061-1.341c0.08-0.1,0.2-0.1,0.28-0.02c0.58,0.48,1.5,0.98,2.561,1.08v-4.101
		c-2.28-0.38-3.661-1.801-3.661-3.841c0-2.221,1.52-3.821,3.661-4.041v-1.04c0-0.12,0.08-0.2,0.2-0.2h0.78c0.12,0,0.2,0.08,0.2,0.2
		v1.04c1.16,0.1,2.221,0.5,3.061,1.061c0.1,0.08,0.12,0.16,0.04,0.279l-0.92,1.36c-0.08,0.101-0.18,0.101-0.28,0.04
		c-0.58-0.359-1.22-0.62-1.9-0.72v3.9c2.42,0.4,3.681,1.801,3.681,3.861c0,2.261-1.4,3.841-3.681,4.161v1.06
		c0,0.12-0.08,0.2-0.2,0.2h-0.78c-0.12,0-0.2-0.08-0.2-0.2v-1.02c-1.521-0.061-2.821-0.601-3.861-1.421
		C14.64,18.319,14.62,18.199,14.7,18.099z M18.601,7.857c-0.9,0.18-1.48,0.9-1.48,1.86c0,0.84,0.34,1.48,1.48,1.801V7.857z
		 M21.281,15.699c0-0.761-0.36-1.421-1.5-1.761v3.821C20.761,17.519,21.281,16.819,21.281,15.699z"/>
</g>
<g>
	<path fill="#F2F2F2" d="M123.94,12.218v-2.041c0-0.12,0.08-0.2,0.2-0.2h2c0.12,0,0.2,0.08,0.2,0.2v2.041
		c0,0.119-0.08,0.199-0.2,0.199h-2C124.02,12.417,123.94,12.337,123.94,12.218z M123.94,17.379c0-0.12,0.08-0.2,0.2-0.2h2
		c0.12,0,0.2,0.08,0.2,0.2v2.04c0,0.12-0.08,0.2-0.2,0.2h-2c-0.12,0-0.2-0.08-0.2-0.2V17.379z"/>
	<path fill="#F2F2F2" d="M129.24,6.216c0-0.12,0.08-0.2,0.2-0.2h4.861c2.34,0,3.901,1.041,4.541,3.021
		c0.22,0.68,0.34,1.42,0.34,3.78s-0.12,3.101-0.34,3.781c-0.64,1.98-2.201,3.021-4.541,3.021h-4.861c-0.12,0-0.2-0.08-0.2-0.2V6.216
		z M131.72,17.499h2.021c1.5,0,2.42-0.5,2.82-1.72c0.14-0.38,0.24-1,0.24-2.961c0-1.98-0.1-2.58-0.24-2.961
		c-0.4-1.22-1.32-1.72-2.82-1.72h-2.021c-0.08,0-0.12,0.04-0.12,0.12v9.122C131.6,17.458,131.64,17.499,131.72,17.499z"/>
</g>
<g>
	<path fill="#F2F2F2" d="M136.46,52.419h-1.32c-0.12,0-0.2-0.08-0.2-0.2v-1.16c0-0.12,0.08-0.2,0.2-0.2h1.541l0.32-2.32h-1.34
		c-0.12,0-0.2-0.08-0.2-0.2v-1.16c0-0.12,0.08-0.2,0.2-0.2h1.541l0.52-3.761c0.02-0.12,0.08-0.2,0.22-0.2h1.26
		c0.14,0,0.2,0.08,0.18,0.2l-0.52,3.761h2.321l0.52-3.761c0.02-0.12,0.08-0.2,0.22-0.2h1.26c0.14,0,0.2,0.08,0.18,0.2l-0.52,3.761
		h1.38c0.12,0,0.2,0.08,0.2,0.2v1.16c0,0.12-0.08,0.2-0.2,0.2h-1.581l-0.32,2.32h1.38c0.12,0,0.2,0.08,0.2,0.2v1.16
		c0,0.12-0.08,0.2-0.2,0.2h-1.601l-0.54,4c-0.02,0.12-0.08,0.2-0.22,0.2h-1.26c-0.14,0-0.2-0.08-0.18-0.2l0.54-4h-2.321l-0.54,4
		c-0.02,0.12-0.08,0.2-0.22,0.2h-1.26c-0.14,0-0.2-0.08-0.18-0.2L136.46,52.419z M140.661,50.859l0.32-2.32h-2.32l-0.32,2.32
		H140.661z"/>
</g>
<g>
	<path fill="#F2F2F2" d="M59.127,13.085h-1.32c-0.12,0-0.2-0.08-0.2-0.2v-1.16c0-0.12,0.08-0.2,0.2-0.2h1.541l0.32-2.32h-1.34
		c-0.12,0-0.2-0.08-0.2-0.2v-1.16c0-0.12,0.08-0.2,0.2-0.2h1.541l0.52-3.761c0.02-0.12,0.08-0.2,0.22-0.2h1.26
		c0.14,0,0.2,0.08,0.18,0.2l-0.52,3.761h2.321l0.52-3.761c0.02-0.12,0.08-0.2,0.22-0.2h1.26c0.14,0,0.2,0.08,0.18,0.2l-0.52,3.761
		h1.38c0.12,0,0.2,0.08,0.2,0.2v1.16c0,0.12-0.08,0.2-0.2,0.2h-1.581l-0.32,2.32h1.38c0.12,0,0.2,0.08,0.2,0.2v1.16
		c0,0.12-0.08,0.2-0.2,0.2h-1.601l-0.54,4.001c-0.02,0.12-0.08,0.2-0.22,0.2h-1.26c-0.14,0-0.2-0.08-0.18-0.2l0.54-4.001h-2.321
		l-0.54,4.001c-0.02,0.12-0.08,0.2-0.22,0.2h-1.26c-0.14,0-0.2-0.08-0.18-0.2L59.127,13.085z M63.328,11.525l0.32-2.32h-2.32
		l-0.32,2.32H63.328z"/>
</g>
<g>
	<path fill="#F2F2F2" d="M168.694,45.299c-0.12,0-0.2-0.079-0.2-0.199v-1.32c0-0.12,0.08-0.2,0.2-0.2h1.36
		c0.08,0,0.12-0.04,0.12-0.12V30.657c0-0.08-0.04-0.12-0.12-0.12h-1.36c-0.12,0-0.2-0.08-0.2-0.2v-1.32c0-0.12,0.08-0.2,0.2-0.2
		h3.341c0.12,0,0.2,0.08,0.2,0.2V45.1c0,0.12-0.08,0.199-0.2,0.199H168.694z"/>
</g>
<g>
	<path fill="#F2F2F2" d="M44.027,48.633c-0.12,0-0.2-0.08-0.2-0.2v-1.32c0-0.12,0.08-0.2,0.2-0.2h1.36c0.08,0,0.12-0.04,0.12-0.12
		V33.99c0-0.08-0.04-0.12-0.12-0.12h-1.36c-0.12,0-0.2-0.079-0.2-0.199v-1.32c0-0.12,0.08-0.2,0.2-0.2h3.341
		c0.12,0,0.2,0.08,0.2,0.2v16.083c0,0.12-0.08,0.2-0.2,0.2H44.027z"/>
</g>
<g>
	<path fill="#F2F2F2" d="M5.168,58.299c-1.5,0-2.38-0.84-2.38-2.4v-3.36c0-1.04-0.42-1.54-1.36-1.54c-0.12,0-0.2-0.08-0.2-0.2v-1.58
		c0-0.12,0.08-0.2,0.2-0.2c0.94,0,1.36-0.5,1.36-1.541v-3.261c0-1.56,0.88-2.4,2.38-2.4h1.16c0.12,0,0.2,0.08,0.2,0.2v1.32
		c0,0.12-0.08,0.2-0.2,0.2h-0.62c-0.56,0-0.86,0.26-0.86,0.84v3.161c0,1.5-0.38,2.12-1.4,2.46v0.021c1.02,0.34,1.4,0.96,1.4,2.46
		v3.261c0,0.58,0.3,0.841,0.86,0.841h0.62c0.12,0,0.2,0.08,0.2,0.2v1.32c0,0.12-0.08,0.199-0.2,0.199H5.168z"/>
</g>
<g>
	<path fill="#F2F2F2" d="M239.834,29.966c-1.5,0-2.38-0.84-2.38-2.4v-3.36c0-1.04-0.42-1.54-1.36-1.54c-0.12,0-0.2-0.08-0.2-0.2
		v-1.58c0-0.12,0.08-0.2,0.2-0.2c0.94,0,1.36-0.5,1.36-1.541v-3.261c0-1.56,0.88-2.4,2.38-2.4h1.16c0.12,0,0.2,0.08,0.2,0.2v1.32
		c0,0.12-0.08,0.2-0.2,0.2h-0.62c-0.56,0-0.86,0.26-0.86,0.84v3.161c0,1.5-0.38,2.12-1.4,2.46v0.021c1.02,0.34,1.4,0.96,1.4,2.46
		v3.261c0,0.58,0.3,0.841,0.86,0.841h0.62c0.12,0,0.2,0.08,0.2,0.2v1.32c0,0.12-0.08,0.199-0.2,0.199H239.834z"/>
</g>
<g>
</g>
<g>
</g>
<g>
</g>
<g>
</g>
<g>
</g>
<g>
</g>
<g>
</g>
<g>
</g>
<g>
</g>
<g>
</g>
<g>
</g>
<g>
</g>
<g>
</g>
<g>
</g>
<g>
</g>
</svg>
