<?xml version="1.0" encoding="utf-8"?>
<!-- Generator: Adobe Illustrator 17.0.0, SVG Export Plug-In . SVG Version: 6.00 Build 0)  -->
<!DOCTYPE svg PUBLIC "-//W3C//DTD SVG 1.1//EN" "http://www.w3.org/Graphics/SVG/1.1/DTD/svg11.dtd">
<svg version="1.1" id="Layer_1" xmlns="http://www.w3.org/2000/svg" xmlns:xlink="http://www.w3.org/1999/xlink" x="0px" y="0px"
	 width="24px" height="24px" viewBox="0 0 24 24" enable-background="new 0 0 24 24" xml:space="preserve">
<g>
	<path fill-rule="evenodd" clip-rule="evenodd" fill="#0154A0" d="M5.114,7.569c0,0.608,0.24,1.097,0.532,1.097h7.413
		c0.292,0,0.532-0.489,0.532-1.097c0-0.604-0.24-1.093-0.532-1.093H5.646C5.354,6.477,5.114,6.966,5.114,7.569z M5.114,10.856
		c0,0.604,0.24,1.097,0.532,1.097h4.873c0.815-0.829,1.816-1.462,2.932-1.83c-0.096-0.22-0.235-0.359-0.393-0.359H5.646
		C5.354,9.764,5.114,10.253,5.114,10.856z M5.114,14.143c0,0.604,0.24,1.092,0.532,1.092h2.952c0.23-0.791,0.58-1.528,1.025-2.19
		H5.646C5.354,13.046,5.114,13.54,5.114,14.143z M1.938,3.463v15.884c0,1.356,1.069,2.463,2.381,2.463h5.304
		c-0.474-0.7-0.834-1.485-1.059-2.329H5.776c-1.155,0-1.72-0.58-1.72-1.778V4.972c0-1.198,0.565-1.783,1.72-1.783h7.02
		c1.16,0,1.72,0.585,1.72,1.783V9.86c0.388-0.067,0.786-0.096,1.193-0.096c0.359,0,0.714,0.024,1.059,0.077V3.463
		C16.768,2.102,15.699,1,14.381,1H4.319C3.006,1,1.938,2.102,1.938,3.463z"/>
	<path fill-rule="evenodd" clip-rule="evenodd" fill="#0154A0" d="M9.35,17.431c0,3.627,2.846,6.569,6.359,6.569
		c3.507,0,6.354-2.942,6.354-6.569c0-3.632-2.846-6.574-6.354-6.574C12.196,10.856,9.35,13.798,9.35,17.431z M11.468,17.431
		c0-2.42,1.898-4.384,4.241-4.384c2.338,0,4.236,1.965,4.236,4.384c0,2.415-1.898,4.38-4.236,4.38
		C13.366,21.81,11.468,19.846,11.468,17.431z"/>
	<path fill="#0154A0" d="M18.589,15.753l-1.002-0.944c-0.091-0.081-0.23-0.062-0.302,0.034l-2.367,3.081l-1.284-1.045
		c-0.086-0.086-0.225-0.077-0.302,0.014l-0.752,0.867c-0.077,0.091-0.072,0.235,0.014,0.316l2.257,2.286
		c0.086,0.081,0.22,0.072,0.292-0.024l1.126-1.097l2.353-3.11C18.694,16.031,18.68,15.83,18.589,15.753z"/>
</g>
</svg>
