<?xml version="1.0" encoding="utf-8"?>
<!-- Generator: Adobe Illustrator 17.0.0, SVG Export Plug-In . SVG Version: 6.00 Build 0)  -->
<!DOCTYPE svg PUBLIC "-//W3C//DTD SVG 1.1//EN" "http://www.w3.org/Graphics/SVG/1.1/DTD/svg11.dtd">
<svg version="1.1" id="Layer_1" xmlns="http://www.w3.org/2000/svg" xmlns:xlink="http://www.w3.org/1999/xlink" x="0px" y="0px"
	 width="24px" height="24px" viewBox="0 0 24 24" enable-background="new 0 0 24 24" xml:space="preserve">
<g>
	<g>
		<path fill-rule="evenodd" clip-rule="evenodd" fill="#00539F" d="M11.894,5.384c4.436,0,8.097,3.589,8.176,8.032
			c0.085,4.488-3.484,8.104-7.973,8.104c-4.482,0-8.143-3.616-8.176-8.104C3.895,8.973,7.465,5.384,11.894,5.384z M11.868,3.002
			c5.755,0,10.512,4.646,10.63,10.414C22.61,19.243,17.97,24,12.13,24S1.533,19.243,1.5,13.416
			C1.467,7.648,6.113,3.002,11.868,3.002z"/>
	</g>
</g>
<path fill-rule="evenodd" clip-rule="evenodd" fill="#0154A0" d="M14.592,12.145H11.75V11.41c0-1.537-1.177-2.782-2.625-2.782
	S6.5,9.872,6.5,11.41v0.877l0.052,0.683L8,12.979v-1.351h0.75v1.356h0.022c-0.005,0.05-0.022,0.091-0.022,0.144v4.268
	c0,0.6,0.352,0.982,0.907,0.982h4.935c0.555,0,0.908-0.382,0.908-0.982v-4.268C15.5,12.527,15.147,12.145,14.592,12.145z
	 M12.657,16.802h-1.143c-0.001-0.001-0.002-0.001-0.004-0.002l0.292-1.761c-0.172-0.105-0.292-0.308-0.292-0.54
	c0-0.352,0.255-0.637,0.577-0.637c0.315,0,0.57,0.285,0.57,0.637c0,0.232-0.12,0.435-0.293,0.54L12.657,16.802z"/>
</svg>
