<?xml version="1.0" encoding="utf-8"?>
<!-- Generator: Adobe Illustrator 17.0.0, SVG Export Plug-In . SVG Version: 6.00 Build 0)  -->
<!DOCTYPE svg PUBLIC "-//W3C//DTD SVG 1.1//EN" "http://www.w3.org/Graphics/SVG/1.1/DTD/svg11.dtd">
<svg version="1.1" id="Layer_1" xmlns="http://www.w3.org/2000/svg" xmlns:xlink="http://www.w3.org/1999/xlink" x="0px" y="0px"
	 width="24px" height="24px" viewBox="0 0 24 24" enable-background="new 0 0 24 24" xml:space="preserve">
<g id="google_x5F_maps_1_">
	<path fill="#00539F" d="M12,2C8.327,2,5.35,4.978,5.35,8.65c0,0.975,0.445,2.298,0.445,2.298
		c1.765,4.528,6.009,12.882,6.009,12.882C11.858,23.943,11.929,24,12,24s0.142-0.057,0.195-0.17c0,0,4.244-8.354,6.01-12.882
		c0,0,0.445-1.323,0.445-2.298C18.65,4.978,15.673,2,12,2z"/>
</g>
<g>
	<g>
		<path fill="#FFFFFF" d="M11.589,7.914c0.051,0,0.079-0.028,0.079-0.079c0-0.201-0.028-0.351-0.065-0.481
			c-0.149-0.444-0.551-0.71-1.089-0.71c-0.537,0-0.939,0.266-1.084,0.71c-0.042,0.131-0.07,0.28-0.07,0.481
			c0,0.051,0.028,0.079,0.084,0.079H11.589z M7.724,10.129C7.593,9.731,7.5,9.264,7.5,8.596c0-0.682,0.079-1.149,0.21-1.551
			c0.378-1.164,1.411-1.832,2.79-1.832c1.435,0,2.43,0.682,2.804,1.818c0.136,0.425,0.215,0.897,0.215,1.991
			c0,0.08-0.051,0.135-0.149,0.135H9.444c-0.056,0-0.084,0.023-0.084,0.08c0.014,0.131,0.042,0.252,0.084,0.36
			c0.173,0.561,0.668,0.855,1.341,0.855c0.64,0,1.112-0.224,1.486-0.575c0.065-0.051,0.135-0.066,0.187,0l0.888,0.827
			c0.065,0.056,0.065,0.135,0.014,0.187c-0.617,0.659-1.57,1.084-2.766,1.084C9.121,11.974,8.103,11.292,7.724,10.129z"/>
	</g>
	<g>
		<path fill="#FFFFFF" d="M13.916,6.376c0.089-0.285,0.626-0.911,0.897-0.79c0.701,0.318,1.687,1.21,1.687,3.08
			c0,1.804-0.967,2.794-1.687,3.084c-0.299,0.117-0.813-0.622-0.897-0.935c-0.135-0.519,1.019-0.696,1.019-2.149
			C14.935,6.844,13.748,6.923,13.916,6.376z"/>
	</g>
</g>
</svg>
