<?xml version="1.0" encoding="utf-8"?>
<!-- Generator: Adobe Illustrator 17.0.0, SVG Export Plug-In . SVG Version: 6.00 Build 0)  -->
<!DOCTYPE svg PUBLIC "-//W3C//DTD SVG 1.1//EN" "http://www.w3.org/Graphics/SVG/1.1/DTD/svg11.dtd">
<svg version="1.1" id="Layer_1" xmlns="http://www.w3.org/2000/svg" xmlns:xlink="http://www.w3.org/1999/xlink" x="0px" y="0px"
	 width="24px" height="24px" viewBox="0 0 24 24" enable-background="new 0 0 24 24" xml:space="preserve">
<g>
	<path fill-rule="evenodd" clip-rule="evenodd" fill="#00539F" d="M8.988,22.016c-0.005-0.695,0.537-1.265,1.21-1.265
		c0.679,0,1.227,0.569,1.238,1.265c0.005,0.706-0.542,1.276-1.216,1.276C9.541,23.292,8.993,22.722,8.988,22.016z M3.785,6.195
		v16.062c0,1.101,0.86,1.993,1.917,1.993h9.008c0.761,0,1.413-0.46,1.714-1.128v-9.184c-0.553,0.17-1.194,0.356-1.785,0.372v0.142
		h0.099v5.964h-0.422h-0.843H5.472V19.99v-0.427V5.938h0.011V5.746h1.834c0.104-0.509,0.257-0.997,0.465-1.457H5.658
		C4.623,4.289,3.785,5.138,3.785,6.195z"/>
	<g>
		<path fill-rule="evenodd" clip-rule="evenodd" fill="#FF6702" d="M14.19,1.25c3.258,0,5.953,2.634,6.024,5.914
			c0.06,3.308-2.568,6.002-5.87,6.002c-3.313,0-6.007-2.694-6.024-6.002C8.303,3.884,10.932,1.25,14.19,1.25z M14.206,2.608
			c2.514,0,4.589,2.037,4.633,4.556c0.049,2.541-1.977,4.611-4.518,4.611c-2.541,0-4.616-2.07-4.633-4.611
			C9.672,4.645,11.698,2.608,14.206,2.608z"/>
	</g>
	<path fill="#FF6702" d="M17.164,7.981l-0.576-0.513c-0.166-0.149-0.166-0.392,0-0.54l0.576-0.513
		c0.167-0.148,0.122-0.287-0.098-0.308l-0.763-0.073c-0.221-0.021-0.34-0.211-0.264-0.422l0.405-1.128
		c0.076-0.211-0.017-0.288-0.207-0.171l-0.9,0.557c-0.189,0.117-0.434,0.053-0.544-0.142l-0.326-0.582
		c-0.11-0.196-0.291-0.197-0.402-0.003l-0.304,0.527c-0.112,0.194-0.369,0.277-0.571,0.184l-0.533-0.245
		c-0.202-0.093-0.357,0.015-0.345,0.239l0.029,0.539c0.012,0.224-0.154,0.455-0.368,0.513L11.457,6.04
		c-0.214,0.058-0.253,0.227-0.086,0.375l0.576,0.513c0.166,0.149,0.166,0.392,0,0.54l-0.576,0.513
		c-0.167,0.149-0.123,0.292,0.097,0.319l0.698,0.085c0.22,0.027,0.343,0.224,0.273,0.437l-0.359,1.087
		c-0.07,0.213,0.03,0.296,0.223,0.185l0.821-0.475c0.193-0.111,0.452-0.05,0.576,0.136l0.341,0.513
		c0.124,0.187,0.31,0.177,0.413-0.023l0.3-0.578c0.104-0.199,0.351-0.281,0.55-0.181l0.578,0.289
		c0.199,0.099,0.353-0.003,0.34-0.227l-0.029-0.538c-0.012-0.225,0.154-0.456,0.368-0.513l0.515-0.139
		C17.291,8.299,17.33,8.13,17.164,7.981z M14.6,8.599h-0.666v-0.7H14.6L14.6,8.599L14.6,8.599z M14.6,7.532h-0.666V5.799H14.6
		L14.6,7.532L14.6,7.532z"/>
</g>
</svg>
