<?xml version="1.0" encoding="utf-8"?>
<!-- Generator: Adobe Illustrator 17.0.0, SVG Export Plug-In . SVG Version: 6.00 Build 0)  -->
<!DOCTYPE svg PUBLIC "-//W3C//DTD SVG 1.1//EN" "http://www.w3.org/Graphics/SVG/1.1/DTD/svg11.dtd">
<svg version="1.1" id="Layer_1" xmlns="http://www.w3.org/2000/svg" xmlns:xlink="http://www.w3.org/1999/xlink" x="0px" y="0px"
	 width="24px" height="24px" viewBox="0 0 24 24" enable-background="new 0 0 24 24" xml:space="preserve">
<g>
	<path fill-rule="evenodd" clip-rule="evenodd" fill="#00539F" d="M8.988,22.016c-0.005-0.695,0.537-1.265,1.21-1.265
		c0.679,0,1.227,0.569,1.238,1.265c0.006,0.706-0.542,1.276-1.216,1.276C9.541,23.292,8.993,22.722,8.988,22.016z M3.785,6.195
		v16.062c0,1.101,0.86,1.993,1.917,1.993h9.008c0.761,0,1.413-0.46,1.714-1.128v-9.184c-0.553,0.17-1.194,0.356-1.785,0.372v0.142
		h0.099v5.964h-0.422h-0.843H5.472V19.99v-0.427V5.938h0.011V5.746h1.834c0.104-0.509,0.257-0.997,0.465-1.457H5.658
		C4.623,4.289,3.785,5.138,3.785,6.195z"/>
	<g>
		<path fill-rule="evenodd" clip-rule="evenodd" fill="#FF6702" d="M14.19,1.25c3.258,0,5.953,2.634,6.024,5.914
			c0.06,3.308-2.568,6.002-5.87,6.002c-3.313,0-6.007-2.694-6.024-6.002C8.303,3.884,10.932,1.25,14.19,1.25z M14.206,2.608
			c2.514,0,4.589,2.037,4.633,4.556c0.049,2.541-1.977,4.611-4.518,4.611c-2.541,0-4.616-2.07-4.633-4.611
			C9.672,4.645,11.698,2.608,14.206,2.608z"/>
	</g>
	<path fill="#FF6702" d="M16.787,6.064c-0.552-1.285-1.441-2.264-1.891-2.081c-0.764,0.31,0.455,1.801-3.295,3.325
		c-0.324,0.131-0.406,0.659-0.271,0.974c0.135,0.315,0.579,0.628,0.903,0.497c0.055-0.023,0.262-0.089,0.262-0.089
		c0.231,0.31,0.473,0.126,0.559,0.323c0.103,0.237,0.328,0.752,0.404,0.928c0.076,0.175,0.25,0.338,0.375,0.29
		c0.125-0.047,0.552-0.21,0.715-0.272c0.163-0.062,0.202-0.208,0.152-0.322c-0.054-0.124-0.274-0.16-0.337-0.304
		C14.3,9.188,14.094,8.726,14.035,8.58c-0.08-0.199,0.091-0.359,0.339-0.385c1.707-0.178,2.026,0.876,2.607,0.64
		C17.431,8.651,17.339,7.349,16.787,6.064z M16.594,8.148c-0.1,0.041-0.772-0.489-1.201-1.488c-0.429-0.999-0.375-1.912-0.275-1.953
		c0.1-0.04,0.755,0.599,1.184,1.598C16.731,7.304,16.695,8.107,16.594,8.148z"/>
</g>
</svg>
