<?xml version="1.0" encoding="utf-8"?>
<!-- Generator: Adobe Illustrator 17.0.0, SVG Export Plug-In . SVG Version: 6.00 Build 0)  -->
<!DOCTYPE svg PUBLIC "-//W3C//DTD SVG 1.1//EN" "http://www.w3.org/Graphics/SVG/1.1/DTD/svg11.dtd">
<svg version="1.1" id="Layer_1" xmlns="http://www.w3.org/2000/svg" xmlns:xlink="http://www.w3.org/1999/xlink" x="0px" y="0px"
	 width="24px" height="24px" viewBox="0 0 24 24" enable-background="new 0 0 24 24" xml:space="preserve">
<g>
	<path fill-rule="evenodd" clip-rule="evenodd" fill="#0154A0" d="M6.362,7.21c0-1.057,0.262-1.324,1.314-1.324h6.014l3.948,5.852
		v9.052c0,1.057-0.262,1.324-1.314,1.324H7.676c-1.052,0-1.314-0.267-1.314-1.324V7.21z M14.667,4H7.452
		C6.029,4,4.857,5.19,4.857,6.643v14.714C4.857,22.81,6.029,24,7.452,24h9.095c1.424,0,2.595-1.19,2.595-2.643V10.79L14.667,4z"/>
	<g>
		<circle fill-rule="evenodd" clip-rule="evenodd" fill="#EEEEEE" cx="14.095" cy="11.19" r="0.19"/>
	</g>
	<g>
		<path fill-rule="evenodd" clip-rule="evenodd" fill="#0154A0" d="M7.238,18.524c0-0.395,0.419-0.714,0.933-0.714h6.705
			c0.514,0,0.933,0.319,0.933,0.714s-0.419,0.714-0.933,0.714H8.171C7.657,19.238,7.238,18.919,7.238,18.524z"/>
	</g>
	<g>
		<path fill-rule="evenodd" clip-rule="evenodd" fill="#0154A0" d="M7.238,16.143c0-0.395,0.419-0.714,0.933-0.714h6.705
			c0.514,0,0.933,0.319,0.933,0.714c0,0.395-0.419,0.714-0.933,0.714H8.171C7.657,16.857,7.238,16.538,7.238,16.143z"/>
	</g>
	<g>
		<path fill-rule="evenodd" clip-rule="evenodd" fill="#0154A0" d="M7.238,13.762c0-0.395,0.433-0.714,0.967-0.714h3.781
			c0.533,0,0.967,0.319,0.967,0.714s-0.433,0.714-0.967,0.714H8.205C7.671,14.476,7.238,14.157,7.238,13.762z"/>
	</g>
</g>
</svg>
