<?xml version="1.0" encoding="utf-8"?>
<!-- Generator: Adobe Illustrator 17.0.0, SVG Export Plug-In . SVG Version: 6.00 Build 0)  -->
<!DOCTYPE svg PUBLIC "-//W3C//DTD SVG 1.1//EN" "http://www.w3.org/Graphics/SVG/1.1/DTD/svg11.dtd">
<svg version="1.1" id="Layer_1" xmlns="http://www.w3.org/2000/svg" xmlns:xlink="http://www.w3.org/1999/xlink" x="0px" y="0px"
	 width="24px" height="24px" viewBox="0 0 24 24" enable-background="new 0 0 24 24" xml:space="preserve">
<path fill="#00539F" d="M8.988,21.766c-0.006-0.695,0.537-1.265,1.21-1.265c0.679,0,1.227,0.569,1.238,1.265
	c0.005,0.706-0.542,1.276-1.216,1.276C9.541,23.042,8.993,22.472,8.988,21.766z M3.785,5.945v16.062c0,1.101,0.86,1.993,1.917,1.993
	h9.008c0.761,0,1.413-0.46,1.714-1.128v-9.184c-0.553,0.17-1.194,0.356-1.785,0.372v0.142h0.099v5.964h-0.422h-0.843H5.472V19.74
	v-0.427V5.688h0.011V5.496h1.834c0.104-0.509,0.257-0.997,0.466-1.457H5.658C4.623,4.039,3.785,4.888,3.785,5.945z"/>
<g>
	<path fill="#00539F" d="M14.19,1c3.258,0,5.953,2.634,6.024,5.914c0.06,3.308-2.568,6.002-5.871,6.002
		c-3.313,0-6.007-2.694-6.024-6.002C8.303,3.634,10.932,1,14.19,1z M14.206,2.358c2.514,0,4.589,2.037,4.633,4.556
		c0.049,2.541-1.977,4.611-4.518,4.611s-4.616-2.07-4.633-4.611C9.672,4.395,11.698,2.358,14.206,2.358z"/>
</g>
<g>
	<g>
		<path fill="#FFFFFF" d="M11.214,8.769c0-0.281,0.299-0.509,0.665-0.509h4.774c0.366,0,0.664,0.227,0.664,0.509
			c0,0.281-0.298,0.509-0.664,0.509h-4.774C11.513,9.277,11.214,9.05,11.214,8.769z"/>
	</g>
	<g>
		<path fill="#FFFFFF" d="M11.214,7.074c0-0.281,0.299-0.509,0.665-0.509h4.774c0.366,0,0.664,0.227,0.664,0.509
			c0,0.281-0.298,0.509-0.664,0.509h-4.774C11.513,7.582,11.214,7.355,11.214,7.074z"/>
	</g>
	<g>
		<path fill="#FFFFFF" d="M11.214,5.378c0-0.281,0.309-0.509,0.688-0.509h2.692c0.38,0,0.688,0.227,0.688,0.509
			c0,0.281-0.309,0.509-0.688,0.509h-2.692C11.523,5.887,11.214,5.66,11.214,5.378z"/>
	</g>
</g>
</svg>
