<?xml version="1.0" encoding="utf-8"?>
<!-- Generator: Adobe Illustrator 17.0.0, SVG Export Plug-In . SVG Version: 6.00 Build 0)  -->
<!DOCTYPE svg PUBLIC "-//W3C//DTD SVG 1.1//EN" "http://www.w3.org/Graphics/SVG/1.1/DTD/svg11.dtd">
<svg version="1.1" id="Layer_1" xmlns="http://www.w3.org/2000/svg" xmlns:xlink="http://www.w3.org/1999/xlink" x="0px" y="0px"
	 width="24px" height="24px" viewBox="0 0 24 24" enable-background="new 0 0 24 24" xml:space="preserve">
<g>
	<path fill-rule="evenodd" clip-rule="evenodd" fill="#0154A0" d="M9.38,20.238l4.742-5.529h3.684l2.632-2.767V8.624l-3.684,3.318
		L14.645,9.18l3.161-3.319h-3.161l-2.632,2.211v4.421l-5.265,4.978c-1.451,0-2.632,1.237-2.632,2.767
		C4.115,21.762,5.296,23,6.748,23C8.204,23,9.38,21.762,9.38,20.238z M5.696,20.238c0-0.613,0.472-1.108,1.052-1.108
		c0.579,0,1.052,0.495,1.052,1.108c0,0.608-0.472,1.102-1.052,1.102C6.168,21.341,5.696,20.846,5.696,20.238z M13.064,17.471
		l3.161,2.767c0,0,0.129,1.035,1.052,1.654c0.922,0.624,2.632,0,2.632,0s-0.197-2.07-1.052-2.762
		c-0.855-0.692-1.581-0.551-1.581-0.551l-2.632-2.767L13.064,17.471z M10.96,9.18L7.799,5.305c0,0-1.316-0.686-2.104,0
		C4.903,5.997,3.586,7.521,3.586,7.521S3.39,8.421,4.115,9.18c0.726,0.759,3.971,4.792,3.971,4.792l0.771,0.18V13.05L4.644,8.624
		l0.523-0.551l4.393,4.77l0.461-0.467L5.696,7.521L6.101,7.15l4.303,4.826l0.427-0.501L6.528,6.767l0.484-0.512l3.949,4.269V9.18z"
		/>
</g>
</svg>
