<?xml version="1.0" encoding="utf-8"?>
<!-- Generator: Adobe Illustrator 17.0.0, SVG Export Plug-In . SVG Version: 6.00 Build 0)  -->
<!DOCTYPE svg PUBLIC "-//W3C//DTD SVG 1.1//EN" "http://www.w3.org/Graphics/SVG/1.1/DTD/svg11.dtd">
<svg version="1.1" id="Layer_1" xmlns="http://www.w3.org/2000/svg" xmlns:xlink="http://www.w3.org/1999/xlink" x="0px" y="0px"
	 width="24px" height="24px" viewBox="0 0 24 24" enable-background="new 0 0 24 24" xml:space="preserve">
<path fill-rule="evenodd" clip-rule="evenodd" fill="#00539F" d="M-127.275,42.774c-1.893-1.881-4.369-2.805-6.846-2.774
	l-0.013,1.191c2.172-0.032,4.363,0.773,6.016,2.425c1.653,1.653,2.463,3.838,2.419,6.016l1.197-0.013
	C-124.469,47.144-125.394,44.668-127.275,42.774z M-129.263,49.177l1.184-0.019c0.051-1.57-0.519-3.16-1.716-4.363
	c-1.203-1.197-2.793-1.761-4.363-1.716l-0.019,1.191c1.279-0.051,2.565,0.399,3.54,1.368
	C-129.662,46.606-129.219,47.904-129.263,49.177z M-133.158,46.967c0.291,0.291,0.38,0.69,0.304,1.064l1.216-0.013
	c0.057-0.678-0.165-1.374-0.678-1.893c-0.513-0.513-1.21-0.728-1.887-0.671l-0.013,1.21
	C-133.842,46.593-133.443,46.675-133.158,46.967z M-128.054,55.009c-0.272-0.627-3.559-1.596-3.825-1.609l-0.222,0.013
	c-0.443,0.095-0.937,0.519-1.976,1.438c-1.165-0.538-2.761-1.982-3.515-2.831c-0.817-0.912-1.836-2.457-2.197-3.616
	c1.178-1.045,1.672-1.501,1.704-2.001c0.013-0.279-0.545-3.648-1.14-3.99l-0.177-0.114c-0.38-0.241-0.95-0.614-1.583-0.481
	c-0.152,0.032-0.304,0.095-0.443,0.177c-0.424,0.272-1.469,0.988-1.944,1.938c-0.291,0.589-0.424,5.959,3.597,10.5
	c3.983,4.49,8.885,4.686,9.626,4.534h0.019l0.063-0.025c0.994-0.354,1.843-1.304,2.153-1.691c0.589-0.728,0.171-1.583-0.057-2.045
	L-128.054,55.009z"/>
<path fill-rule="evenodd" clip-rule="evenodd" fill="#00539F" d="M-110.051,57.677c0-0.687,0.549-1.246,1.226-1.246
	c0.677,0,1.231,0.559,1.231,1.246c0,0.692-0.554,1.251-1.231,1.251C-109.503,58.928-110.051,58.369-110.051,57.677z
	 M-114.261,43.036c0-1,0.246-1.251,1.226-1.251h8.072c0.98,0,1.226,0.251,1.226,1.251v11.431c0,0.995-0.246,1.246-1.226,1.246
	h-8.072c-0.98,0-1.226-0.251-1.226-1.246V43.036z M-104.759,40h-8.482c-1.333,0-2.426,1.123-2.426,2.503v15
	c0,1.374,1.092,2.497,2.426,2.497h8.482c1.333,0,2.426-1.123,2.426-2.497v-15C-102.333,41.123-103.426,40-104.759,40z"/>
<path fill="#00539F" d="M-75.639,54.726c-0.522-0.824-2.276-1.335-4.018-2.061c-1.736-0.732-2.148-0.987-2.148-0.987L-81.823,50
	c0,0,0.65-0.505,0.854-2.09c0.406,0.122,0.836-0.61,0.859-0.993c0.023-0.372-0.058-1.405-0.551-1.301
	c0.099-0.772,0.174-1.475,0.139-1.841C-80.656,42.422-81.974,41-84,41s-3.344,1.422-3.478,2.775
	c-0.035,0.366,0.041,1.068,0.139,1.841c-0.493-0.104-0.575,0.929-0.551,1.301c0.023,0.383,0.453,1.115,0.859,0.993
	c0.203,1.585,0.854,2.09,0.854,2.09l-0.017,1.678c0,0-0.412,0.256-2.148,0.987c-1.742,0.726-3.496,1.237-4.018,2.061
	C-92.832,55.464-92.692,59-92.692,59h17.385C-75.308,59-75.168,55.464-75.639,54.726z"/>
<g>
	<path fill-rule="evenodd" clip-rule="evenodd" fill="#00539F" d="M-62.012,57.766c-0.005-0.695,0.537-1.265,1.21-1.265
		c0.679,0,1.227,0.569,1.238,1.265c0.006,0.706-0.542,1.276-1.216,1.276C-61.459,59.042-62.007,58.472-62.012,57.766z
		 M-67.215,41.945v16.062c0,1.101,0.86,1.993,1.917,1.993h9.008c0.761,0,1.413-0.46,1.714-1.128v-9.184
		c-0.553,0.17-1.194,0.356-1.785,0.372v0.142h0.099v5.964h-0.422h-0.843h-8.001v-0.427v-0.427V41.688h0.011v-0.192h1.834
		c0.104-0.509,0.257-0.997,0.465-1.457h-2.125C-66.377,40.039-67.215,40.888-67.215,41.945z"/>
	<g>
		<path fill="#00539F" d="M-57.051,47.185v-1.03c-0.592-0.01-1.204-0.194-1.561-0.449l0.245-0.684
			c0.367,0.245,0.898,0.439,1.469,0.439c0.724,0,1.214-0.418,1.214-1c0-0.561-0.398-0.908-1.153-1.214
			c-1.041-0.408-1.683-0.877-1.683-1.765c0-0.847,0.602-1.489,1.54-1.642v-1.03h0.632v0.99c0.612,0.02,1.03,0.184,1.326,0.357
			l-0.255,0.673c-0.214-0.122-0.632-0.347-1.285-0.347c-0.785,0-1.081,0.469-1.081,0.877c0,0.53,0.377,0.796,1.265,1.163
			c1.051,0.428,1.581,0.959,1.581,1.867c0,0.806-0.561,1.561-1.612,1.734v1.061H-57.051z"/>
	</g>
	<g>
		<path fill-rule="evenodd" clip-rule="evenodd" fill="#00539F" d="M-56.81,37c3.258,0,5.953,2.634,6.024,5.914
			c0.06,3.308-2.568,6.002-5.87,6.002c-3.313,0-6.007-2.694-6.024-6.002C-62.697,39.634-60.068,37-56.81,37z M-56.794,38.358
			c2.514,0,4.589,2.037,4.633,4.556c0.049,2.541-1.977,4.611-4.518,4.611c-2.541,0-4.616-2.07-4.633-4.611
			C-61.328,40.395-59.302,38.358-56.794,38.358z"/>
	</g>
</g>
<path fill-rule="evenodd" clip-rule="evenodd" fill="#00539F" d="M-59.512,22.099c-0.005-0.696,0.537-1.265,1.21-1.265
	c0.679,0,1.227,0.569,1.238,1.265c0.006,0.706-0.542,1.276-1.216,1.276C-58.959,23.375-59.507,22.805-59.512,22.099z M-64.715,6.278
	V22.34c0,1.101,0.86,1.993,1.917,1.993h9.008c0.761,0,1.413-0.46,1.714-1.128v-9.184c-0.553,0.17-1.194,0.356-1.785,0.372v0.142
	h0.099V20.5h-0.422h-0.843h-8.001v-0.427v-0.427V6.021h0.011V5.829h1.834c0.104-0.509,0.257-0.997,0.465-1.457h-2.125
	C-63.877,4.373-64.715,5.221-64.715,6.278z"/>
<g>
	<path fill-rule="evenodd" clip-rule="evenodd" fill="#00539F" d="M-54.31,1.333c3.258,0,5.953,2.634,6.024,5.914
		c0.06,3.308-2.568,6.002-5.87,6.002c-3.313,0-6.007-2.694-6.024-6.002C-60.197,3.967-57.568,1.333-54.31,1.333z M-54.294,2.691
		c2.514,0,4.589,2.037,4.633,4.556c0.049,2.541-1.977,4.611-4.518,4.611c-2.541,0-4.616-2.07-4.633-4.611
		C-58.828,4.728-56.802,2.691-54.294,2.691z"/>
</g>
<g>
	<path fill-rule="evenodd" clip-rule="evenodd" fill="#0154A0" d="M-36.62,56.238l4.741-5.529h3.684l2.632-2.767v-3.318
		l-3.684,3.318l-2.109-2.762l3.161-3.319h-3.161l-2.632,2.211v4.421l-5.265,4.978c-1.451,0-2.632,1.237-2.632,2.767
		c0,1.524,1.181,2.762,2.632,2.762C-37.796,59-36.62,57.763-36.62,56.238z M-40.304,56.238c0-0.613,0.472-1.108,1.052-1.108
		c0.579,0,1.052,0.495,1.052,1.108c0,0.607-0.472,1.102-1.052,1.102C-39.832,57.341-40.304,56.846-40.304,56.238z M-32.936,53.471
		l3.161,2.767c0,0,0.129,1.035,1.052,1.654c0.922,0.624,2.632,0,2.632,0s-0.197-2.07-1.052-2.762
		c-0.855-0.692-1.581-0.551-1.581-0.551l-2.632-2.767L-32.936,53.471z M-35.04,45.18l-3.161-3.875c0,0-1.316-0.686-2.104,0
		c-0.793,0.692-2.109,2.216-2.109,2.216s-0.197,0.9,0.529,1.659c0.726,0.759,3.971,4.792,3.971,4.792l0.771,0.18V49.05l-4.213-4.427
		l0.523-0.551l4.393,4.77l0.461-0.467l-4.325-4.854l0.405-0.371l4.303,4.826l0.428-0.5l-4.303-4.708l0.484-0.512l3.948,4.269V45.18z
		"/>
</g>
<g>
	<path fill-rule="evenodd" clip-rule="evenodd" fill="#B3B1B3" d="M124,39.625c-5.8,0-10.5,4.41-10.5,9.845
		c0,2.575,1.065,4.915,2.795,6.67l-0.17,3.86l3.96-1.4c1.21,0.455,2.53,0.71,3.915,0.71c5.8,0,10.5-4.405,10.5-9.84
		S129.8,39.625,124,39.625z"/>
	<g>
		<path fill="#FFFFFF" d="M122.673,51.984v-0.656c0-0.641,0.128-0.961,0.417-1.361l1.264-1.729c0.384-0.512,0.544-0.88,0.544-1.313
			c0-0.688-0.48-1.2-1.249-1.2c-0.752,0-1.216,0.464-1.36,1.28c-0.016,0.096-0.08,0.144-0.176,0.129l-1.44-0.225
			c-0.112-0.016-0.144-0.096-0.128-0.191c0.256-1.602,1.408-2.594,3.169-2.594c1.761,0,3.009,1.152,3.009,2.785
			c0,0.688-0.208,1.281-0.656,1.873l-1.265,1.729c-0.24,0.305-0.32,0.528-0.32,1.008v0.465c0,0.096-0.064,0.16-0.16,0.16h-1.489
			C122.737,52.145,122.673,52.08,122.673,51.984z M122.609,53.393c0-0.096,0.064-0.16,0.16-0.16h1.601c0.096,0,0.16,0.065,0.16,0.16
			v1.633c0,0.096-0.064,0.16-0.16,0.16h-1.601c-0.096,0-0.16-0.064-0.16-0.16V53.393z"/>
	</g>
</g>
<g>
	<g>
		<g>
			<path fill-rule="evenodd" clip-rule="evenodd" fill="#00539F" d="M-7.106,41.384c4.436,0,8.097,3.589,8.176,8.032
				c0.085,4.488-3.484,8.104-7.973,8.104c-4.482,0-8.143-3.616-8.176-8.104C-15.105,44.973-11.535,41.384-7.106,41.384z
				 M-7.132,39.002c5.755,0,10.512,4.646,10.63,10.414C3.61,55.243-1.03,60-6.87,60c-5.84,0-10.597-4.757-10.63-10.584
				C-17.533,43.648-12.887,39.002-7.132,39.002z"/>
		</g>
	</g>
	<path fill-rule="evenodd" clip-rule="evenodd" fill="#0154A0" d="M-4.408,48.145H-7.25V47.41c0-1.537-1.178-2.783-2.625-2.783
		c-1.448,0-2.625,1.245-2.625,2.783v0.877l0.052,0.683L-11,48.979v-1.351h0.75v1.356h0.022c-0.005,0.05-0.022,0.091-0.022,0.144
		v4.268c0,0.6,0.352,0.982,0.907,0.982h4.935c0.555,0,0.908-0.382,0.908-0.982v-4.268C-3.5,48.527-3.853,48.145-4.408,48.145z
		 M-6.343,52.803h-1.143c-0.001-0.001-0.002-0.002-0.004-0.002l0.292-1.761C-7.37,50.935-7.49,50.732-7.49,50.5
		c0-0.352,0.255-0.637,0.577-0.637c0.315,0,0.57,0.285,0.57,0.637c0,0.232-0.12,0.435-0.292,0.54L-6.343,52.803z"/>
</g>
<g>
	<g>
		<g>
			<path fill-rule="evenodd" clip-rule="evenodd" fill="#00539F" d="M-137.081,160.816c3.38,0,6.169,2.735,6.229,6.119
				c0.065,3.42-2.655,6.174-6.074,6.174c-3.415,0-6.204-2.755-6.229-6.174C-143.175,163.551-140.455,160.816-137.081,160.816z
				 M-137.101,159.002c4.385,0,8.009,3.54,8.099,7.934c0.085,4.44-3.45,8.064-7.899,8.064c-4.45,0-8.074-3.625-8.099-8.064
				C-145.025,162.541-141.485,159.002-137.101,159.002z"/>
		</g>
	</g>
	<path fill-rule="evenodd" clip-rule="evenodd" fill="#0154A0" d="M-135.025,165.968h-2.166v-0.56c0-1.171-0.897-2.12-2-2.12
		s-2,0.949-2,2.12v0.669l0.04,0.52l1.103,0.007v-1.029h0.571v1.033h0.017c-0.004,0.038-0.017,0.069-0.017,0.109v3.252
		c0,0.457,0.269,0.748,0.691,0.748h3.76c0.423,0,0.691-0.291,0.691-0.748v-3.252C-134.333,166.259-134.602,165.968-135.025,165.968z
		 M-136.499,169.516h-0.871c-0.001-0.001-0.002-0.001-0.003-0.002l0.223-1.342c-0.131-0.08-0.223-0.234-0.223-0.411
		c0-0.268,0.194-0.486,0.44-0.486c0.24,0,0.434,0.217,0.434,0.486c0,0.177-0.091,0.331-0.223,0.411L-136.499,169.516z"/>
</g>
<g>
	<path fill-rule="evenodd" clip-rule="evenodd" fill="#0154A0" d="M13.362,43.21c0-1.057,0.262-1.324,1.314-1.324h6.014l3.948,5.852
		v9.052c0,1.057-0.262,1.324-1.314,1.324h-8.648c-1.052,0-1.314-0.267-1.314-1.324V43.21z M21.667,40h-7.214
		c-1.424,0-2.595,1.19-2.595,2.643v14.714c0,1.452,1.172,2.643,2.595,2.643h9.095c1.424,0,2.595-1.19,2.595-2.643V46.791L21.667,40z
		"/>
	<rect x="14.714" y="54.286" fill-rule="evenodd" clip-rule="evenodd" fill="#0154A0" width="2.381" height="2.857"/>
	<rect x="18.048" y="48.571" fill-rule="evenodd" clip-rule="evenodd" fill="#0154A0" width="2.381" height="8.571"/>
	<rect x="21.381" y="52.857" fill-rule="evenodd" clip-rule="evenodd" fill="#0154A0" width="2.381" height="4.286"/>
</g>
<g>
	<path fill-rule="evenodd" clip-rule="evenodd" fill="#0154A0" d="M39.362,43.21c0-1.057,0.262-1.324,1.314-1.324h6.014l3.948,5.852
		v9.052c0,1.057-0.262,1.324-1.314,1.324h-8.648c-1.052,0-1.314-0.267-1.314-1.324V43.21z M47.667,40h-7.214
		c-1.424,0-2.595,1.19-2.595,2.643v14.714c0,1.452,1.171,2.643,2.595,2.643h9.095c1.424,0,2.595-1.19,2.595-2.643V46.791L47.667,40z
		"/>
	<g>
		<circle fill-rule="evenodd" clip-rule="evenodd" fill="#EEEEEE" cx="47.095" cy="47.19" r="0.19"/>
	</g>
	<g>
		<path fill-rule="evenodd" clip-rule="evenodd" fill="#0154A0" d="M40.238,54.524c0-0.395,0.419-0.714,0.933-0.714h6.705
			c0.514,0,0.933,0.319,0.933,0.714s-0.419,0.714-0.933,0.714h-6.705C40.657,55.238,40.238,54.919,40.238,54.524z"/>
	</g>
	<g>
		<path fill-rule="evenodd" clip-rule="evenodd" fill="#0154A0" d="M40.238,52.143c0-0.395,0.419-0.714,0.933-0.714h6.705
			c0.514,0,0.933,0.319,0.933,0.714c0,0.395-0.419,0.714-0.933,0.714h-6.705C40.657,52.857,40.238,52.538,40.238,52.143z"/>
	</g>
	<g>
		<path fill-rule="evenodd" clip-rule="evenodd" fill="#0154A0" d="M40.238,49.762c0-0.395,0.433-0.714,0.967-0.714h3.781
			c0.533,0,0.967,0.319,0.967,0.714c0,0.395-0.433,0.714-0.967,0.714h-3.781C40.671,50.476,40.238,50.157,40.238,49.762z"/>
	</g>
</g>
<g>
	<g>
		<path fill-rule="evenodd" clip-rule="evenodd" fill="#0154A0" d="M-57.286,9.102c0-0.281,0.299-0.509,0.665-0.509h4.774
			c0.366,0,0.665,0.227,0.665,0.509c0,0.281-0.298,0.509-0.665,0.509h-4.774C-56.987,9.611-57.286,9.384-57.286,9.102z"/>
	</g>
	<g>
		<path fill-rule="evenodd" clip-rule="evenodd" fill="#0154A0" d="M-57.286,7.407c0-0.281,0.299-0.509,0.665-0.509h4.774
			c0.366,0,0.665,0.227,0.665,0.509c0,0.281-0.298,0.509-0.665,0.509h-4.774C-56.987,7.915-57.286,7.688-57.286,7.407z"/>
	</g>
	<g>
		<path fill-rule="evenodd" clip-rule="evenodd" fill="#0154A0" d="M-57.286,5.712c0-0.281,0.309-0.509,0.688-0.509h2.692
			c0.38,0,0.688,0.227,0.688,0.509c0,0.281-0.309,0.509-0.688,0.509h-2.692C-56.977,6.22-57.286,5.993-57.286,5.712z"/>
	</g>
</g>
<g>
	<g>
		<path fill-rule="evenodd" clip-rule="evenodd" fill="#0154A0" d="M70.595,50.726c0.051,0,0.078-0.028,0.078-0.078
			c0-0.198-0.028-0.345-0.064-0.474c-0.147-0.437-0.543-0.699-1.072-0.699s-0.925,0.262-1.067,0.699
			c-0.041,0.129-0.069,0.276-0.069,0.474c0,0.051,0.028,0.078,0.083,0.078H70.595z M66.791,52.907
			c-0.129-0.391-0.221-0.851-0.221-1.509c0-0.672,0.078-1.132,0.207-1.527c0.373-1.145,1.389-1.803,2.746-1.803
			c1.412,0,2.392,0.672,2.76,1.789c0.133,0.419,0.212,0.883,0.212,1.96c0,0.078-0.051,0.133-0.147,0.133h-3.864
			c-0.055,0-0.083,0.023-0.083,0.078c0.014,0.129,0.041,0.248,0.083,0.354c0.17,0.552,0.658,0.842,1.32,0.842
			c0.63,0,1.095-0.221,1.463-0.566c0.064-0.051,0.133-0.064,0.184,0l0.874,0.814c0.064,0.055,0.064,0.133,0.014,0.184
			c-0.607,0.649-1.546,1.067-2.723,1.067C68.166,54.724,67.164,54.052,66.791,52.907z"/>
	</g>
	<g>
		<path fill="#0154A0" d="M72.886,49.213c0.087-0.281,0.616-0.897,0.883-0.777c0.69,0.313,1.661,1.191,1.661,3.031
			c0,1.776-0.952,2.751-1.661,3.036c-0.294,0.115-0.8-0.612-0.883-0.92c-0.133-0.511,1.003-0.685,1.003-2.116
			C73.889,49.673,72.72,49.751,72.886,49.213z"/>
	</g>
</g>
<g>
	<path fill-rule="evenodd" clip-rule="evenodd" fill="#0154A0" d="M78.397,59.236l-13.593-0.018c-2.042,0-2.222-1.049-2.236-1.168
		l0.676-14.996h14.817c0.216,2.157,1.371,13.731,1.371,15.033C79.432,59.108,78.59,59.223,78.397,59.236z M70.595,37.764
		c2.581,0,3.238,3.349,3.39,4.526h-6.55C67.527,41.131,68.019,37.764,70.595,37.764z M78.834,43.054h0.037
		c0.212,0,0.382-0.17,0.382-0.382c0-0.212-0.17-0.382-0.382-0.382h-0.478h-3.629C74.62,41.034,73.907,37,70.595,37
		c-2.893,0-3.818,3.266-3.938,5.29h-3.781h-0.308c-0.212,0-0.386,0.17-0.386,0.382c0,0.179,0.124,0.327,0.294,0.368L61.8,58.04
		v0.032c0,0.018,0.115,1.909,3.004,1.914L78.411,60h0.018c0.612-0.028,1.771-0.465,1.771-1.914
		C80.2,56.748,79.073,45.432,78.834,43.054z"/>
	<g>
		<path fill="#0154A0" d="M68.185,44.135c-0.212,0-0.382,0.17-0.382,0.382v0.782c0,0.212,0.17,0.382,0.382,0.382
			c0.216,0,0.386-0.17,0.386-0.382v-0.782C68.571,44.305,68.401,44.135,68.185,44.135z"/>
		<path fill="#0154A0" d="M73.815,44.135c-0.216,0-0.386,0.17-0.386,0.382v0.782c0,0.212,0.17,0.382,0.386,0.382
			c0.212,0,0.382-0.17,0.382-0.382v-0.782C74.197,44.305,74.027,44.135,73.815,44.135z"/>
	</g>
</g>
<g>
	<path fill="#E00000" d="M107.898,58.832L97.692,40.92c-0.141-0.247-0.405-0.399-0.692-0.399c-0.287,0-0.551,0.153-0.692,0.399
		L86.102,58.832c-0.139,0.243-0.136,0.539,0.006,0.78C86.251,59.852,86.512,60,86.794,60h20.412c0.282,0,0.543-0.148,0.685-0.388
		C108.034,59.372,108.036,59.075,107.898,58.832z M98.26,57.708h-2.521v-2.292h2.521V57.708z M98.26,53.697h-2.521v-6.875h2.521
		V53.697z"/>
</g>
<g>
	<path fill-rule="evenodd" clip-rule="evenodd" fill="#00539F" d="M-137.012,92.016c-0.006-0.696,0.537-1.265,1.21-1.265
		c0.679,0,1.227,0.569,1.238,1.265c0.006,0.706-0.542,1.276-1.216,1.276C-136.459,93.292-137.007,92.722-137.012,92.016z
		 M-142.215,76.195v16.062c0,1.101,0.86,1.993,1.917,1.993h9.008c0.761,0,1.413-0.46,1.714-1.128v-9.184
		c-0.553,0.17-1.194,0.356-1.785,0.372v0.142h0.099v5.964h-0.422h-0.843h-8.001V89.99v-0.427V75.938h0.011v-0.192h1.835
		c0.104-0.509,0.257-0.997,0.465-1.457h-2.125C-141.377,74.289-142.215,75.138-142.215,76.195z"/>
	<g>
		<path fill-rule="evenodd" clip-rule="evenodd" fill="#FF6702" d="M-131.81,71.25c3.258,0,5.953,2.634,6.024,5.914
			c0.06,3.308-2.568,6.002-5.87,6.002c-3.313,0-6.007-2.694-6.024-6.002C-137.697,73.884-135.068,71.25-131.81,71.25z
			 M-131.794,72.608c2.514,0,4.589,2.037,4.633,4.556c0.049,2.541-1.977,4.611-4.518,4.611c-2.541,0-4.616-2.07-4.633-4.611
			C-136.328,74.645-134.302,72.608-131.794,72.608z"/>
	</g>
	<g>
		<g>
			<path fill="#FF6702" d="M-128.855,75.064c-0.075-0.065-0.485-0.375-0.561-0.441c-0.077-0.066-0.196-0.084-0.28-0.084h-2.446
				c-0.084,0-0.204,0.019-0.28,0.084c-0.056,0.048-0.286,0.224-0.438,0.343h2.049c0.105,0,0.253,0.022,0.348,0.105
				c0.094,0.082,0.602,0.466,0.695,0.547c0.094,0.08,0.172,0.201,0.146,0.375c-0.016,0.107-0.247,1.657-0.42,2.817h0.612
				c0.084,0,0.175-0.065,0.201-0.145c0,0,0.472-3.158,0.492-3.297C-128.716,75.227-128.779,75.129-128.855,75.064z"/>
		</g>
		<g>
			<path fill="#FF6702" d="M-130.057,75.842c-0.083-0.071-0.533-0.413-0.617-0.485c-0.084-0.073-0.216-0.093-0.309-0.093h-2.691
				c-0.092,0-0.224,0.021-0.308,0.093c-0.084,0.072-0.534,0.413-0.618,0.485c-0.083,0.071-0.152,0.179-0.13,0.333
				c0.022,0.154,0.541,3.627,0.541,3.627c0.029,0.087,0.129,0.16,0.221,0.16h3.276c0.092,0,0.192-0.072,0.221-0.16
				c0,0,0.519-3.474,0.541-3.627C-129.905,76.021-129.974,75.913-130.057,75.842z M-132.329,78.275c-0.908,0-1.103-1.285-1.143-1.55
				h0.514c0.078,0.386,0.253,1.047,0.629,1.047c0.377,0,0.552-0.661,0.63-1.047h0.513C-131.225,76.989-131.42,78.275-132.329,78.275
				z M-134.296,76.215l0.617-0.643h2.703l0.617,0.643H-134.296z"/>
		</g>
	</g>
</g>
<g>
	<path fill-rule="evenodd" clip-rule="evenodd" fill="#00539F" d="M-111.012,92.016c-0.006-0.696,0.537-1.265,1.21-1.265
		c0.679,0,1.227,0.569,1.238,1.265c0.006,0.706-0.542,1.276-1.216,1.276C-110.459,93.292-111.007,92.722-111.012,92.016z
		 M-116.215,76.195v16.062c0,1.101,0.86,1.993,1.917,1.993h9.008c0.761,0,1.413-0.46,1.714-1.128v-9.184
		c-0.553,0.17-1.194,0.356-1.785,0.372v0.142h0.099v5.964h-0.422h-0.843h-8.001V89.99v-0.427V75.938h0.011v-0.192h1.834
		c0.104-0.509,0.257-0.997,0.465-1.457h-2.125C-115.377,74.289-116.215,75.138-116.215,76.195z"/>
	<g>
		<path fill-rule="evenodd" clip-rule="evenodd" fill="#FF6702" d="M-105.81,71.25c3.258,0,5.953,2.634,6.024,5.914
			c0.06,3.308-2.568,6.002-5.87,6.002c-3.313,0-6.007-2.694-6.024-6.002C-111.697,73.884-109.068,71.25-105.81,71.25z
			 M-105.794,72.608c2.514,0,4.589,2.037,4.633,4.556c0.049,2.541-1.977,4.611-4.518,4.611c-2.541,0-4.616-2.07-4.633-4.611
			C-110.328,74.645-108.302,72.608-105.794,72.608z"/>
	</g>
	<path fill="#FF6702" d="M-107.241,76.194c0.065,0,0.128,0.01,0.188,0.028c0.225-0.252,0.474-0.481,0.744-0.684
		c-0.011-0.048-0.018-0.097-0.018-0.148c0-0.071,0.012-0.138,0.033-0.202c-0.302-0.217-0.631-0.399-0.981-0.54
		c-0.328,0.203-0.614,0.467-0.842,0.777c0.169,0.3,0.371,0.579,0.6,0.834C-107.434,76.217-107.341,76.194-107.241,76.194z
		 M-107.88,76.832c0-0.089,0.019-0.175,0.052-0.252c-0.205-0.225-0.391-0.468-0.554-0.726c-0.204,0.405-0.319,0.862-0.319,1.347
		c0,0.561,0.154,1.086,0.422,1.535c0.095-0.54,0.277-1.05,0.528-1.518C-107.831,77.11-107.88,76.977-107.88,76.832z M-105.688,74.75
		c0.168,0,0.322,0.066,0.436,0.172c0.333-0.143,0.684-0.253,1.048-0.324c-0.44-0.254-0.951-0.4-1.496-0.4
		c-0.372,0-0.727,0.068-1.055,0.192c0.26,0.129,0.509,0.279,0.742,0.448C-105.918,74.783-105.807,74.75-105.688,74.75z
		 M-104.734,77.757c0.04-0.083,0.096-0.156,0.166-0.214c-0.189-0.58-0.487-1.11-0.872-1.566c-0.076,0.032-0.16,0.05-0.249,0.05
		c-0.139,0-0.266-0.045-0.371-0.12c-0.232,0.176-0.446,0.373-0.64,0.588c0.06,0.098,0.096,0.213,0.096,0.336
		c0,0.067-0.01,0.131-0.029,0.192C-106.072,77.397-105.428,77.654-104.734,77.757z M-103.906,78.618
		c0.009,0.121,0.013,0.243,0.013,0.366c0,0.217-0.014,0.43-0.04,0.64c0.509-0.372,0.896-0.899,1.092-1.513
		c-0.232,0.056-0.469,0.096-0.711,0.119C-103.609,78.405-103.739,78.546-103.906,78.618z M-104.884,78.186
		c-0.74-0.123-1.427-0.405-2.025-0.81c-0.097,0.059-0.211,0.094-0.333,0.094c-0.045,0-0.089-0.005-0.131-0.014
		c-0.286,0.542-0.469,1.148-0.522,1.789c0.286,0.306,0.634,0.553,1.026,0.719C-106.382,79.217-105.702,78.598-104.884,78.186z
		 M-103.686,74.976c-0.481,0.046-0.94,0.167-1.368,0.348c0.003,0.021,0.004,0.042,0.004,0.064c0,0.101-0.024,0.196-0.066,0.28
		c0.427,0.501,0.759,1.086,0.968,1.726c0.259,0.004,0.482,0.164,0.577,0.389c0.289-0.029,0.57-0.084,0.841-0.164
		c0.019-0.137,0.029-0.277,0.029-0.42C-102.7,76.318-103.08,75.525-103.686,74.976z M-104.562,78.527
		c-0.764,0.358-1.404,0.909-1.866,1.584c0.233,0.058,0.477,0.09,0.728,0.09c0.453,0,0.882-0.101,1.266-0.28
		c0.062-0.302,0.094-0.615,0.094-0.936c0-0.116-0.005-0.23-0.014-0.344C-104.43,78.616-104.501,78.577-104.562,78.527z"/>
</g>
<g>
	<path fill-rule="evenodd" clip-rule="evenodd" fill="#00539F" d="M-83.012,92.016c-0.006-0.696,0.537-1.265,1.21-1.265
		c0.679,0,1.227,0.569,1.238,1.265c0.006,0.706-0.542,1.276-1.216,1.276C-82.459,93.292-83.007,92.722-83.012,92.016z
		 M-88.215,76.195v16.062c0,1.101,0.86,1.993,1.917,1.993h9.008c0.761,0,1.413-0.46,1.714-1.128v-9.184
		c-0.553,0.17-1.194,0.356-1.785,0.372v0.142h0.099v5.964h-0.422h-0.843h-8.001V89.99v-0.427V75.938h0.011v-0.192h1.834
		c0.104-0.509,0.257-0.997,0.465-1.457h-2.125C-87.377,74.289-88.215,75.138-88.215,76.195z"/>
	<g>
		<path fill-rule="evenodd" clip-rule="evenodd" fill="#FF6702" d="M-77.81,71.25c3.258,0,5.953,2.634,6.024,5.914
			c0.06,3.308-2.568,6.002-5.87,6.002c-3.313,0-6.007-2.694-6.024-6.002C-83.697,73.884-81.068,71.25-77.81,71.25z M-77.794,72.608
			c2.514,0,4.589,2.037,4.633,4.556c0.049,2.541-1.977,4.611-4.518,4.611c-2.541,0-4.616-2.07-4.633-4.611
			C-82.328,74.645-80.302,72.608-77.794,72.608z"/>
	</g>
	<path fill="#FF6702" d="M-74.837,77.981l-0.576-0.513c-0.166-0.149-0.166-0.392,0-0.54l0.576-0.513
		c0.167-0.148,0.122-0.287-0.098-0.308l-0.763-0.073c-0.221-0.021-0.34-0.211-0.264-0.422l0.405-1.128
		c0.076-0.211-0.017-0.288-0.207-0.171l-0.9,0.557c-0.189,0.117-0.434,0.053-0.544-0.142l-0.326-0.582
		c-0.11-0.196-0.291-0.197-0.402-0.002l-0.304,0.527c-0.112,0.194-0.369,0.277-0.571,0.184l-0.534-0.245
		c-0.202-0.093-0.357,0.015-0.345,0.239l0.029,0.539c0.012,0.224-0.154,0.455-0.368,0.513l-0.515,0.139
		c-0.214,0.058-0.253,0.227-0.086,0.375l0.576,0.513c0.166,0.149,0.166,0.391,0,0.54l-0.576,0.513
		c-0.167,0.149-0.123,0.292,0.097,0.319l0.698,0.085c0.22,0.027,0.343,0.224,0.273,0.437l-0.359,1.087
		c-0.07,0.213,0.03,0.296,0.223,0.185l0.821-0.475c0.193-0.111,0.452-0.05,0.576,0.136l0.341,0.513
		c0.124,0.187,0.31,0.177,0.413-0.023l0.3-0.578c0.104-0.199,0.351-0.281,0.55-0.181l0.578,0.289
		c0.199,0.099,0.353-0.003,0.34-0.227l-0.029-0.538c-0.012-0.225,0.154-0.456,0.368-0.513l0.515-0.139
		C-74.709,78.299-74.67,78.13-74.837,77.981z M-77.4,78.599h-0.666v-0.7h0.666L-77.4,78.599L-77.4,78.599z M-77.4,77.532h-0.666
		v-1.733h0.666L-77.4,77.532L-77.4,77.532z"/>
</g>
<g>
	<path fill-rule="evenodd" clip-rule="evenodd" fill="#00539F" d="M-57.012,92.016c-0.005-0.696,0.537-1.265,1.21-1.265
		c0.679,0,1.227,0.569,1.238,1.265c0.006,0.706-0.542,1.276-1.216,1.276C-56.459,93.292-57.007,92.722-57.012,92.016z
		 M-62.215,76.195v16.062c0,1.101,0.86,1.993,1.917,1.993h9.008c0.761,0,1.413-0.46,1.714-1.128v-9.184
		c-0.553,0.17-1.194,0.356-1.785,0.372v0.142h0.099v5.964h-0.422h-0.843h-8.001V89.99v-0.427V75.938h0.011v-0.192h1.834
		c0.104-0.509,0.257-0.997,0.465-1.457h-2.125C-61.377,74.289-62.215,75.138-62.215,76.195z"/>
	<g>
		<path fill-rule="evenodd" clip-rule="evenodd" fill="#FF6702" d="M-51.81,71.25c3.258,0,5.953,2.634,6.024,5.914
			c0.06,3.308-2.568,6.002-5.87,6.002c-3.313,0-6.007-2.694-6.024-6.002C-57.697,73.884-55.068,71.25-51.81,71.25z M-51.794,72.608
			c2.514,0,4.589,2.037,4.633,4.556c0.049,2.541-1.977,4.611-4.518,4.611c-2.541,0-4.616-2.07-4.633-4.611
			C-56.328,74.645-54.302,72.608-51.794,72.608z"/>
	</g>
	<g>
		<path fill="#FF6702" d="M-52.993,77.869v-1.86h-1.14c-0.33,0-0.6,0.27-0.6,0.6v1.8c0,0.33,0.27,0.6,0.6,0.6h0.3v0.9l0.9-0.9h1.501
			c0.33,0,0.6-0.27,0.6-0.6v-0.546c-0.02,0.004-0.039,0.006-0.06,0.006H-52.993z M-49.333,74.508h-2.7c-0.33,0-0.6,0.27-0.6,0.6v2.4
			h2.101l0.9,0.9v-0.9h0.3c0.33,0,0.6-0.27,0.6-0.6v-1.8C-48.733,74.778-49.002,74.508-49.333,74.508z"/>
	</g>
</g>
<g>
	<path fill-rule="evenodd" clip-rule="evenodd" fill="#00539F" d="M-30.012,92.016c-0.005-0.696,0.537-1.265,1.21-1.265
		c0.679,0,1.227,0.569,1.238,1.265c0.006,0.706-0.542,1.276-1.216,1.276C-29.459,93.292-30.007,92.722-30.012,92.016z
		 M-35.215,76.195v16.062c0,1.101,0.86,1.993,1.917,1.993h9.008c0.761,0,1.413-0.46,1.714-1.128v-9.184
		c-0.553,0.17-1.194,0.356-1.785,0.372v0.142h0.099v5.964h-0.422h-0.843h-8.001V89.99v-0.427V75.938h0.011v-0.192h1.835
		c0.104-0.509,0.257-0.997,0.465-1.457h-2.125C-34.377,74.289-35.215,75.138-35.215,76.195z"/>
	<g>
		<path fill-rule="evenodd" clip-rule="evenodd" fill="#FF6702" d="M-24.81,71.25c3.258,0,5.953,2.634,6.024,5.914
			c0.06,3.308-2.568,6.002-5.871,6.002c-3.313,0-6.007-2.694-6.024-6.002C-30.697,73.884-28.068,71.25-24.81,71.25z M-24.794,72.608
			c2.514,0,4.589,2.037,4.633,4.556c0.049,2.541-1.977,4.611-4.518,4.611c-2.541,0-4.616-2.07-4.633-4.611
			C-29.328,74.645-27.302,72.608-24.794,72.608z"/>
	</g>
	<path fill="#FF6702" d="M-22.213,76.064c-0.552-1.285-1.441-2.264-1.891-2.081c-0.764,0.31,0.455,1.801-3.295,3.325
		c-0.324,0.132-0.406,0.659-0.271,0.974c0.135,0.315,0.579,0.629,0.903,0.497c0.056-0.023,0.262-0.089,0.262-0.089
		c0.231,0.31,0.473,0.126,0.559,0.323c0.103,0.237,0.328,0.752,0.404,0.928c0.076,0.175,0.25,0.338,0.375,0.29
		c0.125-0.048,0.552-0.21,0.715-0.272c0.163-0.062,0.202-0.207,0.152-0.322c-0.054-0.124-0.274-0.16-0.337-0.304
		c-0.063-0.144-0.268-0.607-0.327-0.752c-0.08-0.199,0.09-0.359,0.339-0.385c1.707-0.178,2.026,0.876,2.607,0.64
		C-21.569,78.651-21.661,77.349-22.213,76.064z M-22.406,78.148c-0.1,0.041-0.772-0.489-1.201-1.488
		c-0.429-0.999-0.375-1.912-0.275-1.953c0.1-0.04,0.755,0.599,1.184,1.598C-22.269,77.304-22.305,78.107-22.406,78.148z"/>
</g>
<g>
	<path fill-rule="evenodd" clip-rule="evenodd" fill="#FF6600" d="M-140.886,114.236c0,0.608,0.24,1.097,0.532,1.097h7.413
		c0.292,0,0.532-0.489,0.532-1.097c0-0.604-0.24-1.092-0.532-1.092h-7.413C-140.646,113.144-140.886,113.632-140.886,114.236z
		 M-140.886,117.523c0,0.604,0.24,1.097,0.532,1.097h4.873c0.814-0.829,1.816-1.462,2.933-1.83c-0.096-0.22-0.235-0.359-0.393-0.359
		h-7.413C-140.646,116.431-140.886,116.919-140.886,117.523z M-140.886,120.81c0,0.604,0.24,1.092,0.532,1.092h2.952
		c0.23-0.791,0.58-1.529,1.025-2.19h-3.977C-140.646,119.713-140.886,120.206-140.886,120.81z M-144.063,110.13v15.884
		c0,1.356,1.069,2.463,2.381,2.463h5.304c-0.474-0.7-0.834-1.485-1.059-2.329h-2.789c-1.155,0-1.72-0.58-1.72-1.778v-12.731
		c0-1.198,0.565-1.783,1.72-1.783h7.02c1.16,0,1.72,0.585,1.72,1.783v4.887c0.388-0.067,0.786-0.096,1.193-0.096
		c0.359,0,0.714,0.024,1.059,0.077v-6.378c0-1.361-1.068-2.463-2.386-2.463h-10.062
		C-142.994,107.667-144.063,108.769-144.063,110.13z"/>
	<path fill-rule="evenodd" clip-rule="evenodd" fill="#FF6600" d="M-136.65,124.097c0,3.627,2.846,6.569,6.359,6.569
		c3.507,0,6.354-2.942,6.354-6.569c0-3.632-2.846-6.574-6.354-6.574C-133.804,117.523-136.65,120.465-136.65,124.097z
		 M-134.532,124.097c0-2.42,1.898-4.384,4.241-4.384c2.338,0,4.236,1.965,4.236,4.384c0,2.415-1.898,4.38-4.236,4.38
		C-132.634,128.477-134.532,126.512-134.532,124.097z"/>
	<path fill="#FF6600" d="M-127.57,125.659l-1.303-1.337l1.303-1.337c0.134-0.144,0.134-0.369,0-0.513l-0.747-0.762
		c-0.134-0.139-0.359-0.139-0.494,0l-1.303,1.337l-1.308-1.337c-0.134-0.139-0.359-0.139-0.494,0l-0.747,0.762
		c-0.134,0.144-0.134,0.369,0,0.513l1.303,1.337l-1.303,1.337c-0.134,0.139-0.134,0.369,0,0.508l0.747,0.767
		c0.134,0.139,0.359,0.139,0.494,0l1.303-1.337l1.308,1.337c0.134,0.139,0.359,0.139,0.494,0l0.747-0.767
		C-127.436,126.028-127.436,125.798-127.57,125.659z"/>
</g>
<g>
	<path fill-rule="evenodd" clip-rule="evenodd" fill="#0154A0" d="M-111.1,114.236c0,0.608,0.24,1.097,0.532,1.097h7.413
		c0.292,0,0.532-0.489,0.532-1.097c0-0.604-0.24-1.092-0.532-1.092h-7.413C-110.861,113.144-111.1,113.632-111.1,114.236z
		 M-111.1,117.523c0,0.604,0.24,1.097,0.532,1.097h4.873c0.814-0.829,1.816-1.462,2.932-1.83c-0.096-0.22-0.235-0.359-0.393-0.359
		h-7.413C-110.861,116.431-111.1,116.919-111.1,117.523z M-111.1,120.81c0,0.604,0.24,1.092,0.532,1.092h2.952
		c0.23-0.791,0.58-1.529,1.025-2.19h-3.977C-110.861,119.713-111.1,120.206-111.1,120.81z M-114.277,110.13v15.884
		c0,1.356,1.069,2.463,2.381,2.463h5.304c-0.474-0.7-0.834-1.485-1.059-2.329h-2.789c-1.155,0-1.72-0.58-1.72-1.778v-12.731
		c0-1.198,0.565-1.783,1.72-1.783h7.02c1.159,0,1.72,0.585,1.72,1.783v4.887c0.388-0.067,0.786-0.096,1.193-0.096
		c0.359,0,0.714,0.024,1.059,0.077v-6.378c0-1.361-1.069-2.463-2.386-2.463h-10.063
		C-113.209,107.667-114.277,108.769-114.277,110.13z"/>
	<path fill-rule="evenodd" clip-rule="evenodd" fill="#0154A0" d="M-106.865,124.097c0,3.627,2.846,6.569,6.359,6.569
		c3.507,0,6.354-2.942,6.354-6.569c0-3.632-2.846-6.574-6.354-6.574C-104.018,117.523-106.865,120.465-106.865,124.097z
		 M-104.747,124.097c0-2.42,1.897-4.384,4.241-4.384c2.338,0,4.236,1.965,4.236,4.384c0,2.415-1.897,4.38-4.236,4.38
		C-102.849,128.477-104.747,126.512-104.747,124.097z"/>
	<path fill="#0154A0" d="M-97.626,122.42l-1.002-0.944c-0.091-0.081-0.23-0.062-0.302,0.034l-2.367,3.081l-1.284-1.045
		c-0.086-0.086-0.225-0.077-0.302,0.014l-0.752,0.867c-0.077,0.091-0.072,0.235,0.014,0.316l2.257,2.286
		c0.086,0.081,0.22,0.072,0.292-0.024l1.126-1.097l2.353-3.11C-97.521,122.698-97.535,122.497-97.626,122.42z"/>
</g>
<g id="google_x5F_maps_1_">
	<path fill="#00539F" d="M-22,2c-3.673,0-6.65,2.978-6.65,6.65c0,0.975,0.445,2.298,0.445,2.298
		c1.765,4.528,6.009,12.882,6.009,12.882C-22.142,23.943-22.071,24-22,24c0.071,0,0.142-0.057,0.195-0.17
		c0,0,4.244-8.354,6.01-12.882c0,0,0.445-1.323,0.445-2.298C-15.35,4.978-18.327,2-22,2z"/>
</g>
<g>
	<g>
		<path fill-rule="evenodd" clip-rule="evenodd" fill="#FFFFFF" d="M-22.411,7.914c0.051,0,0.079-0.028,0.079-0.079
			c0-0.201-0.028-0.351-0.065-0.481c-0.149-0.444-0.551-0.71-1.089-0.71c-0.537,0-0.939,0.266-1.084,0.71
			c-0.042,0.131-0.07,0.28-0.07,0.481c0,0.051,0.028,0.079,0.084,0.079H-22.411z M-26.276,10.129
			C-26.407,9.731-26.5,9.264-26.5,8.596c0-0.682,0.079-1.149,0.21-1.551c0.378-1.164,1.411-1.832,2.79-1.832
			c1.435,0,2.43,0.682,2.804,1.818c0.136,0.425,0.215,0.897,0.215,1.991c0,0.08-0.051,0.135-0.15,0.135h-3.925
			c-0.056,0-0.084,0.023-0.084,0.08c0.014,0.131,0.042,0.252,0.084,0.36c0.173,0.561,0.668,0.855,1.341,0.855
			c0.64,0,1.112-0.224,1.486-0.575c0.065-0.051,0.135-0.066,0.187,0l0.888,0.827c0.065,0.056,0.065,0.135,0.014,0.187
			c-0.617,0.659-1.57,1.084-2.766,1.084C-24.879,11.974-25.897,11.292-26.276,10.129z"/>
	</g>
	<g>
		<path fill="#FFFFFF" d="M-20.084,6.376c0.089-0.285,0.626-0.911,0.897-0.79c0.701,0.318,1.687,1.21,1.687,3.08
			c0,1.804-0.967,2.794-1.687,3.084c-0.299,0.117-0.813-0.622-0.897-0.935c-0.135-0.519,1.019-0.696,1.019-2.149
			C-19.065,6.844-20.252,6.923-20.084,6.376z"/>
	</g>
</g>
<g>
	<g>
		<path fill="#00539F" d="M3.437,14.703c-0.053,0-0.079-0.035-0.065-0.088l0.172-0.642c0.009-0.035,0.025-0.062,0.05-0.088
			l2.846-2.543l0.005-0.018H4.456c-0.053,0-0.078-0.035-0.064-0.088l0.184-0.686c0.014-0.053,0.059-0.088,0.111-0.088h3.062
			c0.053,0,0.079,0.035,0.064,0.088L7.63,11.236c-0.012,0.044-0.025,0.062-0.05,0.088l-2.808,2.499l-0.005,0.018h2.077
			c0.053,0,0.078,0.035,0.064,0.088l-0.184,0.686c-0.014,0.053-0.059,0.088-0.111,0.088H3.437z"/>
		<path fill="#00539F" d="M7.59,13.357c-0.024-0.369,0.03-0.704,0.283-1.645c0.252-0.941,0.377-1.276,0.599-1.645
			c0.563-0.95,1.469-1.443,2.499-1.443c1.038,0,1.681,0.493,1.734,1.443c0.024,0.37-0.03,0.704-0.282,1.645
			c-0.252,0.941-0.377,1.276-0.599,1.645c-0.563,0.95-1.469,1.443-2.507,1.443C8.285,14.8,7.643,14.307,7.59,13.357z M10.892,13.084
			c0.129-0.22,0.247-0.528,0.474-1.372c0.229-0.853,0.274-1.152,0.262-1.372c-0.037-0.484-0.309-0.783-0.908-0.783
			c-0.59,0-1.022,0.299-1.319,0.783c-0.129,0.22-0.244,0.519-0.473,1.372c-0.226,0.845-0.274,1.152-0.262,1.372
			c0.038,0.484,0.31,0.783,0.899,0.783C10.163,13.867,10.595,13.568,10.892,13.084z"/>
		<path fill="#00539F" d="M14.859,14.703c-0.053,0-0.079-0.035-0.064-0.088l0.655-2.446c0.146-0.545-0.025-0.924-0.553-0.924
			c-0.51,0-0.911,0.378-1.057,0.924l-0.655,2.446c-0.014,0.053-0.059,0.088-0.111,0.088h-0.81c-0.053,0-0.079-0.035-0.065-0.088
			l1.089-4.065c0.014-0.053,0.059-0.088,0.112-0.088h0.81c0.053,0,0.079,0.035,0.064,0.088l-0.083,0.308h0.009
			c0.256-0.264,0.686-0.493,1.25-0.493c0.906,0,1.29,0.669,1.048,1.575l-0.717,2.674c-0.014,0.053-0.059,0.088-0.111,0.088H14.859z"
			/>
		<path fill="#00539F" d="M18.951,14.703c-0.053,0-0.079-0.035-0.064-0.088l0.082-0.308H18.96c-0.28,0.29-0.73,0.493-1.329,0.493
			c-0.774,0-1.317-0.405-1.079-1.293c0.247-0.924,1.012-1.346,2.059-1.346h0.863c0.035,0,0.057-0.018,0.067-0.053l0.054-0.202
			c0.13-0.484-0.04-0.704-0.753-0.704c-0.475,0-0.801,0.132-1.046,0.29c-0.053,0.035-0.104,0.027-0.118-0.017l-0.17-0.581
			c-0.015-0.044,0.006-0.088,0.048-0.114c0.409-0.247,0.92-0.414,1.616-0.414c1.294,0,1.651,0.44,1.372,1.478l-0.743,2.771
			c-0.014,0.053-0.059,0.088-0.111,0.088H18.951z M19.227,13.278l0.087-0.326c0.009-0.035-0.003-0.052-0.039-0.052h-0.704
			c-0.633,0-0.962,0.176-1.068,0.571c-0.094,0.352,0.113,0.528,0.589,0.528C18.699,13.999,19.097,13.762,19.227,13.278z"/>
	</g>
	<path fill="#00539F" d="M1,1v22h22V1H1z M22.413,17.133c0,2.916-2.364,5.28-5.28,5.28H1.587V1.587h20.827V17.133z"/>
</g>
<g>
</g>
<g>
</g>
<g>
</g>
<g>
</g>
<g>
</g>
<g>
</g>
<g>
</g>
<g>
</g>
<g>
</g>
<g>
</g>
<g>
</g>
<g>
</g>
<g>
</g>
<g>
</g>
<g>
</g>
</svg>
