<svg version="1.1" class="logo-header" xmlns="http://www.w3.org/2000/svg" xmlns:xlink="http://www.w3.org/1999/xlink" x="0" y="0" width="35" height="26" viewBox="0" enable-background="new 0 0 35 26" xml:space="preserve">
  <path class="logo-header-symbol" fill="#FF6702" d="M29.34 1.68c-0.39-0.27-1.01-0.23-1.37 0.1L25.67 3.88c-0.36 0.35-0.33 0.84 0.06 1.13 0 0 3.54 2.6 3.54 8.19 0 5.3-3.73 8.36-3.73 8.36 -0.37 0.31-0.39 0.83-0.03 1.17l2.28 2.07c0.36 0.33 0.98 0.37 1.39 0.1 0 0 5.35-3.64 5.35-11.66C34.52 5.25 29.34 1.68 29.34 1.68z"/>
  <path class="logo-header-letter" fill-rule="evenodd" clip-rule="evenodd" fill="#FFFFFF" d="M7.22 14.98c0 0-0.67-0.06-0.67 0.47 0 3.03 2.26 5.19 5.81 5.19 2.64 0 3.76-0.63 5.35-1.82 0.38-0.28 0.77-0.55 1.07-0.21 0.22 0.23 2.99 2.81 2.99 2.81 0.36 0.33 0.27 0.72-0.1 1.03C21.27 22.75 17.1 26 12.3 26 6.03 26 0 23.27 0 12.97 0 4.68 4.7 0 11.59 0c7.4 0 11.58 5.18 11.58 12.15v1.77c0 0.72-0.58 1.06-1.06 1.06H7.22zM16.03 7.9c-0.71-1.51-2.18-2.63-4.44-2.63 -2.24 0-3.72 1.12-4.44 2.63 -0.41 0.93-0.56 1.61-0.61 2.73H16.64C16.59 9.51 16.43 8.82 16.03 7.9z"/>
</svg>
