<?xml version="1.0" encoding="utf-8"?>
<!-- Generator: Adobe Illustrator 17.0.0, SVG Export Plug-In . SVG Version: 6.00 Build 0)  -->
<!DOCTYPE svg PUBLIC "-//W3C//DTD SVG 1.1//EN" "http://www.w3.org/Graphics/SVG/1.1/DTD/svg11.dtd">
<svg version="1.1" id="Layer_1" xmlns="http://www.w3.org/2000/svg" xmlns:xlink="http://www.w3.org/1999/xlink" x="0px" y="0px"
	 width="24px" height="24px" viewBox="0 0 24 24" enable-background="new 0 0 24 24" xml:space="preserve">
<path fill-rule="evenodd" clip-rule="evenodd" fill="#00539F" d="M-58.775,42.441c-1.893-1.881-4.37-2.805-6.846-2.774l-0.013,1.191
	c2.172-0.032,4.363,0.773,6.016,2.425c1.653,1.653,2.463,3.838,2.419,6.016l1.197-0.013C-55.97,46.811-56.894,44.335-58.775,42.441z
	 M-60.763,48.843l1.184-0.019c0.051-1.57-0.519-3.16-1.716-4.363c-1.203-1.197-2.793-1.761-4.363-1.716l-0.019,1.191
	c1.279-0.051,2.565,0.399,3.54,1.368C-61.162,46.272-60.719,47.571-60.763,48.843z M-64.658,46.633
	c0.291,0.291,0.38,0.69,0.304,1.064l1.216-0.013c0.057-0.678-0.165-1.374-0.678-1.893c-0.513-0.513-1.209-0.728-1.887-0.671
	l-0.013,1.21C-65.342,46.26-64.943,46.342-64.658,46.633z M-59.554,54.676c-0.272-0.627-3.559-1.596-3.825-1.608L-63.6,53.08
	c-0.443,0.095-0.937,0.519-1.976,1.438c-1.165-0.538-2.761-1.982-3.515-2.831c-0.817-0.912-1.836-2.457-2.197-3.616
	c1.178-1.045,1.672-1.501,1.704-2.001c0.013-0.279-0.545-3.648-1.14-3.99l-0.177-0.114c-0.38-0.241-0.95-0.614-1.583-0.481
	c-0.152,0.032-0.304,0.095-0.443,0.177c-0.424,0.272-1.469,0.988-1.944,1.938c-0.291,0.589-0.424,5.959,3.597,10.5
	c3.983,4.49,8.885,4.686,9.626,4.534h0.019l0.063-0.025c0.994-0.354,1.843-1.304,2.153-1.691c0.589-0.728,0.171-1.583-0.057-2.046
	L-59.554,54.676z"/>
<path fill-rule="evenodd" clip-rule="evenodd" fill="#00539F" d="M-41.551,57.344c0-0.687,0.549-1.246,1.226-1.246
	c0.677,0,1.231,0.559,1.231,1.246c0,0.692-0.554,1.251-1.231,1.251C-41.003,58.595-41.551,58.036-41.551,57.344z M-45.762,42.703
	c0-1,0.246-1.251,1.226-1.251h8.072c0.979,0,1.226,0.251,1.226,1.251v11.431c0,0.995-0.246,1.246-1.226,1.246h-8.072
	c-0.979,0-1.226-0.251-1.226-1.246V42.703z M-36.259,39.667h-8.482c-1.333,0-2.426,1.123-2.426,2.503v15
	c0,1.374,1.092,2.497,2.426,2.497h8.482c1.333,0,2.426-1.123,2.426-2.497v-15C-33.833,40.79-34.926,39.667-36.259,39.667z"/>
<path fill="#00539F" d="M-7.139,54.393c-0.522-0.825-2.276-1.335-4.018-2.061c-1.736-0.732-2.148-0.987-2.148-0.987l-0.017-1.678
	c0,0,0.65-0.505,0.854-2.09c0.406,0.122,0.836-0.61,0.859-0.993c0.023-0.372-0.058-1.405-0.551-1.301
	c0.099-0.772,0.174-1.475,0.139-1.841c-0.134-1.353-1.452-2.775-3.478-2.775s-3.344,1.422-3.478,2.775
	c-0.035,0.366,0.041,1.068,0.139,1.841c-0.493-0.104-0.575,0.929-0.552,1.301c0.023,0.383,0.453,1.115,0.859,0.993
	c0.203,1.585,0.854,2.09,0.854,2.09l-0.017,1.678c0,0-0.412,0.256-2.148,0.987c-1.742,0.726-3.496,1.237-4.018,2.061
	c-0.47,0.737-0.331,4.274-0.331,4.274h17.385C-6.808,58.667-6.668,55.131-7.139,54.393z"/>
<g>
	<path fill-rule="evenodd" clip-rule="evenodd" fill="#00539F" d="M6.488,57.432c-0.005-0.695,0.537-1.265,1.21-1.265
		c0.679,0,1.227,0.569,1.238,1.265c0.005,0.706-0.542,1.276-1.216,1.276C7.041,58.708,6.493,58.139,6.488,57.432z M1.285,41.612
		v16.062c0,1.101,0.86,1.993,1.917,1.993h9.008c0.761,0,1.413-0.46,1.714-1.128v-9.184c-0.553,0.17-1.194,0.356-1.785,0.372v0.142
		h0.099v5.964h-0.422h-0.843H2.972v-0.427v-0.427V41.354h0.011v-0.192h1.834c0.104-0.509,0.257-0.997,0.466-1.457H3.158
		C2.123,39.706,1.285,40.555,1.285,41.612z"/>
	<g>
		<path fill="#00539F" d="M11.449,46.851v-1.03c-0.592-0.01-1.204-0.194-1.561-0.449l0.245-0.683
			c0.367,0.245,0.898,0.439,1.469,0.439c0.724,0,1.214-0.418,1.214-1c0-0.561-0.398-0.908-1.153-1.214
			c-1.04-0.408-1.683-0.877-1.683-1.765c0-0.847,0.602-1.489,1.54-1.642v-1.03h0.632v0.989c0.612,0.02,1.03,0.184,1.326,0.357
			l-0.255,0.673c-0.214-0.122-0.633-0.347-1.285-0.347c-0.786,0-1.081,0.469-1.081,0.877c0,0.53,0.377,0.796,1.265,1.163
			c1.051,0.428,1.581,0.959,1.581,1.867c0,0.806-0.561,1.561-1.612,1.734v1.061H11.449z"/>
	</g>
	<g>
		<path fill-rule="evenodd" clip-rule="evenodd" fill="#00539F" d="M11.69,36.667c3.258,0,5.953,2.634,6.024,5.914
			c0.06,3.308-2.568,6.002-5.871,6.002c-3.313,0-6.007-2.694-6.024-6.002C5.803,39.301,8.432,36.667,11.69,36.667z M11.706,38.025
			c2.514,0,4.589,2.037,4.633,4.556c0.049,2.541-1.977,4.611-4.518,4.611c-2.541,0-4.616-2.07-4.633-4.611
			C7.172,40.062,9.198,38.025,11.706,38.025z"/>
	</g>
</g>
<path fill-rule="evenodd" clip-rule="evenodd" fill="#00539F" d="M8.988,21.766c-0.006-0.695,0.537-1.265,1.21-1.265
	c0.679,0,1.227,0.569,1.238,1.265c0.005,0.706-0.542,1.276-1.216,1.276C9.541,23.042,8.993,22.472,8.988,21.766z M3.785,5.945
	v16.062c0,1.101,0.86,1.993,1.917,1.993h9.008c0.761,0,1.413-0.46,1.714-1.128v-9.184c-0.553,0.17-1.194,0.356-1.785,0.372v0.142
	h0.099v5.964h-0.422h-0.843H5.472V19.74v-0.427V5.688h0.011V5.496h1.834c0.104-0.509,0.257-0.997,0.466-1.457H5.658
	C4.623,4.039,3.785,4.888,3.785,5.945z"/>
<g>
	<path fill-rule="evenodd" clip-rule="evenodd" fill="#00539F" d="M14.19,1c3.258,0,5.953,2.634,6.024,5.914
		c0.06,3.308-2.568,6.002-5.871,6.002c-3.313,0-6.007-2.694-6.024-6.002C8.303,3.634,10.932,1,14.19,1z M14.206,2.358
		c2.514,0,4.589,2.037,4.633,4.556c0.049,2.541-1.977,4.611-4.518,4.611c-2.541,0-4.616-2.07-4.633-4.611
		C9.672,4.395,11.698,2.358,14.206,2.358z"/>
</g>
<g>
	<path fill-rule="evenodd" clip-rule="evenodd" fill="#0154A0" d="M31.88,55.905l4.742-5.529h3.684l2.632-2.767V44.29l-3.684,3.318
		l-2.109-2.762l3.161-3.319h-3.161l-2.632,2.211v4.421l-5.265,4.978c-1.451,0-2.632,1.237-2.632,2.767
		c0,1.524,1.181,2.762,2.632,2.762C30.704,58.667,31.88,57.429,31.88,55.905z M28.196,55.905c0-0.613,0.472-1.108,1.052-1.108
		c0.579,0,1.052,0.495,1.052,1.108c0,0.608-0.472,1.103-1.052,1.103C28.668,57.007,28.196,56.512,28.196,55.905z M35.564,53.138
		l3.161,2.767c0,0,0.129,1.035,1.052,1.654c0.922,0.624,2.632,0,2.632,0s-0.197-2.07-1.052-2.762
		c-0.855-0.692-1.58-0.551-1.58-0.551l-2.632-2.767L35.564,53.138z M33.46,44.847l-3.161-3.875c0,0-1.316-0.686-2.104,0
		c-0.793,0.692-2.109,2.216-2.109,2.216s-0.197,0.9,0.529,1.659c0.726,0.759,3.971,4.792,3.971,4.792l0.771,0.18v-1.102
		l-4.213-4.427l0.523-0.551l4.393,4.77l0.461-0.467l-4.325-4.854l0.405-0.371l4.303,4.826l0.428-0.5l-4.303-4.708l0.484-0.512
		l3.948,4.269V44.847z"/>
</g>
<g>
	<path fill-rule="evenodd" clip-rule="evenodd" fill="#B3B1B3" d="M192.5,39.292c-5.8,0-10.5,4.41-10.5,9.845
		c0,2.575,1.065,4.915,2.795,6.67l-0.17,3.86l3.96-1.4c1.21,0.455,2.53,0.71,3.915,0.71c5.8,0,10.5-4.405,10.5-9.84
		S198.3,39.292,192.5,39.292z"/>
	<g>
		<path fill="#FFFFFF" d="M191.173,51.651v-0.656c0-0.641,0.128-0.961,0.416-1.361l1.264-1.729c0.384-0.512,0.544-0.88,0.544-1.313
			c0-0.688-0.48-1.2-1.248-1.2c-0.752,0-1.216,0.464-1.36,1.28c-0.016,0.096-0.08,0.145-0.176,0.129l-1.44-0.225
			c-0.112-0.016-0.144-0.096-0.128-0.191c0.256-1.602,1.408-2.594,3.169-2.594c1.761,0,3.009,1.152,3.009,2.785
			c0,0.688-0.208,1.281-0.656,1.873l-1.265,1.728c-0.24,0.305-0.32,0.528-0.32,1.008v0.465c0,0.096-0.064,0.16-0.16,0.16h-1.489
			C191.237,51.811,191.173,51.747,191.173,51.651z M191.109,53.059c0-0.096,0.064-0.16,0.16-0.16h1.601
			c0.096,0,0.16,0.064,0.16,0.16v1.633c0,0.096-0.064,0.16-0.16,0.16h-1.601c-0.096,0-0.16-0.064-0.16-0.16V53.059z"/>
	</g>
</g>
<g>
	<g>
		<g>
			<path fill-rule="evenodd" clip-rule="evenodd" fill="#00539F" d="M61.394,41.051c4.436,0,8.097,3.589,8.176,8.032
				c0.085,4.488-3.484,8.104-7.973,8.104c-4.482,0-8.143-3.615-8.176-8.104C53.395,44.64,56.965,41.051,61.394,41.051z
				 M61.368,38.669c5.755,0,10.512,4.646,10.63,10.414c0.112,5.827-4.528,10.584-10.368,10.584c-5.84,0-10.597-4.757-10.63-10.584
				C50.967,43.315,55.613,38.669,61.368,38.669z"/>
		</g>
	</g>
	<path fill-rule="evenodd" clip-rule="evenodd" fill="#0154A0" d="M64.092,47.812H61.25v-0.735c0-1.537-1.178-2.783-2.625-2.783
		c-1.448,0-2.625,1.245-2.625,2.783v0.877l0.052,0.683l1.448,0.009v-1.351h0.75v1.356h0.022c-0.005,0.05-0.022,0.091-0.022,0.144
		v4.268c0,0.6,0.352,0.982,0.907,0.982h4.935c0.555,0,0.908-0.382,0.908-0.982v-4.268C65,48.194,64.647,47.812,64.092,47.812z
		 M62.157,52.469h-1.143c-0.001-0.001-0.002-0.001-0.004-0.002l0.292-1.761c-0.172-0.105-0.292-0.308-0.292-0.54
		c0-0.352,0.255-0.637,0.577-0.637c0.315,0,0.57,0.285,0.57,0.637c0,0.232-0.12,0.435-0.292,0.54L62.157,52.469z"/>
</g>
<g>
	<g>
		<g>
			<path fill-rule="evenodd" clip-rule="evenodd" fill="#00539F" d="M-68.581,160.483c3.38,0,6.169,2.735,6.229,6.119
				c0.065,3.42-2.655,6.174-6.074,6.174c-3.415,0-6.204-2.755-6.229-6.174C-74.675,163.218-71.955,160.483-68.581,160.483z
				 M-68.601,158.668c4.385,0,8.009,3.54,8.099,7.934c0.085,4.44-3.45,8.064-7.899,8.064c-4.45,0-8.074-3.625-8.099-8.064
				C-76.525,162.208-72.985,158.668-68.601,158.668z"/>
		</g>
	</g>
	<path fill-rule="evenodd" clip-rule="evenodd" fill="#0154A0" d="M-66.525,165.634h-2.166v-0.56c0-1.171-0.897-2.12-2-2.12
		s-2,0.949-2,2.12v0.669l0.04,0.52l1.103,0.007v-1.029h0.571v1.033h0.017c-0.004,0.038-0.017,0.069-0.017,0.109v3.252
		c0,0.457,0.269,0.748,0.691,0.748h3.76c0.423,0,0.692-0.291,0.692-0.748v-3.252C-65.833,165.926-66.102,165.634-66.525,165.634z
		 M-67.999,169.183h-0.871c-0.001-0.001-0.002-0.001-0.003-0.002l0.223-1.342c-0.131-0.08-0.223-0.234-0.223-0.411
		c0-0.268,0.194-0.486,0.44-0.486c0.24,0,0.434,0.217,0.434,0.486c0,0.177-0.092,0.331-0.223,0.411L-67.999,169.183z"/>
</g>
<g>
	<path fill-rule="evenodd" clip-rule="evenodd" fill="#0154A0" d="M81.862,42.876c0-1.057,0.262-1.324,1.314-1.324h6.014
		l3.948,5.852v9.052c0,1.057-0.262,1.324-1.314,1.324h-8.648c-1.052,0-1.314-0.267-1.314-1.324V42.876z M90.167,39.667h-7.214
		c-1.424,0-2.595,1.19-2.595,2.643v14.714c0,1.452,1.172,2.643,2.595,2.643h9.095c1.424,0,2.595-1.19,2.595-2.643V46.457
		L90.167,39.667z"/>
	<rect x="83.214" y="53.952" fill-rule="evenodd" clip-rule="evenodd" fill="#0154A0" width="2.381" height="2.857"/>
	<rect x="86.548" y="48.238" fill-rule="evenodd" clip-rule="evenodd" fill="#0154A0" width="2.381" height="8.571"/>
	<rect x="89.881" y="52.524" fill-rule="evenodd" clip-rule="evenodd" fill="#0154A0" width="2.381" height="4.286"/>
</g>
<g>
	<path fill-rule="evenodd" clip-rule="evenodd" fill="#0154A0" d="M107.862,42.876c0-1.057,0.262-1.324,1.314-1.324h6.014
		l3.948,5.852v9.052c0,1.057-0.262,1.324-1.314,1.324h-8.648c-1.052,0-1.314-0.267-1.314-1.324V42.876z M116.167,39.667h-7.214
		c-1.424,0-2.595,1.19-2.595,2.643v14.714c0,1.452,1.171,2.643,2.595,2.643h9.095c1.424,0,2.595-1.19,2.595-2.643V46.457
		L116.167,39.667z"/>
	<g>
		<circle fill-rule="evenodd" clip-rule="evenodd" fill="#EEEEEE" cx="115.595" cy="46.857" r="0.19"/>
	</g>
	<g>
		<path fill-rule="evenodd" clip-rule="evenodd" fill="#0154A0" d="M108.738,54.19c0-0.395,0.419-0.714,0.933-0.714h6.705
			c0.514,0,0.933,0.319,0.933,0.714c0,0.395-0.419,0.714-0.933,0.714h-6.705C109.157,54.905,108.738,54.586,108.738,54.19z"/>
	</g>
	<g>
		<path fill-rule="evenodd" clip-rule="evenodd" fill="#0154A0" d="M108.738,51.81c0-0.395,0.419-0.714,0.933-0.714h6.705
			c0.514,0,0.933,0.319,0.933,0.714c0,0.395-0.419,0.714-0.933,0.714h-6.705C109.157,52.524,108.738,52.205,108.738,51.81z"/>
	</g>
	<g>
		<path fill-rule="evenodd" clip-rule="evenodd" fill="#0154A0" d="M108.738,49.429c0-0.395,0.433-0.714,0.967-0.714h3.781
			c0.533,0,0.967,0.319,0.967,0.714s-0.433,0.714-0.967,0.714h-3.781C109.171,50.143,108.738,49.824,108.738,49.429z"/>
	</g>
</g>
<g>
	<g>
		<path fill-rule="evenodd" clip-rule="evenodd" fill="#0154A0" d="M11.214,8.769c0-0.281,0.299-0.509,0.665-0.509h4.774
			c0.366,0,0.664,0.227,0.664,0.509c0,0.281-0.298,0.509-0.664,0.509h-4.774C11.513,9.277,11.214,9.05,11.214,8.769z"/>
	</g>
	<g>
		<path fill-rule="evenodd" clip-rule="evenodd" fill="#0154A0" d="M11.214,7.074c0-0.281,0.299-0.509,0.665-0.509h4.774
			c0.366,0,0.664,0.227,0.664,0.509c0,0.281-0.298,0.509-0.664,0.509h-4.774C11.513,7.582,11.214,7.355,11.214,7.074z"/>
	</g>
	<g>
		<path fill-rule="evenodd" clip-rule="evenodd" fill="#0154A0" d="M11.214,5.378c0-0.281,0.309-0.509,0.688-0.509h2.692
			c0.38,0,0.688,0.227,0.688,0.509c0,0.281-0.309,0.509-0.688,0.509h-2.692C11.523,5.887,11.214,5.66,11.214,5.378z"/>
	</g>
</g>
<g>
	<g>
		<path fill-rule="evenodd" clip-rule="evenodd" fill="#0154A0" d="M139.095,50.393c0.051,0,0.078-0.028,0.078-0.078
			c0-0.198-0.028-0.345-0.064-0.474c-0.147-0.437-0.543-0.699-1.072-0.699c-0.529,0-0.925,0.262-1.067,0.699
			c-0.041,0.129-0.069,0.276-0.069,0.474c0,0.051,0.028,0.078,0.083,0.078H139.095z M135.291,52.574
			c-0.129-0.391-0.221-0.851-0.221-1.509c0-0.672,0.078-1.132,0.207-1.527c0.373-1.145,1.389-1.803,2.746-1.803
			c1.412,0,2.392,0.672,2.76,1.789c0.133,0.419,0.212,0.883,0.212,1.96c0,0.078-0.051,0.133-0.147,0.133h-3.864
			c-0.055,0-0.083,0.023-0.083,0.078c0.014,0.129,0.041,0.248,0.083,0.354c0.17,0.552,0.658,0.842,1.32,0.842
			c0.63,0,1.095-0.221,1.463-0.566c0.064-0.051,0.133-0.064,0.184,0l0.874,0.814c0.064,0.055,0.064,0.133,0.014,0.184
			c-0.607,0.649-1.546,1.067-2.723,1.067C136.666,54.39,135.664,53.719,135.291,52.574z"/>
	</g>
	<g>
		<path fill="#0154A0" d="M141.386,48.88c0.087-0.281,0.616-0.897,0.883-0.777c0.69,0.313,1.661,1.191,1.661,3.031
			c0,1.776-0.952,2.751-1.661,3.036c-0.294,0.115-0.8-0.612-0.883-0.92c-0.133-0.511,1.003-0.685,1.003-2.116
			C142.389,49.34,141.22,49.418,141.386,48.88z"/>
	</g>
</g>
<g>
	<path fill-rule="evenodd" clip-rule="evenodd" fill="#0154A0" d="M146.897,58.903l-13.593-0.018c-2.042,0-2.222-1.049-2.236-1.168
		l0.676-14.996h14.817c0.216,2.157,1.371,13.731,1.371,15.033C147.932,58.774,147.09,58.889,146.897,58.903z M139.095,37.43
		c2.581,0,3.238,3.349,3.39,4.526h-6.55C136.027,40.798,136.519,37.43,139.095,37.43z M147.334,42.72h0.037
		c0.212,0,0.382-0.17,0.382-0.382c0-0.212-0.17-0.382-0.382-0.382h-0.478h-3.629c-0.143-1.256-0.856-5.29-4.168-5.29
		c-2.893,0-3.818,3.266-3.938,5.29h-3.781h-0.308c-0.212,0-0.386,0.17-0.386,0.382c0,0.179,0.124,0.327,0.294,0.368L130.3,57.707
		v0.032c0,0.018,0.115,1.909,3.004,1.914l13.607,0.014h0.018c0.612-0.028,1.771-0.465,1.771-1.914
		C148.7,56.415,147.573,45.098,147.334,42.72z"/>
	<g>
		<path fill="#0154A0" d="M136.685,43.801c-0.212,0-0.382,0.17-0.382,0.382v0.782c0,0.212,0.17,0.382,0.382,0.382
			c0.216,0,0.386-0.17,0.386-0.382v-0.782C137.071,43.972,136.901,43.801,136.685,43.801z"/>
		<path fill="#0154A0" d="M142.315,43.801c-0.216,0-0.386,0.17-0.386,0.382v0.782c0,0.212,0.17,0.382,0.386,0.382
			c0.212,0,0.382-0.17,0.382-0.382v-0.782C142.697,43.972,142.527,43.801,142.315,43.801z"/>
	</g>
</g>
<g>
	<path fill="#E00000" d="M176.398,58.499l-10.206-17.912c-0.141-0.247-0.405-0.399-0.692-0.399s-0.551,0.153-0.692,0.399
		l-10.205,17.912c-0.139,0.243-0.136,0.539,0.006,0.78c0.142,0.24,0.403,0.388,0.685,0.388h20.412c0.281,0,0.542-0.148,0.685-0.388
		C176.534,59.038,176.536,58.742,176.398,58.499z M166.76,57.375h-2.521v-2.292h2.521V57.375z M166.76,53.364h-2.521v-6.875h2.521
		V53.364z"/>
</g>
<g>
	<path fill-rule="evenodd" clip-rule="evenodd" fill="#00539F" d="M-68.512,91.682c-0.005-0.696,0.537-1.265,1.21-1.265
		c0.679,0,1.227,0.57,1.238,1.265c0.006,0.706-0.542,1.276-1.216,1.276C-67.959,92.958-68.507,92.389-68.512,91.682z
		 M-73.715,75.862v16.062c0,1.101,0.86,1.993,1.917,1.993h9.008c0.761,0,1.413-0.46,1.714-1.128v-9.184
		c-0.553,0.17-1.194,0.356-1.785,0.372v0.142h0.099v5.964h-0.422h-0.843h-8.001v-0.427v-0.427V75.604h0.011v-0.192h1.835
		c0.104-0.509,0.257-0.997,0.465-1.457h-2.125C-72.877,73.956-73.715,74.805-73.715,75.862z"/>
	<g>
		<path fill-rule="evenodd" clip-rule="evenodd" fill="#FF6702" d="M-63.31,70.917c3.258,0,5.953,2.634,6.024,5.914
			c0.06,3.308-2.568,6.002-5.87,6.002c-3.313,0-6.007-2.694-6.024-6.002C-69.197,73.551-66.568,70.917-63.31,70.917z
			 M-63.294,72.275c2.514,0,4.589,2.037,4.633,4.556c0.049,2.541-1.977,4.611-4.518,4.611c-2.541,0-4.616-2.07-4.633-4.611
			C-67.828,74.312-65.802,72.275-63.294,72.275z"/>
	</g>
	<g>
		<g>
			<path fill="#FF6702" d="M-60.355,74.73c-0.075-0.065-0.485-0.375-0.561-0.441c-0.077-0.066-0.196-0.084-0.28-0.084h-2.446
				c-0.084,0-0.204,0.019-0.28,0.084c-0.056,0.048-0.286,0.224-0.438,0.343h2.049c0.105,0,0.253,0.023,0.348,0.105
				c0.094,0.082,0.602,0.466,0.695,0.547c0.094,0.08,0.171,0.201,0.146,0.375c-0.016,0.107-0.247,1.657-0.42,2.817h0.612
				c0.084,0,0.175-0.065,0.201-0.145c0,0,0.472-3.158,0.492-3.297C-60.216,74.893-60.279,74.795-60.355,74.73z"/>
		</g>
		<g>
			<path fill="#FF6702" d="M-61.557,75.509c-0.083-0.071-0.533-0.413-0.617-0.485c-0.084-0.073-0.216-0.093-0.309-0.093h-2.691
				c-0.092,0-0.224,0.021-0.308,0.093c-0.084,0.072-0.534,0.413-0.618,0.485c-0.083,0.071-0.152,0.179-0.13,0.333
				c0.022,0.154,0.541,3.627,0.541,3.627c0.029,0.087,0.129,0.16,0.221,0.16h3.276c0.093,0,0.192-0.072,0.221-0.16
				c0,0,0.519-3.474,0.541-3.627C-61.405,75.688-61.474,75.58-61.557,75.509z M-63.828,77.942c-0.908,0-1.103-1.285-1.143-1.55
				h0.514c0.078,0.386,0.253,1.047,0.629,1.047c0.377,0,0.552-0.661,0.63-1.047h0.513C-62.725,76.656-62.92,77.942-63.828,77.942z
				 M-65.796,75.881l0.617-0.643h2.703l0.617,0.643H-65.796z"/>
		</g>
	</g>
</g>
<g>
	<path fill-rule="evenodd" clip-rule="evenodd" fill="#00539F" d="M-42.512,91.682c-0.005-0.696,0.537-1.265,1.21-1.265
		c0.679,0,1.227,0.57,1.238,1.265c0.006,0.706-0.542,1.276-1.216,1.276C-41.959,92.958-42.507,92.389-42.512,91.682z
		 M-47.715,75.862v16.062c0,1.101,0.86,1.993,1.917,1.993h9.008c0.761,0,1.413-0.46,1.714-1.128v-9.184
		c-0.553,0.17-1.194,0.356-1.785,0.372v0.142h0.099v5.964h-0.422h-0.843h-8.001v-0.427v-0.427V75.604h0.011v-0.192h1.834
		c0.104-0.509,0.257-0.997,0.465-1.457h-2.125C-46.877,73.956-47.715,74.805-47.715,75.862z"/>
	<g>
		<path fill-rule="evenodd" clip-rule="evenodd" fill="#FF6702" d="M-37.31,70.917c3.258,0,5.953,2.634,6.024,5.914
			c0.06,3.308-2.568,6.002-5.871,6.002c-3.313,0-6.007-2.694-6.024-6.002C-43.197,73.551-40.568,70.917-37.31,70.917z
			 M-37.294,72.275c2.514,0,4.589,2.037,4.633,4.556c0.049,2.541-1.977,4.611-4.518,4.611c-2.541,0-4.616-2.07-4.633-4.611
			C-41.828,74.312-39.802,72.275-37.294,72.275z"/>
	</g>
	<path fill="#FF6702" d="M-38.741,75.86c0.065,0,0.128,0.01,0.188,0.028c0.225-0.252,0.474-0.481,0.744-0.684
		c-0.011-0.048-0.018-0.097-0.018-0.148c0-0.071,0.012-0.138,0.033-0.202c-0.302-0.217-0.631-0.399-0.981-0.54
		c-0.328,0.203-0.614,0.467-0.842,0.777c0.169,0.3,0.371,0.579,0.6,0.834C-38.934,75.883-38.841,75.86-38.741,75.86z M-39.38,76.498
		c0-0.089,0.019-0.175,0.052-0.252c-0.205-0.225-0.391-0.468-0.554-0.726c-0.204,0.405-0.319,0.862-0.319,1.347
		c0,0.561,0.154,1.086,0.422,1.535c0.095-0.54,0.277-1.05,0.528-1.518C-39.331,76.777-39.38,76.644-39.38,76.498z M-37.188,74.417
		c0.168,0,0.322,0.066,0.436,0.172c0.333-0.143,0.684-0.253,1.048-0.324c-0.44-0.254-0.951-0.4-1.496-0.4
		c-0.372,0-0.727,0.068-1.055,0.192c0.26,0.129,0.509,0.279,0.742,0.448C-37.418,74.45-37.307,74.417-37.188,74.417z
		 M-36.234,77.424c0.04-0.083,0.096-0.156,0.166-0.214c-0.189-0.58-0.487-1.11-0.872-1.566c-0.076,0.032-0.16,0.05-0.249,0.05
		c-0.139,0-0.266-0.045-0.371-0.12c-0.232,0.176-0.446,0.373-0.64,0.588c0.06,0.098,0.096,0.213,0.096,0.336
		c0,0.067-0.01,0.131-0.029,0.192C-37.572,77.064-36.928,77.32-36.234,77.424z M-35.406,78.285c0.009,0.121,0.013,0.243,0.013,0.366
		c0,0.217-0.014,0.43-0.04,0.64c0.509-0.372,0.896-0.899,1.092-1.513c-0.232,0.056-0.469,0.096-0.711,0.119
		C-35.109,78.072-35.239,78.213-35.406,78.285z M-36.384,77.853c-0.74-0.123-1.427-0.405-2.025-0.81
		c-0.097,0.059-0.211,0.094-0.333,0.094c-0.045,0-0.089-0.005-0.131-0.014c-0.286,0.542-0.469,1.148-0.522,1.789
		c0.286,0.306,0.634,0.553,1.026,0.719C-37.882,78.883-37.202,78.265-36.384,77.853z M-35.186,74.643
		c-0.481,0.046-0.94,0.167-1.368,0.348c0.003,0.021,0.004,0.042,0.004,0.064c0,0.101-0.024,0.196-0.066,0.28
		c0.427,0.501,0.759,1.086,0.968,1.726c0.259,0.004,0.482,0.164,0.577,0.389c0.289-0.029,0.57-0.084,0.841-0.164
		c0.019-0.137,0.029-0.277,0.029-0.42C-34.2,75.985-34.58,75.192-35.186,74.643z M-36.062,78.194
		c-0.764,0.358-1.404,0.909-1.866,1.584c0.233,0.058,0.477,0.09,0.728,0.09c0.453,0,0.882-0.101,1.266-0.28
		c0.062-0.302,0.094-0.615,0.094-0.936c0-0.116-0.005-0.23-0.014-0.344C-35.93,78.282-36.001,78.243-36.062,78.194z"/>
</g>
<g>
	<path fill-rule="evenodd" clip-rule="evenodd" fill="#00539F" d="M-14.512,91.682c-0.006-0.696,0.537-1.265,1.21-1.265
		c0.679,0,1.227,0.57,1.238,1.265c0.005,0.706-0.542,1.276-1.216,1.276C-13.959,92.958-14.507,92.389-14.512,91.682z
		 M-19.715,75.862v16.062c0,1.101,0.86,1.993,1.917,1.993h9.008c0.761,0,1.413-0.46,1.714-1.128v-9.184
		c-0.553,0.17-1.194,0.356-1.785,0.372v0.142h0.099v5.964h-0.422h-0.843h-8.001v-0.427v-0.427V75.604h0.011v-0.192h1.835
		c0.104-0.509,0.257-0.997,0.465-1.457h-2.125C-18.877,73.956-19.715,74.805-19.715,75.862z"/>
	<g>
		<path fill-rule="evenodd" clip-rule="evenodd" fill="#FF6702" d="M-9.31,70.917c3.258,0,5.953,2.634,6.024,5.914
			c0.06,3.308-2.568,6.002-5.871,6.002c-3.313,0-6.007-2.694-6.024-6.002C-15.197,73.551-12.568,70.917-9.31,70.917z M-9.294,72.275
			c2.514,0,4.589,2.037,4.633,4.556c0.049,2.541-1.977,4.611-4.518,4.611c-2.541,0-4.616-2.07-4.633-4.611
			C-13.828,74.312-11.802,72.275-9.294,72.275z"/>
	</g>
	<path fill="#FF6702" d="M-6.337,77.648l-0.576-0.513c-0.166-0.149-0.166-0.392,0-0.54l0.576-0.513
		c0.167-0.148,0.122-0.287-0.098-0.308l-0.763-0.073c-0.221-0.021-0.34-0.211-0.264-0.422l0.405-1.128
		c0.076-0.211-0.017-0.288-0.207-0.171l-0.9,0.557c-0.189,0.117-0.434,0.053-0.544-0.142l-0.325-0.582
		c-0.11-0.196-0.291-0.197-0.402-0.003l-0.304,0.527c-0.112,0.194-0.369,0.277-0.571,0.185l-0.533-0.245
		c-0.202-0.093-0.357,0.015-0.345,0.239l0.029,0.539c0.012,0.224-0.154,0.455-0.368,0.513l-0.515,0.139
		c-0.214,0.058-0.253,0.227-0.086,0.375l0.576,0.513c0.166,0.149,0.166,0.392,0,0.54l-0.576,0.513
		c-0.167,0.149-0.123,0.292,0.097,0.319l0.698,0.085c0.22,0.027,0.343,0.224,0.273,0.437l-0.359,1.087
		c-0.07,0.213,0.03,0.296,0.223,0.185l0.821-0.475c0.193-0.111,0.452-0.05,0.576,0.137l0.341,0.513
		c0.124,0.187,0.31,0.176,0.413-0.023l0.3-0.578c0.104-0.199,0.351-0.281,0.55-0.181l0.578,0.289
		c0.199,0.099,0.353-0.003,0.34-0.227l-0.029-0.539c-0.012-0.225,0.154-0.456,0.368-0.513l0.515-0.139
		C-6.209,77.965-6.169,77.797-6.337,77.648z M-8.9,78.266h-0.666v-0.7H-8.9L-8.9,78.266L-8.9,78.266z M-8.9,77.199h-0.666v-1.733
		H-8.9L-8.9,77.199L-8.9,77.199z"/>
</g>
<g>
	<path fill-rule="evenodd" clip-rule="evenodd" fill="#00539F" d="M11.488,91.682c-0.006-0.696,0.537-1.265,1.21-1.265
		c0.679,0,1.227,0.57,1.238,1.265c0.005,0.706-0.542,1.276-1.216,1.276C12.041,92.958,11.493,92.389,11.488,91.682z M6.285,75.862
		v16.062c0,1.101,0.86,1.993,1.917,1.993h9.008c0.761,0,1.413-0.46,1.714-1.128v-9.184c-0.553,0.17-1.194,0.356-1.785,0.372v0.142
		h0.099v5.964h-0.422h-0.843H7.972v-0.427v-0.427V75.604h0.011v-0.192h1.834c0.104-0.509,0.257-0.997,0.465-1.457H8.158
		C7.123,73.956,6.285,74.805,6.285,75.862z"/>
	<g>
		<path fill-rule="evenodd" clip-rule="evenodd" fill="#FF6702" d="M16.69,70.917c3.258,0,5.953,2.634,6.024,5.914
			c0.06,3.308-2.568,6.002-5.87,6.002c-3.313,0-6.007-2.694-6.024-6.002C10.803,73.551,13.432,70.917,16.69,70.917z M16.706,72.275
			c2.514,0,4.589,2.037,4.633,4.556c0.049,2.541-1.977,4.611-4.518,4.611c-2.541,0-4.616-2.07-4.633-4.611
			C12.172,74.312,14.198,72.275,16.706,72.275z"/>
	</g>
	<g>
		<path fill="#FF6702" d="M15.507,77.535v-1.861h-1.14c-0.33,0-0.6,0.27-0.6,0.6v1.8c0,0.33,0.27,0.6,0.6,0.6h0.3v0.9l0.9-0.9h1.501
			c0.33,0,0.6-0.27,0.6-0.6v-0.546c-0.02,0.004-0.039,0.006-0.06,0.006H15.507z M19.167,74.174h-2.7c-0.33,0-0.6,0.27-0.6,0.6v2.4
			h2.101l0.9,0.9v-0.9h0.3c0.33,0,0.6-0.27,0.6-0.6v-1.8C19.767,74.445,19.497,74.174,19.167,74.174z"/>
	</g>
</g>
<g>
	<path fill-rule="evenodd" clip-rule="evenodd" fill="#00539F" d="M38.488,91.682c-0.006-0.696,0.537-1.265,1.21-1.265
		c0.679,0,1.227,0.57,1.238,1.265c0.006,0.706-0.542,1.276-1.216,1.276C39.041,92.958,38.493,92.389,38.488,91.682z M33.285,75.862
		v16.062c0,1.101,0.86,1.993,1.917,1.993h9.008c0.761,0,1.413-0.46,1.714-1.128v-9.184c-0.553,0.17-1.194,0.356-1.785,0.372v0.142
		h0.099v5.964h-0.422h-0.843h-8.001v-0.427v-0.427V75.604h0.011v-0.192h1.835c0.104-0.509,0.257-0.997,0.465-1.457h-2.125
		C34.123,73.956,33.285,74.805,33.285,75.862z"/>
	<g>
		<path fill-rule="evenodd" clip-rule="evenodd" fill="#FF6702" d="M43.69,70.917c3.258,0,5.953,2.634,6.024,5.914
			c0.06,3.308-2.568,6.002-5.871,6.002c-3.313,0-6.007-2.694-6.024-6.002C37.803,73.551,40.432,70.917,43.69,70.917z M43.706,72.275
			c2.514,0,4.589,2.037,4.633,4.556c0.049,2.541-1.977,4.611-4.518,4.611c-2.541,0-4.616-2.07-4.633-4.611
			C39.172,74.312,41.198,72.275,43.706,72.275z"/>
	</g>
	<path fill="#FF6702" d="M46.287,75.73c-0.552-1.285-1.441-2.264-1.891-2.081c-0.764,0.31,0.455,1.801-3.295,3.325
		c-0.324,0.132-0.406,0.659-0.271,0.974c0.136,0.315,0.578,0.628,0.903,0.497c0.056-0.023,0.262-0.089,0.262-0.089
		c0.231,0.31,0.473,0.126,0.559,0.324c0.103,0.237,0.328,0.752,0.404,0.928c0.076,0.175,0.25,0.338,0.375,0.29
		c0.125-0.048,0.552-0.21,0.715-0.272c0.163-0.062,0.202-0.208,0.152-0.322c-0.054-0.123-0.274-0.16-0.337-0.304
		c-0.063-0.144-0.268-0.607-0.327-0.752c-0.08-0.199,0.09-0.359,0.339-0.385c1.707-0.178,2.026,0.876,2.607,0.64
		C46.931,78.318,46.839,77.016,46.287,75.73z M46.094,77.815c-0.1,0.041-0.772-0.489-1.201-1.488
		c-0.429-0.999-0.375-1.912-0.275-1.953c0.1-0.04,0.755,0.599,1.184,1.598C46.231,76.97,46.195,77.774,46.094,77.815z"/>
</g>
<g>
	<path fill-rule="evenodd" clip-rule="evenodd" fill="#FF6600" d="M-72.386,113.903c0,0.608,0.24,1.097,0.532,1.097h7.413
		c0.292,0,0.532-0.489,0.532-1.097c0-0.604-0.239-1.092-0.532-1.092h-7.413C-72.146,112.81-72.386,113.299-72.386,113.903z
		 M-72.386,117.19c0,0.604,0.24,1.097,0.532,1.097h4.873c0.814-0.829,1.816-1.462,2.932-1.83c-0.096-0.221-0.235-0.359-0.393-0.359
		h-7.413C-72.146,116.097-72.386,116.586-72.386,117.19z M-72.386,120.477c0,0.604,0.24,1.092,0.532,1.092h2.952
		c0.23-0.791,0.58-1.528,1.025-2.19h-3.977C-72.146,119.38-72.386,119.873-72.386,120.477z M-75.563,109.796v15.884
		c0,1.356,1.069,2.463,2.381,2.463h5.304c-0.474-0.7-0.834-1.486-1.059-2.329h-2.789c-1.155,0-1.72-0.58-1.72-1.778v-12.731
		c0-1.198,0.565-1.783,1.72-1.783h7.02c1.16,0,1.72,0.585,1.72,1.783v4.887c0.388-0.067,0.786-0.096,1.193-0.096
		c0.359,0,0.714,0.024,1.059,0.077v-6.378c0-1.361-1.069-2.463-2.386-2.463h-10.062C-74.494,107.333-75.563,108.435-75.563,109.796z
		"/>
	<path fill-rule="evenodd" clip-rule="evenodd" fill="#FF6600" d="M-68.15,123.764c0,3.627,2.846,6.569,6.359,6.569
		c3.507,0,6.354-2.942,6.354-6.569c0-3.632-2.846-6.574-6.354-6.574C-65.304,117.19-68.15,120.132-68.15,123.764z M-66.032,123.764
		c0-2.42,1.897-4.384,4.241-4.384c2.338,0,4.236,1.965,4.236,4.384c0,2.415-1.897,4.38-4.236,4.38
		C-64.134,128.144-66.032,126.179-66.032,123.764z"/>
	<path fill="#FF6600" d="M-59.069,125.326l-1.304-1.337l1.304-1.337c0.134-0.144,0.134-0.369,0-0.513l-0.748-0.762
		c-0.134-0.139-0.359-0.139-0.494,0l-1.303,1.337l-1.308-1.337c-0.134-0.139-0.359-0.139-0.494,0l-0.748,0.762
		c-0.134,0.144-0.134,0.369,0,0.513l1.303,1.337l-1.303,1.337c-0.134,0.139-0.134,0.369,0,0.508l0.748,0.767
		c0.134,0.139,0.359,0.139,0.494,0l1.303-1.337l1.308,1.337c0.134,0.139,0.359,0.139,0.494,0l0.748-0.767
		C-58.936,125.695-58.936,125.465-59.069,125.326z"/>
</g>
<g>
	<path fill-rule="evenodd" clip-rule="evenodd" fill="#0154A0" d="M-42.6,113.903c0,0.608,0.239,1.097,0.532,1.097h7.413
		c0.292,0,0.532-0.489,0.532-1.097c0-0.604-0.239-1.092-0.532-1.092h-7.413C-42.361,112.81-42.6,113.299-42.6,113.903z
		 M-42.6,117.19c0,0.604,0.239,1.097,0.532,1.097h4.873c0.814-0.829,1.816-1.462,2.932-1.83c-0.096-0.221-0.235-0.359-0.393-0.359
		h-7.413C-42.361,116.097-42.6,116.586-42.6,117.19z M-42.6,120.477c0,0.604,0.239,1.092,0.532,1.092h2.952
		c0.23-0.791,0.58-1.528,1.025-2.19h-3.977C-42.361,119.38-42.6,119.873-42.6,120.477z M-45.777,109.796v15.884
		c0,1.356,1.069,2.463,2.381,2.463h5.304c-0.474-0.7-0.834-1.486-1.059-2.329h-2.789c-1.155,0-1.72-0.58-1.72-1.778v-12.731
		c0-1.198,0.565-1.783,1.72-1.783h7.02c1.16,0,1.72,0.585,1.72,1.783v4.887c0.388-0.067,0.786-0.096,1.193-0.096
		c0.359,0,0.714,0.024,1.059,0.077v-6.378c0-1.361-1.068-2.463-2.386-2.463h-10.063C-44.709,107.333-45.777,108.435-45.777,109.796z
		"/>
	<path fill-rule="evenodd" clip-rule="evenodd" fill="#0154A0" d="M-38.365,123.764c0,3.627,2.846,6.569,6.359,6.569
		c3.507,0,6.354-2.942,6.354-6.569c0-3.632-2.846-6.574-6.354-6.574C-35.518,117.19-38.365,120.132-38.365,123.764z
		 M-36.247,123.764c0-2.42,1.897-4.384,4.241-4.384c2.338,0,4.236,1.965,4.236,4.384c0,2.415-1.898,4.38-4.236,4.38
		C-34.349,128.144-36.247,126.179-36.247,123.764z"/>
	<path fill="#0154A0" d="M-29.126,122.087l-1.002-0.944c-0.091-0.081-0.23-0.062-0.302,0.034l-2.367,3.081l-1.284-1.045
		c-0.086-0.086-0.225-0.077-0.302,0.014l-0.752,0.867c-0.077,0.091-0.072,0.235,0.014,0.316l2.257,2.286
		c0.086,0.081,0.22,0.072,0.292-0.024l1.126-1.097l2.353-3.11C-29.021,122.365-29.035,122.164-29.126,122.087z"/>
</g>
<g id="google_x5F_maps_1_">
	<path fill="#00539F" d="M46.5,1.667c-3.673,0-6.65,2.978-6.65,6.65c0,0.975,0.445,2.298,0.445,2.298
		c1.765,4.528,6.009,12.882,6.009,12.882c0.054,0.114,0.125,0.17,0.196,0.17c0.071,0,0.142-0.057,0.195-0.17
		c0,0,4.244-8.354,6.01-12.882c0,0,0.445-1.323,0.445-2.298C53.15,4.644,50.173,1.667,46.5,1.667z"/>
</g>
<g>
	<g>
		<path fill-rule="evenodd" clip-rule="evenodd" fill="#FFFFFF" d="M46.089,7.58c0.051,0,0.079-0.028,0.079-0.079
			c0-0.201-0.028-0.35-0.065-0.481c-0.15-0.444-0.551-0.71-1.089-0.71c-0.537,0-0.939,0.266-1.084,0.71
			c-0.042,0.131-0.07,0.28-0.07,0.481c0,0.051,0.028,0.079,0.084,0.079H46.089z M42.224,9.795C42.093,9.398,42,8.931,42,8.263
			c0-0.682,0.079-1.149,0.21-1.551c0.379-1.164,1.411-1.832,2.79-1.832c1.435,0,2.43,0.682,2.804,1.818
			c0.136,0.425,0.215,0.897,0.215,1.991c0,0.079-0.051,0.135-0.149,0.135h-3.925c-0.056,0-0.084,0.023-0.084,0.079
			c0.014,0.131,0.042,0.252,0.084,0.36c0.173,0.561,0.668,0.855,1.341,0.855c0.64,0,1.112-0.224,1.486-0.575
			c0.065-0.051,0.135-0.066,0.187,0l0.888,0.827c0.065,0.056,0.065,0.135,0.014,0.187c-0.617,0.659-1.57,1.084-2.766,1.084
			C43.621,11.641,42.603,10.959,42.224,9.795z"/>
	</g>
	<g>
		<path fill="#FFFFFF" d="M48.416,6.043c0.089-0.285,0.626-0.911,0.897-0.79C50.014,5.571,51,6.464,51,8.333
			c0,1.804-0.967,2.794-1.687,3.084c-0.299,0.117-0.813-0.622-0.897-0.935c-0.136-0.519,1.019-0.696,1.019-2.149
			C49.435,6.51,48.248,6.59,48.416,6.043z"/>
	</g>
</g>
<g>
	<g>
		<path fill="#00539F" d="M71.937,14.37c-0.053,0-0.079-0.035-0.065-0.088l0.172-0.642c0.009-0.035,0.025-0.062,0.05-0.088
			l2.846-2.543l0.005-0.018h-1.989c-0.053,0-0.078-0.035-0.064-0.088l0.184-0.686c0.014-0.053,0.059-0.088,0.111-0.088h3.062
			c0.053,0,0.079,0.035,0.064,0.088l-0.184,0.686c-0.012,0.044-0.025,0.062-0.05,0.088l-2.808,2.499l-0.005,0.018h2.077
			c0.053,0,0.078,0.035,0.064,0.088l-0.184,0.686c-0.014,0.053-0.059,0.088-0.111,0.088H71.937z"/>
		<path fill="#00539F" d="M76.09,13.024c-0.024-0.369,0.03-0.704,0.283-1.645c0.252-0.941,0.377-1.276,0.599-1.645
			c0.563-0.95,1.469-1.443,2.499-1.443c1.038,0,1.681,0.493,1.734,1.443c0.024,0.37-0.03,0.704-0.282,1.645
			c-0.252,0.941-0.377,1.276-0.599,1.645c-0.563,0.95-1.469,1.443-2.507,1.443C76.785,14.467,76.143,13.974,76.09,13.024z
			 M79.392,12.751c0.129-0.22,0.247-0.528,0.474-1.372c0.229-0.853,0.274-1.152,0.262-1.372c-0.037-0.484-0.309-0.783-0.908-0.783
			c-0.59,0-1.022,0.299-1.319,0.783c-0.129,0.22-0.244,0.519-0.473,1.372c-0.226,0.845-0.274,1.152-0.262,1.372
			c0.038,0.484,0.31,0.783,0.899,0.783C78.663,13.534,79.095,13.235,79.392,12.751z"/>
		<path fill="#00539F" d="M83.359,14.37c-0.053,0-0.079-0.035-0.064-0.088l0.655-2.446c0.146-0.545-0.025-0.924-0.553-0.924
			c-0.51,0-0.911,0.378-1.057,0.924l-0.655,2.446c-0.014,0.053-0.059,0.088-0.111,0.088h-0.81c-0.053,0-0.079-0.035-0.065-0.088
			l1.089-4.065c0.014-0.053,0.059-0.088,0.112-0.088h0.81c0.053,0,0.079,0.035,0.064,0.088l-0.083,0.308h0.009
			c0.256-0.264,0.686-0.493,1.25-0.493c0.906,0,1.29,0.669,1.048,1.575l-0.717,2.674c-0.014,0.053-0.059,0.088-0.111,0.088H83.359z"
			/>
		<path fill="#00539F" d="M87.451,14.37c-0.053,0-0.079-0.035-0.064-0.088l0.083-0.308H87.46c-0.28,0.29-0.73,0.493-1.329,0.493
			c-0.774,0-1.317-0.405-1.079-1.293c0.247-0.924,1.012-1.346,2.059-1.346h0.863c0.035,0,0.057-0.018,0.067-0.053l0.054-0.202
			c0.13-0.484-0.04-0.704-0.753-0.704c-0.475,0-0.801,0.132-1.046,0.29c-0.053,0.035-0.104,0.027-0.118-0.017l-0.17-0.581
			c-0.015-0.044,0.006-0.088,0.048-0.114c0.409-0.247,0.92-0.414,1.616-0.414c1.294,0,1.651,0.44,1.372,1.478l-0.743,2.771
			c-0.014,0.053-0.059,0.088-0.111,0.088H87.451z M87.727,12.944l0.087-0.326c0.009-0.035-0.003-0.052-0.039-0.052h-0.704
			c-0.633,0-0.962,0.176-1.068,0.571c-0.094,0.352,0.113,0.528,0.589,0.528C87.199,13.666,87.597,13.428,87.727,12.944z"/>
	</g>
	<path fill="#00539F" d="M69.5,0.667v22h22v-22H69.5z M90.913,16.8c0,2.916-2.364,5.28-5.28,5.28H70.087V1.253h20.827V16.8z"/>
</g>
<g>
</g>
<g>
</g>
<g>
</g>
<g>
</g>
<g>
</g>
<g>
</g>
<g>
</g>
<g>
</g>
<g>
</g>
<g>
</g>
<g>
</g>
<g>
</g>
<g>
</g>
<g>
</g>
<g>
</g>
</svg>
