<?xml version="1.0" encoding="utf-8"?>
<!-- Generator: Adobe Illustrator 17.0.0, SVG Export Plug-In . SVG Version: 6.00 Build 0)  -->
<!DOCTYPE svg PUBLIC "-//W3C//DTD SVG 1.1//EN" "http://www.w3.org/Graphics/SVG/1.1/DTD/svg11.dtd">
<svg version="1.1" id="Layer_1" xmlns="http://www.w3.org/2000/svg" xmlns:xlink="http://www.w3.org/1999/xlink" x="0px" y="0px"
	 width="24px" height="24px" viewBox="0 0 24 24" enable-background="new 0 0 24 24" xml:space="preserve">
<path fill="#00539F" d="M20.361,18.226c-0.522-0.825-2.276-1.335-4.018-2.061c-1.736-0.732-2.148-0.987-2.148-0.987L14.177,13.5
	c0,0,0.65-0.505,0.854-2.09c0.406,0.122,0.836-0.61,0.859-0.993c0.023-0.372-0.058-1.405-0.552-1.301
	c0.099-0.772,0.174-1.475,0.139-1.841C15.345,5.922,14.026,4.5,12,4.5S8.655,5.922,8.522,7.275C8.487,7.641,8.563,8.344,8.661,9.116
	c-0.494-0.104-0.575,0.929-0.552,1.301c0.023,0.383,0.453,1.115,0.859,0.993c0.203,1.585,0.854,2.09,0.854,2.09l-0.017,1.678
	c0,0-0.412,0.255-2.148,0.987c-1.742,0.726-3.496,1.237-4.018,2.061C3.168,18.964,3.308,22.5,3.308,22.5h17.385
	C20.692,22.5,20.832,18.964,20.361,18.226z"/>
</svg>
