<?xml version="1.0" encoding="utf-8"?>
<!-- Generator: Adobe Illustrator 17.0.0, SVG Export Plug-In . SVG Version: 6.00 Build 0)  -->
<!DOCTYPE svg PUBLIC "-//W3C//DTD SVG 1.1//EN" "http://www.w3.org/Graphics/SVG/1.1/DTD/svg11.dtd">
<svg version="1.1" id="Layer_1" xmlns="http://www.w3.org/2000/svg" xmlns:xlink="http://www.w3.org/1999/xlink" x="0px" y="0px"
	 width="24px" height="24px" viewBox="0 0 24 24" enable-background="new 0 0 24 24" xml:space="preserve">
<g>
	<path fill-rule="evenodd" clip-rule="evenodd" fill="#00539F" d="M8.988,21.766c-0.005-0.695,0.537-1.265,1.21-1.265
		c0.679,0,1.227,0.569,1.238,1.265c0.005,0.706-0.542,1.276-1.216,1.276C9.541,23.042,8.993,22.472,8.988,21.766z M3.785,5.945
		v16.062c0,1.101,0.86,1.993,1.917,1.993h9.008c0.761,0,1.413-0.46,1.714-1.128v-9.184c-0.553,0.17-1.194,0.356-1.785,0.372v0.142
		h0.099v5.964h-0.422h-0.843H5.472V19.74v-0.427V5.688h0.011V5.496h1.834c0.104-0.509,0.257-0.997,0.465-1.457H5.658
		C4.623,4.039,3.785,4.888,3.785,5.945z"/>
	<g>
		<path fill-rule="evenodd" clip-rule="evenodd" fill="#FF6702" d="M14.19,1c3.258,0,5.953,2.634,6.024,5.914
			c0.06,3.308-2.568,6.002-5.87,6.002c-3.313,0-6.007-2.694-6.024-6.002C8.303,3.634,10.932,1,14.19,1z M14.206,2.358
			c2.514,0,4.589,2.037,4.633,4.556c0.049,2.541-1.977,4.611-4.518,4.611c-2.541,0-4.616-2.07-4.633-4.611
			C9.672,4.395,11.698,2.358,14.206,2.358z"/>
	</g>
	<g>
		<g>
			<path fill="#FF6702" d="M17.145,4.814c-0.075-0.065-0.485-0.375-0.561-0.441c-0.077-0.066-0.196-0.084-0.28-0.084h-2.446
				c-0.084,0-0.204,0.019-0.28,0.084c-0.056,0.048-0.287,0.224-0.438,0.343h2.049c0.105,0,0.253,0.023,0.348,0.105
				c0.094,0.082,0.602,0.466,0.695,0.547c0.094,0.08,0.171,0.202,0.146,0.375c-0.016,0.107-0.247,1.657-0.42,2.817h0.612
				c0.084,0,0.175-0.065,0.201-0.145c0,0,0.472-3.158,0.492-3.297C17.284,4.976,17.221,4.878,17.145,4.814z"/>
		</g>
		<g>
			<path fill="#FF6702" d="M15.943,5.592c-0.083-0.071-0.533-0.413-0.617-0.485c-0.084-0.073-0.216-0.093-0.308-0.093h-2.691
				c-0.093,0-0.224,0.02-0.308,0.093s-0.534,0.413-0.618,0.485c-0.083,0.071-0.152,0.179-0.13,0.333
				c0.022,0.154,0.541,3.627,0.541,3.627c0.029,0.087,0.129,0.16,0.221,0.16h3.276c0.093,0,0.192-0.072,0.221-0.16
				c0,0,0.519-3.474,0.541-3.627C16.095,5.771,16.026,5.663,15.943,5.592z M13.671,8.025c-0.908,0-1.103-1.285-1.143-1.55h0.514
				c0.078,0.386,0.253,1.047,0.629,1.047c0.377,0,0.552-0.661,0.63-1.047h0.513C14.775,6.739,14.58,8.025,13.671,8.025z
				 M11.704,5.965l0.617-0.643h2.703l0.617,0.643H11.704z"/>
		</g>
	</g>
</g>
</svg>
