<?xml version="1.0" encoding="utf-8"?>
<!-- Generator: Adobe Illustrator 17.0.0, SVG Export Plug-In . SVG Version: 6.00 Build 0)  -->
<!DOCTYPE svg PUBLIC "-//W3C//DTD SVG 1.1//EN" "http://www.w3.org/Graphics/SVG/1.1/DTD/svg11.dtd">
<svg version="1.1" id="Layer_1" xmlns="http://www.w3.org/2000/svg" xmlns:xlink="http://www.w3.org/1999/xlink" x="0px" y="0px"
	 width="24px" height="24px" viewBox="0 0 24 24" enable-background="new 0 0 24 24" xml:space="preserve">
<path fill-rule="evenodd" clip-rule="evenodd" fill="#00539F" d="M18.725,6.774c-1.893-1.881-4.37-2.805-6.846-2.774l-0.013,1.191
	c2.172-0.032,4.363,0.773,6.016,2.425c1.653,1.653,2.463,3.838,2.419,6.016l1.197-0.013C21.531,11.144,20.606,8.668,18.725,6.774z
	 M16.737,13.177l1.184-0.019c0.051-1.571-0.519-3.16-1.716-4.363c-1.203-1.197-2.793-1.761-4.363-1.716l-0.019,1.191
	c1.279-0.051,2.565,0.399,3.54,1.368C16.338,10.606,16.781,11.904,16.737,13.177z M12.842,10.967c0.291,0.291,0.38,0.69,0.304,1.064
	l1.216-0.013c0.057-0.678-0.165-1.374-0.678-1.893c-0.513-0.513-1.21-0.728-1.887-0.671l-0.013,1.21
	C12.158,10.593,12.557,10.675,12.842,10.967z M17.946,19.009c-0.272-0.627-3.559-1.596-3.825-1.609L13.9,17.413
	c-0.443,0.095-0.937,0.519-1.976,1.438c-1.165-0.538-2.761-1.982-3.515-2.831c-0.817-0.912-1.836-2.457-2.197-3.616
	c1.178-1.045,1.672-1.501,1.704-2.001c0.013-0.279-0.545-3.648-1.14-3.99L6.598,6.3c-0.38-0.241-0.95-0.614-1.583-0.481
	C4.863,5.85,4.711,5.913,4.572,5.996C4.147,6.268,3.103,6.983,2.628,7.933c-0.291,0.589-0.424,5.959,3.597,10.5
	c3.983,4.49,8.885,4.686,9.626,4.534h0.019l0.063-0.025c0.994-0.355,1.843-1.304,2.153-1.691c0.589-0.728,0.171-1.583-0.057-2.045
	L17.946,19.009z"/>
</svg>
