<?xml version="1.0" encoding="utf-8"?>
<!-- Generator: Adobe Illustrator 17.0.0, SVG Export Plug-In . SVG Version: 6.00 Build 0)  -->
<!DOCTYPE svg PUBLIC "-//W3C//DTD SVG 1.1//EN" "http://www.w3.org/Graphics/SVG/1.1/DTD/svg11.dtd">
<svg version="1.1" id="Layer_1" xmlns="http://www.w3.org/2000/svg" xmlns:xlink="http://www.w3.org/1999/xlink" x="0px" y="0px"
	 width="24px" height="24px" viewBox="0 0 24 24" enable-background="new 0 0 24 24" xml:space="preserve">
<g>
	<g>
		<path fill="#CCCCCC" d="M0.5,17.5C0.5,16.67,1.17,16,2,16h20c0.83,0,1.5,0.67,1.5,1.5S22.83,19,22,19H2
			C1.17,19,0.5,18.33,0.5,17.5z"/>
	</g>
	<g>
		<path fill="#CCCCCC" d="M0.5,12c0-0.83,0.67-1.5,1.5-1.5h20c0.83,0,1.5,0.67,1.5,1.5s-0.67,1.5-1.5,1.5H2
			C1.17,13.5,0.5,12.83,0.5,12z"/>
	</g>
	<g>
		<path fill="#CCCCCC" d="M0.5,6.5C0.5,5.67,1.17,5,2,5h20c0.83,0,1.5,0.67,1.5,1.5S22.83,8,22,8H2C1.17,8,0.5,7.33,0.5,6.5z"/>
	</g>
</g>
</svg>
