<?xml version="1.0" encoding="utf-8"?>
<!-- Generator: Adobe Illustrator 17.0.0, SVG Export Plug-In . SVG Version: 6.00 Build 0)  -->
<!DOCTYPE svg PUBLIC "-//W3C//DTD SVG 1.1//EN" "http://www.w3.org/Graphics/SVG/1.1/DTD/svg11.dtd">
<svg version="1.1" id="Layer_1" xmlns="http://www.w3.org/2000/svg" xmlns:xlink="http://www.w3.org/1999/xlink" x="0px" y="0px"
	 width="24px" height="24px" viewBox="0 0 24 24" enable-background="new 0 0 24 24" xml:space="preserve">
<path fill-rule="evenodd" clip-rule="evenodd" fill="#00539F" d="M10.949,21.677c0-0.687,0.549-1.246,1.226-1.246
	c0.677,0,1.231,0.559,1.231,1.246c0,0.692-0.554,1.251-1.231,1.251C11.497,22.928,10.949,22.369,10.949,21.677z M6.739,7.036
	c0-1,0.246-1.251,1.226-1.251h8.072c0.979,0,1.226,0.251,1.226,1.251v11.431c0,0.995-0.246,1.246-1.226,1.246H7.964
	c-0.98,0-1.226-0.251-1.226-1.246V7.036z M16.241,4H7.759C6.426,4,5.333,5.123,5.333,6.503v15C5.333,22.877,6.426,24,7.759,24h8.482
	c1.333,0,2.426-1.123,2.426-2.497v-15C18.667,5.123,17.574,4,16.241,4z"/>
</svg>
