<?xml version="1.0" encoding="utf-8"?>
<!-- Generator: Adobe Illustrator 17.0.0, SVG Export Plug-In . SVG Version: 6.00 Build 0)  -->
<!DOCTYPE svg PUBLIC "-//W3C//DTD SVG 1.1//EN" "http://www.w3.org/Graphics/SVG/1.1/DTD/svg11.dtd">
<svg version="1.1" id="Layer_1" xmlns="http://www.w3.org/2000/svg" xmlns:xlink="http://www.w3.org/1999/xlink" x="0px" y="0px"
	 width="24px" height="24px" viewBox="0 0 24 24" enable-background="new 0 0 24 24" xml:space="preserve">
<g>
	<path fill-rule="evenodd" clip-rule="evenodd" fill="#00539F" d="M8.988,21.766c-0.005-0.695,0.537-1.265,1.21-1.265
		c0.679,0,1.227,0.569,1.238,1.265c0.005,0.706-0.542,1.276-1.216,1.276C9.541,23.042,8.993,22.472,8.988,21.766z M3.785,5.945
		v16.062c0,1.101,0.86,1.993,1.917,1.993h9.008c0.761,0,1.413-0.46,1.714-1.128v-9.184c-0.553,0.17-1.194,0.356-1.785,0.372v0.142
		h0.099v5.964h-0.422h-0.843H5.472V19.74v-0.427V5.688h0.011V5.496h1.834c0.104-0.509,0.257-0.997,0.465-1.457H5.658
		C4.623,4.039,3.785,4.888,3.785,5.945z"/>
	<g>
		<path fill-rule="evenodd" clip-rule="evenodd" fill="#FF6702" d="M14.19,1c3.258,0,5.953,2.634,6.024,5.914
			c0.06,3.308-2.568,6.002-5.87,6.002c-3.313,0-6.007-2.694-6.024-6.002C8.303,3.634,10.932,1,14.19,1z M14.206,2.358
			c2.514,0,4.589,2.037,4.633,4.556c0.049,2.541-1.977,4.611-4.518,4.611c-2.541,0-4.616-2.07-4.633-4.611
			C9.672,4.395,11.698,2.358,14.206,2.358z"/>
	</g>
	<g>
		<path fill="#FF6702" d="M13.007,7.619v-1.86h-1.14c-0.33,0-0.6,0.27-0.6,0.6v1.8c0,0.33,0.27,0.6,0.6,0.6h0.3v0.9l0.9-0.9h1.501
			c0.33,0,0.6-0.27,0.6-0.6V7.612c-0.02,0.004-0.039,0.006-0.06,0.006H13.007z M16.667,4.258h-2.7c-0.33,0-0.6,0.27-0.6,0.6v2.4
			h2.101l0.9,0.9v-0.9h0.3c0.33,0,0.6-0.27,0.6-0.6v-1.8C17.267,4.528,16.998,4.258,16.667,4.258z"/>
	</g>
</g>
</svg>
