<?xml version="1.0" encoding="utf-8"?>
<!-- Generator: Adobe Illustrator 17.0.0, SVG Export Plug-In . SVG Version: 6.00 Build 0)  -->
<!DOCTYPE svg PUBLIC "-//W3C//DTD SVG 1.1//EN" "http://www.w3.org/Graphics/SVG/1.1/DTD/svg11.dtd">
<svg version="1.1" id="Layer_1" xmlns="http://www.w3.org/2000/svg" xmlns:xlink="http://www.w3.org/1999/xlink" x="0px" y="0px"
	 width="24px" height="24px" viewBox="0 0 24 24" enable-background="new 0 0 24 24" xml:space="preserve">
<g>
	<path fill-rule="evenodd" clip-rule="evenodd" fill="#0154A0" d="M6.362,7.21c0-1.057,0.262-1.324,1.314-1.324h6.014l3.948,5.852
		v9.052c0,1.057-0.262,1.324-1.314,1.324H7.676c-1.052,0-1.314-0.267-1.314-1.324V7.21z M14.667,4H7.452
		C6.029,4,4.857,5.19,4.857,6.643v14.714C4.857,22.81,6.029,24,7.452,24h9.095c1.424,0,2.595-1.19,2.595-2.643V10.79L14.667,4z"/>
	<rect x="7.714" y="18.286" fill-rule="evenodd" clip-rule="evenodd" fill="#0154A0" width="2.381" height="2.857"/>
	<rect x="11.048" y="12.571" fill-rule="evenodd" clip-rule="evenodd" fill="#0154A0" width="2.381" height="8.571"/>
	<rect x="14.381" y="16.857" fill-rule="evenodd" clip-rule="evenodd" fill="#0154A0" width="2.381" height="4.286"/>
</g>
</svg>
