<?xml version="1.0" encoding="utf-8"?>
<!-- Generator: Adobe Illustrator 17.0.0, SVG Export Plug-In . SVG Version: 6.00 Build 0)  -->
<!DOCTYPE svg PUBLIC "-//W3C//DTD SVG 1.1//EN" "http://www.w3.org/Graphics/SVG/1.1/DTD/svg11.dtd">
<svg version="1.1" id="Layer_1" xmlns="http://www.w3.org/2000/svg" xmlns:xlink="http://www.w3.org/1999/xlink" x="0px" y="0px"
	 width="24px" height="24px" viewBox="0 0 24 24" enable-background="new 0 0 24 24" xml:space="preserve">
<g>
	<path fill-rule="evenodd" clip-rule="evenodd" fill="#B3B1B3" d="M12,3.625c-5.8,0-10.5,4.41-10.5,9.845
		c0,2.575,1.065,4.915,2.795,6.67L4.125,24l3.96-1.4c1.21,0.455,2.53,0.71,3.915,0.71c5.8,0,10.5-4.405,10.5-9.84
		S17.8,3.625,12,3.625z"/>
	<g>
		<path fill="#FFFFFF" d="M10.673,15.984v-0.656c0-0.641,0.128-0.961,0.417-1.361l1.264-1.728c0.384-0.512,0.544-0.88,0.544-1.313
			c0-0.688-0.48-1.2-1.248-1.2c-0.752,0-1.216,0.464-1.36,1.28c-0.016,0.096-0.08,0.145-0.176,0.129l-1.44-0.225
			c-0.112-0.016-0.144-0.096-0.128-0.191C8.8,9.117,9.953,8.125,11.713,8.125c1.761,0,3.009,1.152,3.009,2.785
			c0,0.688-0.208,1.281-0.656,1.873l-1.265,1.728c-0.24,0.305-0.32,0.528-0.32,1.008v0.465c0,0.096-0.064,0.16-0.16,0.16h-1.489
			C10.737,16.145,10.673,16.08,10.673,15.984z M10.609,17.393c0-0.096,0.064-0.16,0.16-0.16h1.601c0.096,0,0.16,0.064,0.16,0.16
			v1.633c0,0.096-0.064,0.16-0.16,0.16h-1.601c-0.096,0-0.16-0.064-0.16-0.16V17.393z"/>
	</g>
</g>
</svg>
