<?xml version="1.0" encoding="utf-8"?>
<!-- Generator: Adobe Illustrator 17.0.0, SVG Export Plug-In . SVG Version: 6.00 Build 0)  -->
<!DOCTYPE svg PUBLIC "-//W3C//DTD SVG 1.1//EN" "http://www.w3.org/Graphics/SVG/1.1/DTD/svg11.dtd">
<svg version="1.1" id="Layer_1" xmlns="http://www.w3.org/2000/svg" xmlns:xlink="http://www.w3.org/1999/xlink" x="0px" y="0px"
	 width="35px" height="26px" viewBox="0 0 35 26" enable-background="new 0 0 35 26" xml:space="preserve">
<g>
	<path fill="#FF6702" d="M29.34,1.68c-0.395-0.27-1.015-0.23-1.375,0.1L25.67,3.875c-0.365,0.345-0.335,0.84,0.06,1.13
		c0,0,3.54,2.595,3.54,8.19c0,5.295-3.73,8.355-3.73,8.355c-0.375,0.31-0.39,0.83-0.03,1.165l2.275,2.065
		c0.36,0.33,0.98,0.37,1.39,0.1c0,0,5.345-3.64,5.345-11.66C34.52,5.245,29.34,1.68,29.34,1.68z"/>
	<path fill-rule="evenodd" clip-rule="evenodd" fill="#0154A0" d="M7.22,14.975c0,0-0.675-0.06-0.675,0.47
		c0,3.03,2.26,5.19,5.805,5.19c2.635,0,3.76-0.63,5.345-1.82c0.375-0.28,0.765-0.545,1.07-0.215c0.215,0.23,2.99,2.805,2.99,2.805
		c0.36,0.325,0.265,0.72-0.105,1.035C21.27,22.745,17.1,26,12.295,26C6.03,26,0,23.265,0,12.97C0,4.685,4.695,0,11.59,0
		c7.4,0,11.575,5.175,11.575,12.145v1.77c0,0.72-0.585,1.06-1.06,1.06H7.22z M16.03,7.9c-0.71-1.51-2.185-2.63-4.44-2.63
		c-2.245,0-3.725,1.12-4.44,2.63c-0.41,0.925-0.565,1.61-0.615,2.73H16.64C16.585,9.51,16.435,8.825,16.03,7.9z"/>
</g>
<g>
</g>
<g>
</g>
<g>
</g>
<g>
</g>
<g>
</g>
<g>
</g>
<g>
</g>
<g>
</g>
<g>
</g>
<g>
</g>
<g>
</g>
<g>
</g>
<g>
</g>
<g>
</g>
<g>
</g>
</svg>
